Golos Text-Regular.ufo
<glyph name="exclam" format="2">
	<advance width="300" height="0"/>
	<unicode hex="0021"/>
	<outline>
		<contour>
			<point x="106" y="220" type="line"/>
			<point x="194" y="220" type="line" name="iv01"/>
			<point x="194" y="700" type="line"/>
			<point x="106" y="700" type="line" name="sh01"/>
		</contour>
		<contour>
			<point x="150" y="-10" type="curve" smooth="yes"/>
			<point x="189" y="-10"/>
			<point x="220" y="21" name="sv01"/>
			<point x="220" y="60" type="curve" smooth="yes"/>
			<point x="220" y="100" name="ih01"/>
			<point x="189" y="130" name="ih02"/>
			<point x="150" y="130" type="curve" smooth="yes" name="ih03"/>
			<point x="111" y="130"/>
			<point x="80" y="100"/>
			<point x="80" y="60" type="curve" smooth="yes"/>
			<point x="80" y="21"/>
			<point x="111" y="-10"/>
		</contour>
	</outline>
</glyph>
<glyph name="numbersign" format="2">
	<advance width="680" height="0"/>
	<unicode hex="0023"/>
	<outline>
		<contour>
			<point x="110" y="0" type="line"/>
			<point x="194" y="0" type="line" name="ab02"/>
			<point x="231" y="198" type="line"/>
			<point x="393" y="198" type="line" name="sv08"/>
			<point x="356" y="0" type="line"/>
			<point x="440" y="0" type="line" name="ab01"/>
			<point x="477" y="198" type="line"/>
			<point x="576" y="198" type="line" name="sv07"/>
			<point x="576" y="272" type="line"/>
			<point x="490" y="272" type="line" name="sv06"/>
			<point x="519" y="428" type="line"/>
			<point x="615" y="428" type="line" name="sv05"/>
			<point x="615" y="502" type="line"/>
			<point x="533" y="502" type="line" name="sv04"/>
			<point x="570" y="700" type="line"/>
			<point x="486" y="700" type="line" name="at02"/>
			<point x="449" y="502" type="line"/>
			<point x="287" y="502" type="line" name="sv03"/>
			<point x="324" y="700" type="line" name="ih01"/>
			<point x="240" y="700" type="line" name="at01"/>
			<point x="203" y="502" type="line" name="iv02"/>
			<point x="104" y="502" type="line"/>
			<point x="104" y="428" type="line"/>
			<point x="189" y="428" type="line" name="sv02"/>
			<point x="160" y="272" type="line" name="iv01"/>
			<point x="65" y="272" type="line"/>
			<point x="65" y="198" type="line"/>
			<point x="147" y="198" type="line" name="sv01"/>
		</contour>
		<contour>
			<point x="244" y="272" type="line"/>
			<point x="273" y="428" type="line"/>
			<point x="435" y="428" type="line" name="sv09"/>
			<point x="406" y="272" type="line" name="sh01"/>
		</contour>
	</outline>
</glyph>
<glyph name="dollar" format="2">
	<advance width="640" height="0"/>
	<unicode hex="0024"/>
	<outline>
		<contour>
			<point x="278" y="-120" type="line" name="sv05"/>
			<point x="362" y="-120" type="line"/>
			<point x="362" y="-8" type="line" name="sv04"/>
			<point x="503" y="5"/>
			<point x="585" y="84" name="iv04"/>
			<point x="585" y="185" type="curve" smooth="yes"/>
			<point x="585" y="310" name="sv01"/>
			<point x="515" y="361" name="iv03"/>
			<point x="341" y="399" type="curve" smooth="yes"/>
			<point x="221" y="426" name="at01"/>
			<point x="169" y="452" name="sv03"/>
			<point x="169" y="525" type="curve" smooth="yes"/>
			<point x="169" y="581" name="sv02"/>
			<point x="224" y="626"/>
			<point x="320" y="626" type="curve" smooth="yes" name="iv02"/>
			<point x="414" y="626"/>
			<point x="453" y="581" name="ih01"/>
			<point x="466" y="525" type="curve" name="iv01"/>
			<point x="560" y="525" type="line"/>
			<point x="544" y="618" name="ab01"/>
			<point x="483" y="692" name="ih02"/>
			<point x="362" y="707" type="curve" name="ih03"/>
			<point x="362" y="800" type="line"/>
			<point x="278" y="800" type="line"/>
			<point x="278" y="707" type="line"/>
			<point x="150" y="694"/>
			<point x="75" y="618"/>
			<point x="75" y="525" type="curve" smooth="yes"/>
			<point x="75" y="397"/>
			<point x="145" y="354"/>
			<point x="301" y="320" type="curve" smooth="yes"/>
			<point x="443" y="288"/>
			<point x="491" y="262"/>
			<point x="491" y="185" type="curve" smooth="yes"/>
			<point x="491" y="122"/>
			<point x="432" y="74"/>
			<point x="320" y="74" type="curve" smooth="yes"/>
			<point x="210" y="74"/>
			<point x="163" y="123"/>
			<point x="149" y="185" type="curve"/>
			<point x="55" y="185" type="line"/>
			<point x="71" y="84"/>
			<point x="138" y="5"/>
			<point x="278" y="-8" type="curve"/>
		</contour>
	</outline>
</glyph>
<glyph name="parenright" format="2">
	<advance width="380" height="0"/>
	<unicode hex="0029"/>
	<outline>
		<contour>
			<point x="290" y="260" type="line" smooth="yes"/>
			<point x="290" y="391"/>
			<point x="247" y="501"/>
			<point x="203" y="578" type="curve"/>
			<point x="178" y="624"/>
			<point x="149" y="665"/>
			<point x="116" y="700" type="curve"/>
			<point x="10" y="700" type="line"/>
			<point x="46" y="665"/>
			<point x="78" y="624"/>
			<point x="105" y="578" type="curve"/>
			<point x="153" y="501"/>
			<point x="200" y="391"/>
			<point x="200" y="260" type="curve" smooth="yes"/>
			<point x="200" y="240" type="line" smooth="yes"/>
			<point x="200" y="110"/>
			<point x="153" y="0"/>
			<point x="105" y="-77" type="curve" smooth="yes"/>
			<point x="78" y="-122"/>
			<point x="46" y="-163"/>
			<point x="10" y="-200" type="curve"/>
			<point x="112" y="-200" type="line"/>
			<point x="145" y="-163"/>
			<point x="175" y="-122"/>
			<point x="201" y="-77" type="curve" smooth="yes"/>
			<point x="246" y="2"/>
			<point x="290" y="109"/>
			<point x="290" y="240" type="curve" smooth="yes"/>
		</contour>
	</outline>
</glyph>
<glyph name="asterisk" format="2">
	<advance width="450" height="0"/>
	<unicode hex="002A"/>
	<outline>
		<contour>
			<point x="189" y="350" type="line" name="iv01"/>
			<point x="261" y="350" type="line"/>
			<point x="255" y="473" type="line"/>
			<point x="359" y="407" type="line" name="sv02"/>
			<point x="395" y="469" type="line"/>
			<point x="285" y="525" type="line"/>
			<point x="395" y="581" type="line"/>
			<point x="359" y="643" type="line" name="sv01"/>
			<point x="255" y="577" type="line"/>
			<point x="261" y="700" type="line"/>
			<point x="189" y="700" type="line" name="at01"/>
			<point x="195" y="577" type="line"/>
			<point x="91" y="643" type="line" name="iv03"/>
			<point x="55" y="581" type="line"/>
			<point x="165" y="525" type="line"/>
			<point x="55" y="469" type="line"/>
			<point x="91" y="407" type="line" name="iv02"/>
			<point x="195" y="473" type="line" name="ih01"/>
		</contour>
	</outline>
</glyph>
<glyph name="period" format="2">
	<advance width="300" height="0"/>
	<unicode hex="002E"/>
	<outline>
		<contour>
			<point x="150" y="-10" type="curve" smooth="yes"/>
			<point x="189" y="-10"/>
			<point x="220" y="21" name="sv01"/>
			<point x="220" y="60" type="curve" smooth="yes"/>
			<point x="220" y="100" name="ih01"/>
			<point x="189" y="130" name="ih02"/>
			<point x="150" y="130" type="curve" smooth="yes" name="ih03"/>
			<point x="111" y="130"/>
			<point x="80" y="100"/>
			<point x="80" y="60" type="curve" smooth="yes"/>
			<point x="80" y="21"/>
			<point x="111" y="-10"/>
		</contour>
	</outline>
</glyph>
<glyph name="zero" format="2">
	<advance width="620" height="0"/>
	<unicode hex="0030"/>
	<outline>
		<contour>
			<point x="310" y="-10" type="curve" smooth="yes"/>
			<point x="446" y="-10"/>
			<point x="560" y="72"/>
			<point x="560" y="350" type="curve" smooth="yes" name="at01"/>
			<point x="560" y="370" type="line" smooth="yes"/>
			<point x="560" y="628"/>
			<point x="446" y="710" name="ih01"/>
			<point x="310" y="710" type="curve" smooth="yes"/>
			<point x="174" y="710"/>
			<point x="60" y="628"/>
			<point x="60" y="370" type="curve" smooth="yes" name="sv01"/>
			<point x="60" y="350" type="line" smooth="yes"/>
			<point x="60" y="72"/>
			<point x="174" y="-10" name="sh01"/>
		</contour>
		<contour>
			<point x="310" y="72" type="curve" smooth="yes" name="ih03"/>
			<point x="226" y="72"/>
			<point x="154" y="122"/>
			<point x="154" y="350" type="curve" smooth="yes"/>
			<point x="154" y="370" type="line" smooth="yes"/>
			<point x="154" y="578"/>
			<point x="226" y="628"/>
			<point x="310" y="628" type="curve" smooth="yes"/>
			<point x="394" y="628"/>
			<point x="466" y="578"/>
			<point x="466" y="370" type="curve" smooth="yes"/>
			<point x="466" y="350" type="line" smooth="yes"/>
			<point x="466" y="122"/>
			<point x="394" y="72"/>
		</contour>
	</outline>
</glyph>
<glyph name="one" format="2">
	<advance width="485" height="0"/>
	<unicode hex="0031"/>
	<outline>
		<contour>
			<point x="55" y="0" type="line"/>
			<point x="455" y="0" type="line" name="ab01"/>
			<point x="455" y="82" type="line" name="sv03"/>
			<point x="318" y="82" type="line" name="sv02"/>
			<point x="318" y="700" type="line"/>
			<point x="224" y="700" type="line" name="ih01"/>
			<point x="55" y="580" type="line"/>
			<point x="55" y="478" type="line" name="iv01"/>
			<point x="222" y="597" type="line" name="iv02"/>
			<point x="222" y="82" type="line"/>
			<point x="55" y="82" type="line" name="sv01"/>
		</contour>
	</outline>
</glyph>
<glyph name="two" format="2">
	<advance width="580" height="0"/>
	<unicode hex="0032"/>
	<outline>
		<contour>
			<point x="40" y="0" type="line"/>
			<point x="530" y="0" type="line" name="ab01"/>
			<point x="530" y="82" type="line"/>
			<point x="162" y="82" type="line" name="sv01"/>
			<point x="371" y="255" type="line" name="iv03"/>
			<point x="459" y="330"/>
			<point x="520" y="393" name="at01"/>
			<point x="520" y="490" type="curve" smooth="yes" name="iv02"/>
			<point x="520" y="617"/>
			<point x="437" y="710" name="ih01"/>
			<point x="295" y="710" type="curve" smooth="yes"/>
			<point x="148" y="710" name="iv01"/>
			<point x="50" y="612" name="sv02"/>
			<point x="50" y="475" type="curve" name="ih02"/>
			<point x="144" y="475" type="line" name="ih03"/>
			<point x="144" y="571"/>
			<point x="198" y="626" name="hr01"/>
			<point x="295" y="626" type="curve" smooth="yes" name="hr01"/>
			<point x="376" y="626"/>
			<point x="426" y="569"/>
			<point x="426" y="490" type="curve" smooth="yes"/>
			<point x="426" y="432"/>
			<point x="406" y="392"/>
			<point x="320" y="320" type="curve"/>
			<point x="40" y="77" type="line"/>
		</contour>
	</outline>
</glyph>
<glyph name="three" format="2">
	<advance width="585" height="0"/>
	<unicode hex="0033"/>
	<outline>
		<contour>
			<point x="285" y="-10" type="curve" smooth="yes"/>
			<point x="438" y="-10"/>
			<point x="525" y="78" name="iv04"/>
			<point x="525" y="185" type="curve" smooth="yes"/>
			<point x="525" y="285" name="at01"/>
			<point x="475" y="340" name="iv03"/>
			<point x="395" y="365" type="curve"/>
			<point x="471" y="388" name="sv03"/>
			<point x="515" y="445"/>
			<point x="515" y="525" type="curve" smooth="yes" name="iv02"/>
			<point x="515" y="625"/>
			<point x="433" y="710"/>
			<point x="285" y="710" type="curve" smooth="yes" name="sv02"/>
			<point x="139" y="710"/>
			<point x="55" y="625" name="sv01"/>
			<point x="55" y="520" type="curve"/>
			<point x="149" y="520" type="line" name="iv01"/>
			<point x="149" y="580" name="ih01"/>
			<point x="190" y="626" name="ih02"/>
			<point x="285" y="626" type="curve" smooth="yes" name="ih03"/>
			<point x="384" y="626"/>
			<point x="421" y="584"/>
			<point x="421" y="515" type="curve" smooth="yes"/>
			<point x="421" y="443"/>
			<point x="381" y="400"/>
			<point x="285" y="400" type="curve" smooth="yes"/>
			<point x="210" y="400" type="line"/>
			<point x="210" y="320" type="line"/>
			<point x="285" y="320" type="line" smooth="yes"/>
			<point x="385" y="320"/>
			<point x="431" y="270"/>
			<point x="431" y="195" type="curve" smooth="yes"/>
			<point x="431" y="123"/>
			<point x="386" y="74"/>
			<point x="285" y="74" type="curve" smooth="yes"/>
			<point x="184" y="74"/>
			<point x="139" y="122"/>
			<point x="139" y="190" type="curve" name="hr01"/>
			<point x="45" y="190" type="line"/>
			<point x="45" y="78"/>
			<point x="133" y="-10"/>
		</contour>
	</outline>
</glyph>
<glyph name="five" format="2">
	<advance width="580" height="0"/>
	<unicode hex="0035"/>
	<outline>
		<contour>
			<point x="290" y="-10" type="curve" smooth="yes"/>
			<point x="432" y="-10"/>
			<point x="530" y="85" name="iv02"/>
			<point x="530" y="235" type="curve" smooth="yes" name="iv04"/>
			<point x="530" y="394"/>
			<point x="444" y="480" name="sv03"/>
			<point x="305" y="480" type="curve" smooth="yes"/>
			<point x="249" y="480" name="at01"/>
			<point x="204" y="461"/>
			<point x="169" y="423" type="curve" name="iv03"/>
			<point x="169" y="618" type="line" name="sv02"/>
			<point x="490" y="618" type="line"/>
			<point x="490" y="700" type="line" name="sv01"/>
			<point x="75" y="700" type="line"/>
			<point x="75" y="330" type="line" name="iv01"/>
			<point x="159" y="330" type="line" name="ih01"/>
			<point x="180" y="365" name="ih02"/>
			<point x="218" y="396" name="ih03"/>
			<point x="290" y="396" type="curve" smooth="yes"/>
			<point x="364" y="396"/>
			<point x="436" y="351"/>
			<point x="436" y="235" type="curve" smooth="yes"/>
			<point x="436" y="134"/>
			<point x="381" y="74"/>
			<point x="290" y="74" type="curve" smooth="yes"/>
			<point x="210" y="74"/>
			<point x="161" y="119"/>
			<point x="154" y="170" type="curve" name="hr01"/>
			<point x="60" y="170" type="line"/>
			<point x="65" y="80"/>
			<point x="139" y="-10"/>
		</contour>
	</outline>
</glyph>
<glyph name="six" format="2">
	<advance width="605" height="0"/>
	<unicode hex="0036"/>
	<outline>
		<contour>
			<point x="315" y="-10" type="curve" smooth="yes"/>
			<point x="444" y="-10"/>
			<point x="550" y="86"/>
			<point x="550" y="219" type="curve" smooth="yes"/>
			<point x="550" y="229" type="line" smooth="yes"/>
			<point x="550" y="374"/>
			<point x="460" y="455"/>
			<point x="320" y="455" type="curve" smooth="yes"/>
			<point x="257" y="455"/>
			<point x="184" y="430"/>
			<point x="146" y="365" type="curve"/>
			<point x="151" y="564"/>
			<point x="224" y="626"/>
			<point x="325" y="626" type="curve" smooth="yes"/>
			<point x="384" y="626"/>
			<point x="422" y="602"/>
			<point x="441" y="555" type="curve" name="hr01"/>
			<point x="535" y="555" type="line"/>
			<point x="511" y="659"/>
			<point x="433" y="710"/>
			<point x="325" y="710" type="curve" smooth="yes"/>
			<point x="179" y="710"/>
			<point x="60" y="606"/>
			<point x="60" y="330" type="curve" smooth="yes"/>
			<point x="60" y="310" type="line" smooth="yes"/>
			<point x="60" y="90"/>
			<point x="160" y="-10"/>
		</contour>
		<contour>
			<point x="307" y="74" type="curve" smooth="yes"/>
			<point x="210" y="74"/>
			<point x="158" y="126"/>
			<point x="158" y="218" type="curve" smooth="yes" name="hr02"/>
			<point x="158" y="228" type="line" smooth="yes"/>
			<point x="158" y="320"/>
			<point x="210" y="371"/>
			<point x="307" y="371" type="curve" smooth="yes"/>
			<point x="404" y="371"/>
			<point x="456" y="320"/>
			<point x="456" y="228" type="curve" smooth="yes"/>
			<point x="456" y="218" type="line" smooth="yes"/>
			<point x="456" y="125"/>
			<point x="404" y="74"/>
		</contour>
	</outline>
</glyph>
<glyph name="seven" format="2">
	<advance width="530" height="0"/>
	<unicode hex="0037"/>
	<outline>
		<contour>
			<point x="140" y="0" type="line"/>
			<point x="240" y="0" type="line" name="ih01"/>
			<point x="490" y="623" type="line" name="sv02"/>
			<point x="490" y="700" type="line"/>
			<point x="20" y="700" type="line" name="at01"/>
			<point x="20" y="618" type="line"/>
			<point x="392" y="618" type="line" name="sv01"/>
		</contour>
	</outline>
</glyph>
<glyph name="eight" format="2">
	<advance width="610" height="0"/>
	<unicode hex="0038"/>
	<outline>
		<contour>
			<point x="305" y="-10" type="curve" smooth="yes"/>
			<point x="471" y="-10"/>
			<point x="555" y="74" name="sv03"/>
			<point x="555" y="185" type="curve" smooth="yes"/>
			<point x="555" y="276" name="at01"/>
			<point x="505" y="327"/>
			<point x="405" y="360" type="curve" name="sv02"/>
			<point x="478" y="388"/>
			<point x="535" y="445" name="ih01"/>
			<point x="535" y="525" type="curve" smooth="yes"/>
			<point x="535" y="629"/>
			<point x="454" y="710" name="iv01"/>
			<point x="305" y="710" type="curve" smooth="yes"/>
			<point x="156" y="710" name="sh01"/>
			<point x="75" y="629"/>
			<point x="75" y="525" type="curve" smooth="yes"/>
			<point x="75" y="444" name="sv01"/>
			<point x="133" y="384"/>
			<point x="205" y="360" type="curve" name="sh02"/>
			<point x="106" y="333" name="ih02"/>
			<point x="55" y="265" name="ih03"/>
			<point x="55" y="185" type="curve" smooth="yes" name="hr01"/>
			<point x="55" y="74"/>
			<point x="139" y="-10"/>
		</contour>
		<contour>
			<point x="305" y="74" type="curve" smooth="yes"/>
			<point x="189" y="74"/>
			<point x="149" y="127"/>
			<point x="149" y="191" type="curve" smooth="yes"/>
			<point x="149" y="268"/>
			<point x="214" y="314"/>
			<point x="305" y="325" type="curve"/>
			<point x="396" y="314"/>
			<point x="461" y="266"/>
			<point x="461" y="191" type="curve" smooth="yes"/>
			<point x="461" y="127"/>
			<point x="421" y="74"/>
		</contour>
		<contour>
			<point x="305" y="395" type="curve"/>
			<point x="225" y="406"/>
			<point x="169" y="445"/>
			<point x="169" y="520" type="curve" smooth="yes"/>
			<point x="169" y="588" name="hr03"/>
			<point x="212" y="626"/>
			<point x="305" y="626" type="curve" smooth="yes"/>
			<point x="397" y="626"/>
			<point x="441" y="588"/>
			<point x="441" y="520" type="curve" smooth="yes"/>
			<point x="441" y="445"/>
			<point x="385" y="406"/>
		</contour>
	</outline>
</glyph>
<glyph name="nine" format="2">
	<advance width="605" height="0"/>
	<unicode hex="0039"/>
	<outline>
		<contour>
			<point x="285" y="-10" type="curve" smooth="yes"/>
			<point x="425" y="-10"/>
			<point x="545" y="94"/>
			<point x="545" y="370" type="curve" smooth="yes"/>
			<point x="545" y="390" type="line" smooth="yes"/>
			<point x="545" y="611"/>
			<point x="447" y="710"/>
			<point x="290" y="710" type="curve" smooth="yes"/>
			<point x="161" y="710"/>
			<point x="55" y="614"/>
			<point x="55" y="481" type="curve" smooth="yes"/>
			<point x="55" y="471" type="line" smooth="yes"/>
			<point x="55" y="326"/>
			<point x="145" y="245"/>
			<point x="285" y="245" type="curve" smooth="yes"/>
			<point x="348" y="245"/>
			<point x="421" y="270"/>
			<point x="459" y="335" type="curve" name="hr01"/>
			<point x="454" y="136"/>
			<point x="381" y="74"/>
			<point x="285" y="74" type="curve" smooth="yes"/>
			<point x="223" y="74"/>
			<point x="183" y="98"/>
			<point x="164" y="145" type="curve" name="hr02"/>
			<point x="70" y="145" type="line"/>
			<point x="94" y="41"/>
			<point x="172" y="-10"/>
		</contour>
		<contour>
			<point x="298" y="329" type="curve" smooth="yes"/>
			<point x="201" y="329"/>
			<point x="149" y="380"/>
			<point x="149" y="472" type="curve" smooth="yes"/>
			<point x="149" y="482" type="line" smooth="yes"/>
			<point x="149" y="577"/>
			<point x="201" y="626"/>
			<point x="298" y="626" type="curve" smooth="yes"/>
			<point x="394" y="626"/>
			<point x="447" y="573"/>
			<point x="447" y="482" type="curve" smooth="yes"/>
			<point x="447" y="472" type="line" smooth="yes"/>
			<point x="447" y="380"/>
			<point x="395" y="329"/>
		</contour>
	</outline>
</glyph>
<glyph name="equal" format="2">
	<advance width="550" height="0"/>
	<unicode hex="003D"/>
	<outline>
		<contour>
			<point x="50" y="219" type="line" name="sv01"/>
			<point x="500" y="219" type="line"/>
			<point x="500" y="301" type="line"/>
			<point x="50" y="301" type="line" name="ih01"/>
		</contour>
		<contour>
			<point x="50" y="419" type="line" name="sv02"/>
			<point x="500" y="419" type="line"/>
			<point x="500" y="501" type="line"/>
			<point x="50" y="501" type="line" name="sh01"/>
		</contour>
	</outline>
</glyph>
<glyph name="question" format="2">
	<advance width="510" height="0"/>
	<unicode hex="003F"/>
	<outline>
		<contour>
			<point x="210" y="220" type="line"/>
			<point x="298" y="220" type="line" name="iv02"/>
			<point x="298" y="240" type="line" smooth="yes"/>
			<point x="298" y="274"/>
			<point x="309" y="301"/>
			<point x="355" y="338" type="curve" name="at01"/>
			<point x="412" y="387"/>
			<point x="465" y="446" name="iv01"/>
			<point x="465" y="520" type="curve" smooth="yes" name="ih01"/>
			<point x="465" y="628"/>
			<point x="384" y="710"/>
			<point x="255" y="710" type="curve" smooth="yes"/>
			<point x="126" y="710"/>
			<point x="45" y="628"/>
			<point x="45" y="520" type="curve" name="sv01"/>
			<point x="135" y="520" type="line"/>
			<point x="135" y="584" name="sh01"/>
			<point x="180" y="630" name="ih02"/>
			<point x="255" y="630" type="curve" smooth="yes" name="hr01"/>
			<point x="330" y="630"/>
			<point x="375" y="584"/>
			<point x="375" y="520" type="curve" smooth="yes" name="hr02"/>
			<point x="375" y="476"/>
			<point x="345" y="441"/>
			<point x="289" y="393" type="curve" smooth="yes"/>
			<point x="220" y="334"/>
			<point x="210" y="301"/>
			<point x="210" y="250" type="curve" smooth="yes"/>
		</contour>
		<contour>
			<point x="255" y="-10" type="curve" smooth="yes"/>
			<point x="294" y="-10"/>
			<point x="325" y="21" name="hr03"/>
			<point x="325" y="60" type="curve" smooth="yes"/>
			<point x="325" y="100"/>
			<point x="294" y="130"/>
			<point x="255" y="130" type="curve" smooth="yes"/>
			<point x="216" y="130"/>
			<point x="185" y="100"/>
			<point x="185" y="60" type="curve" smooth="yes"/>
			<point x="185" y="21"/>
			<point x="216" y="-10"/>
		</contour>
	</outline>
</glyph>
<glyph name="at" format="2">
	<advance width="1020" height="0"/>
	<unicode hex="0040"/>
	<outline>
		<contour>
			<point x="520" y="-210" type="curve" smooth="yes"/>
			<point x="631" y="-210"/>
			<point x="699" y="-192" name="iv05"/>
			<point x="750" y="-165" type="curve" name="sv05"/>
			<point x="750" y="-80" type="line"/>
			<point x="702" y="-108" name="sv02"/>
			<point x="631" y="-132"/>
			<point x="520" y="-132" type="curve" smooth="yes" name="sv04"/>
			<point x="299" y="-132"/>
			<point x="148" y="18"/>
			<point x="148" y="250" type="curve" smooth="yes" name="sv03"/>
			<point x="148" y="477" name="iv04"/>
			<point x="303" y="632" name="iv02"/>
			<point x="510" y="632" type="curve" smooth="yes"/>
			<point x="702" y="632"/>
			<point x="872" y="512" name="iv01"/>
			<point x="872" y="290" type="curve" smooth="yes" name="iv03"/>
			<point x="872" y="143" name="sv01"/>
			<point x="822" y="93"/>
			<point x="750" y="93" type="curve" smooth="yes" name="ih01"/>
			<point x="720" y="93"/>
			<point x="700" y="114" name="ab01"/>
			<point x="700" y="191" type="curve" smooth="yes"/>
			<point x="700" y="475" type="line"/>
			<point x="612" y="475" type="line"/>
			<point x="612" y="405" type="line" name="sv06"/>
			<point x="595" y="445"/>
			<point x="551" y="485"/>
			<point x="475" y="485" type="curve" smooth="yes" name="sh01"/>
			<point x="366" y="485" name="ih02"/>
			<point x="290" y="410" name="ih03"/>
			<point x="290" y="260" type="curve" smooth="yes"/>
			<point x="290" y="240" type="line" smooth="yes"/>
			<point x="290" y="90"/>
			<point x="366" y="15"/>
			<point x="475" y="15" type="curve" smooth="yes"/>
			<point x="555" y="15"/>
			<point x="594" y="54"/>
			<point x="625" y="113" type="curve"/>
			<point x="638" y="36"/>
			<point x="692" y="15"/>
			<point x="750" y="15" type="curve" smooth="yes"/>
			<point x="870" y="15"/>
			<point x="960" y="105"/>
			<point x="960" y="290" type="curve" smooth="yes"/>
			<point x="960" y="530"/>
			<point x="779" y="710"/>
			<point x="510" y="710" type="curve" smooth="yes"/>
			<point x="255" y="710"/>
			<point x="60" y="515"/>
			<point x="60" y="250" type="curve" smooth="yes"/>
			<point x="60" y="-19"/>
			<point x="251" y="-210"/>
		</contour>
		<contour>
			<point x="490" y="93" type="curve" smooth="yes"/>
			<point x="422" y="93"/>
			<point x="378" y="137"/>
			<point x="378" y="240" type="curve" smooth="yes"/>
			<point x="378" y="260" type="line" smooth="yes"/>
			<point x="378" y="363"/>
			<point x="422" y="407"/>
			<point x="490" y="407" type="curve" smooth="yes"/>
			<point x="562" y="407"/>
			<point x="612" y="357"/>
			<point x="612" y="285" type="curve" smooth="yes"/>
			<point x="612" y="215" type="line" smooth="yes"/>
			<point x="612" y="143"/>
			<point x="562" y="93"/>
		</contour>
	</outline>
</glyph>
<glyph name="A" format="2">
	<advance width="670" height="0"/>
	<unicode hex="0041"/>
	<anchor x="335" y="0" name="bottom"/>
	<anchor x="650" y="0" name="ogonek"/>
	<anchor x="335" y="700" name="top"/>
	<outline>
		<contour>
			<point x="20" y="0" type="line"/>
			<point x="118" y="0" type="line" name="ab01"/>
			<point x="185" y="174" type="line"/>
			<point x="481" y="174" type="line" name="sv01"/>
			<point x="548" y="0" type="line"/>
			<point x="650" y="0" type="line" name="ab02"/>
			<point x="382" y="700" type="line"/>
			<point x="288" y="700" type="line" name="sh01"/>
		</contour>
		<contour>
			<point x="216" y="256" type="line"/>
			<point x="333" y="580" type="line" name="ih01"/>
			<point x="450" y="256" type="line" name="iv01"/>
		</contour>
	</outline>
</glyph>
<glyph name="B" format="2">
	<advance width="670" height="0"/>
	<unicode hex="0042"/>
	<anchor x="335" y="0" name="bottom"/>
	<anchor x="335" y="350" name="center"/>
	<anchor x="335" y="700" name="top"/>
	<outline>
		<contour>
			<point x="100" y="0" type="line"/>
			<point x="370" y="0" type="line" smooth="yes" name="ab01"/>
			<point x="549" y="0"/>
			<point x="620" y="84" name="iv01"/>
			<point x="620" y="198" type="curve" smooth="yes"/>
			<point x="620" y="289" name="ih01"/>
			<point x="569" y="346" name="at01"/>
			<point x="486" y="365" type="curve"/>
			<point x="545" y="388"/>
			<point x="590" y="441" name="sh01"/>
			<point x="590" y="513" type="curve" smooth="yes" name="hr01"/>
			<point x="590" y="622" name="sv01"/>
			<point x="517" y="700"/>
			<point x="350" y="700" type="curve" smooth="yes"/>
			<point x="100" y="700" type="line" name="sv02"/>
		</contour>
		<contour>
			<point x="194" y="82" type="line"/>
			<point x="194" y="321" type="line" name="sh02"/>
			<point x="369" y="321" type="line" smooth="yes" name="ih02"/>
			<point x="490" y="321" name="ih03"/>
			<point x="526" y="274" name="hr02"/>
			<point x="526" y="201" type="curve" smooth="yes"/>
			<point x="526" y="129"/>
			<point x="490" y="82"/>
			<point x="370" y="82" type="curve" smooth="yes"/>
		</contour>
		<contour>
			<point x="194" y="399" type="line"/>
			<point x="194" y="618" type="line"/>
			<point x="350" y="618" type="line" smooth="yes"/>
			<point x="462" y="618"/>
			<point x="496" y="574" name="hr03"/>
			<point x="496" y="509" type="curve" smooth="yes"/>
			<point x="496" y="445"/>
			<point x="462" y="399"/>
			<point x="350" y="399" type="curve" smooth="yes"/>
		</contour>
	</outline>
</glyph>
<glyph name="C" format="2">
	<advance width="680" height="0"/>
	<unicode hex="0043"/>
	<anchor x="340" y="0" name="bottom"/>
	<anchor x="340" y="700" name="top"/>
	<outline>
		<contour>
			<point x="355" y="-10" type="curve" smooth="yes"/>
			<point x="496" y="-10"/>
			<point x="609" y="55" name="iv02"/>
			<point x="630" y="210" type="curve" name="sv02"/>
			<point x="530" y="210" type="line"/>
			<point x="518" y="130"/>
			<point x="459" y="74" name="sv01"/>
			<point x="355" y="74" type="curve" smooth="yes" name="iv01"/>
			<point x="266" y="74"/>
			<point x="160" y="143" name="at01"/>
			<point x="160" y="345" type="curve" smooth="yes"/>
			<point x="160" y="365" type="line" smooth="yes"/>
			<point x="160" y="557" name="ih01"/>
			<point x="256" y="626" name="ih02"/>
			<point x="355" y="626" type="curve" smooth="yes" name="ih03"/>
			<point x="450" y="626"/>
			<point x="511" y="581"/>
			<point x="530" y="490" type="curve" name="hr02"/>
			<point x="630" y="490" type="line"/>
			<point x="614" y="629"/>
			<point x="506" y="710"/>
			<point x="355" y="710" type="curve" smooth="yes"/>
			<point x="199" y="710"/>
			<point x="60" y="604"/>
			<point x="60" y="365" type="curve" smooth="yes"/>
			<point x="60" y="345" type="line" smooth="yes"/>
			<point x="60" y="97"/>
			<point x="199" y="-10"/>
		</contour>
	</outline>
</glyph>
<glyph name="D" format="2">
	<advance width="700" height="0"/>
	<unicode hex="0044"/>
	<anchor x="350" y="0" name="bottom"/>
	<anchor x="350" y="350" name="center"/>
	<anchor x="350" y="700" name="top"/>
	<outline>
		<contour>
			<point x="100" y="0" type="line"/>
			<point x="295" y="0" type="line" smooth="yes"/>
			<point x="511" y="0"/>
			<point x="640" y="121"/>
			<point x="640" y="345" type="curve" smooth="yes"/>
			<point x="640" y="365" type="line" smooth="yes"/>
			<point x="640" y="585"/>
			<point x="515" y="700"/>
			<point x="305" y="700" type="curve" smooth="yes"/>
			<point x="100" y="700" type="line"/>
		</contour>
		<contour>
			<point x="194" y="82" type="line"/>
			<point x="194" y="618" type="line"/>
			<point x="295" y="618" type="line" smooth="yes"/>
			<point x="445" y="618"/>
			<point x="540" y="544"/>
			<point x="540" y="365" type="curve" smooth="yes"/>
			<point x="540" y="345" type="line" smooth="yes"/>
			<point x="540" y="158"/>
			<point x="443" y="82"/>
			<point x="285" y="82" type="curve" smooth="yes"/>
		</contour>
	</outline>
</glyph>
<glyph name="E" format="2">
	<advance width="610" height="0"/>
	<unicode hex="0045"/>
	<anchor x="305" y="0" name="bottom"/>
	<anchor x="550" y="0" name="ogonek"/>
	<anchor x="325" y="700" name="top"/>
	<anchor x="20" y="700" name="topleft"/>
	<outline>
		<contour>
			<point x="100" y="0" type="line"/>
			<point x="550" y="0" type="line" name="ab01"/>
			<point x="550" y="82" type="line"/>
			<point x="194" y="82" type="line" name="sv03"/>
			<point x="194" y="319" type="line"/>
			<point x="520" y="319" type="line" name="sv02"/>
			<point x="520" y="401" type="line" name="iv01"/>
			<point x="194" y="401" type="line"/>
			<point x="194" y="618" type="line" name="ih01"/>
			<point x="550" y="618" type="line" name="sv01"/>
			<point x="550" y="700" type="line"/>
			<point x="100" y="700" type="line" name="at01"/>
		</contour>
	</outline>
</glyph>
<glyph name="F" format="2">
	<advance width="595" height="0"/>
	<unicode hex="0046"/>
	<anchor x="298" y="0" name="bottom"/>
	<anchor x="298" y="700" name="top"/>
	<outline>
		<contour>
			<point x="100" y="0" type="line"/>
			<point x="194" y="0" type="line" name="ab01"/>
			<point x="194" y="309" type="line"/>
			<point x="520" y="309" type="line" name="sv02"/>
			<point x="520" y="391" type="line" name="iv01"/>
			<point x="194" y="391" type="line"/>
			<point x="194" y="618" type="line" name="ih01"/>
			<point x="550" y="618" type="line" name="sv01"/>
			<point x="550" y="700" type="line"/>
			<point x="100" y="700" type="line" name="at01"/>
		</contour>
	</outline>
</glyph>
<glyph name="G" format="2">
	<advance width="705" height="0"/>
	<unicode hex="0047"/>
	<anchor x="353" y="0" name="bottom"/>
	<anchor x="353" y="700" name="top"/>
	<outline>
		<contour>
			<point x="365" y="-10" type="curve" smooth="yes"/>
			<point x="541" y="-10"/>
			<point x="650" y="109"/>
			<point x="650" y="325" type="curve" smooth="yes" name="iv02"/>
			<point x="650" y="355" type="line" name="sv03"/>
			<point x="385" y="355" type="line"/>
			<point x="385" y="275" type="line" name="sv02"/>
			<point x="560" y="275" type="line"/>
			<point x="549" y="132"/>
			<point x="476" y="74" name="sv01"/>
			<point x="365" y="74" type="curve" smooth="yes" name="iv01"/>
			<point x="266" y="74"/>
			<point x="160" y="143" name="at01"/>
			<point x="160" y="345" type="curve" smooth="yes"/>
			<point x="160" y="365" type="line" smooth="yes"/>
			<point x="160" y="557" name="ih01"/>
			<point x="256" y="626" name="ih02"/>
			<point x="365" y="626" type="curve" smooth="yes" name="ih03"/>
			<point x="437" y="626"/>
			<point x="506" y="588"/>
			<point x="535" y="500" type="curve" name="hr01"/>
			<point x="635" y="500" type="line"/>
			<point x="603" y="631"/>
			<point x="501" y="710"/>
			<point x="365" y="710" type="curve" smooth="yes"/>
			<point x="200" y="710"/>
			<point x="60" y="604"/>
			<point x="60" y="365" type="curve" smooth="yes"/>
			<point x="60" y="345" type="line" smooth="yes"/>
			<point x="60" y="97"/>
			<point x="200" y="-10"/>
		</contour>
	</outline>
</glyph>
<glyph name="J" format="2">
	<advance width="555" height="0"/>
	<unicode hex="004A"/>
	<anchor x="278" y="0" name="bottom"/>
	<anchor x="278" y="700" name="top"/>
	<outline>
		<contour>
			<point x="235" y="-10" type="curve" smooth="yes"/>
			<point x="384" y="-10"/>
			<point x="455" y="63"/>
			<point x="455" y="250" type="curve" smooth="yes"/>
			<point x="455" y="700" type="line"/>
			<point x="361" y="700" type="line"/>
			<point x="361" y="250" type="line" smooth="yes"/>
			<point x="361" y="113"/>
			<point x="319" y="74"/>
			<point x="235" y="74" type="curve" smooth="yes"/>
			<point x="155" y="74"/>
			<point x="122" y="113"/>
			<point x="117" y="180" type="curve" name="hr01"/>
			<point x="25" y="180" type="line"/>
			<point x="30" y="64"/>
			<point x="96" y="-10"/>
		</contour>
	</outline>
</glyph>
<glyph name="K" format="2">
	<advance width="690" height="0"/>
	<unicode hex="004B"/>
	<anchor x="345" y="0" name="bottom"/>
	<anchor x="345" y="700" name="top"/>
	<outline>
		<contour>
			<point x="100" y="0" type="line"/>
			<point x="194" y="0" type="line" name="ab02"/>
			<point x="194" y="211" type="line"/>
			<point x="319" y="348" type="line" name="ih01"/>
			<point x="544" y="0" type="line"/>
			<point x="660" y="0" type="line" name="ab01"/>
			<point x="380" y="412" type="line"/>
			<point x="640" y="700" type="line"/>
			<point x="523" y="700" type="line" name="at02"/>
			<point x="194" y="331" type="line" name="iv01"/>
			<point x="194" y="700" type="line"/>
			<point x="100" y="700" type="line" name="at01"/>
		</contour>
	</outline>
</glyph>
<glyph name="O" format="2">
	<advance width="740" height="0"/>
	<unicode hex="004F"/>
	<anchor x="370" y="0" name="bottom"/>
	<anchor x="370" y="350" name="center"/>
	<anchor x="666" y="10" name="ogonek"/>
	<anchor x="370" y="700" name="top"/>
	<anchor x="20" y="700" name="topleft"/>
	<anchor x="720" y="700" name="topright"/>
	<outline>
		<contour>
			<point x="370" y="-10" type="curve" smooth="yes"/>
			<point x="530" y="-10"/>
			<point x="680" y="95"/>
			<point x="680" y="345" type="curve" smooth="yes" name="at01"/>
			<point x="680" y="365" type="line" smooth="yes"/>
			<point x="680" y="605"/>
			<point x="530" y="710" name="ih01"/>
			<point x="370" y="710" type="curve" smooth="yes"/>
			<point x="210" y="710"/>
			<point x="60" y="605"/>
			<point x="60" y="365" type="curve" smooth="yes" name="sv01"/>
			<point x="60" y="345" type="line" smooth="yes"/>
			<point x="60" y="95"/>
			<point x="210" y="-10" name="sh01"/>
		</contour>
		<contour>
			<point x="370" y="74" type="curve" smooth="yes" name="ih03"/>
			<point x="261" y="74"/>
			<point x="160" y="150"/>
			<point x="160" y="345" type="curve" smooth="yes"/>
			<point x="160" y="365" type="line" smooth="yes"/>
			<point x="160" y="549"/>
			<point x="261" y="626"/>
			<point x="370" y="626" type="curve" smooth="yes"/>
			<point x="479" y="626"/>
			<point x="580" y="549"/>
			<point x="580" y="365" type="curve" smooth="yes"/>
			<point x="580" y="345" type="line" smooth="yes"/>
			<point x="580" y="150"/>
			<point x="479" y="74"/>
		</contour>
	</outline>
</glyph>
<glyph name="P" format="2">
	<advance width="655" height="0"/>
	<unicode hex="0050"/>
	<anchor x="328" y="0" name="bottom"/>
	<anchor x="328" y="700" name="top"/>
	<outline>
		<contour>
			<point x="100" y="0" type="line"/>
			<point x="194" y="0" type="line" name="ab01"/>
			<point x="194" y="270" type="line"/>
			<point x="340" y="270" type="line" smooth="yes" name="sv01"/>
			<point x="525" y="270"/>
			<point x="610" y="360" name="sh01"/>
			<point x="610" y="485" type="curve" smooth="yes" name="at01"/>
			<point x="610" y="610"/>
			<point x="525" y="700"/>
			<point x="340" y="700" type="curve" smooth="yes" name="sv02"/>
			<point x="100" y="700" type="line"/>
		</contour>
		<contour>
			<point x="194" y="352" type="line" name="ih01"/>
			<point x="194" y="618" type="line" name="ih02"/>
			<point x="335" y="618" type="line" smooth="yes" name="ih03"/>
			<point x="468" y="618"/>
			<point x="516" y="566"/>
			<point x="516" y="485" type="curve" smooth="yes"/>
			<point x="516" y="404"/>
			<point x="468" y="352"/>
			<point x="335" y="352" type="curve" smooth="yes"/>
		</contour>
	</outline>
</glyph>
<glyph name="Q" format="2">
	<advance width="740" height="0"/>
	<unicode hex="0051"/>
	<anchor x="370" y="0" name="bottom"/>
	<anchor x="370" y="700" name="top"/>
	<outline>
		<contour>
			<point x="370" y="-10" type="curve" smooth="yes"/>
			<point x="433" y="-10" name="iv02"/>
			<point x="492" y="6" name="sv01"/>
			<point x="543" y="39" type="curve"/>
			<point x="613" y="-30" type="line" name="iv01"/>
			<point x="670" y="27" type="line"/>
			<point x="603" y="94" type="line"/>
			<point x="650" y="151" name="at01"/>
			<point x="680" y="232"/>
			<point x="680" y="345" type="curve" smooth="yes"/>
			<point x="680" y="365" type="line" smooth="yes" name="ih01"/>
			<point x="680" y="605"/>
			<point x="530" y="710"/>
			<point x="370" y="710" type="curve" smooth="yes"/>
			<point x="210" y="710" name="sv02"/>
			<point x="60" y="605"/>
			<point x="60" y="365" type="curve" smooth="yes"/>
			<point x="60" y="345" type="line" smooth="yes" name="iv04"/>
			<point x="60" y="95" name="iv03"/>
			<point x="210" y="-10"/>
		</contour>
		<contour>
			<point x="370" y="74" type="curve" smooth="yes" name="sh01"/>
			<point x="261" y="74" name="ih02"/>
			<point x="160" y="150" name="ih03"/>
			<point x="160" y="345" type="curve" smooth="yes"/>
			<point x="160" y="365" type="line" smooth="yes"/>
			<point x="160" y="549"/>
			<point x="261" y="626"/>
			<point x="370" y="626" type="curve" smooth="yes"/>
			<point x="479" y="626"/>
			<point x="580" y="549"/>
			<point x="580" y="365" type="curve" smooth="yes"/>
			<point x="580" y="345" type="line" smooth="yes"/>
			<point x="580" y="264"/>
			<point x="563" y="204"/>
			<point x="535" y="161" type="curve"/>
			<point x="427" y="270" type="line"/>
			<point x="370" y="213" type="line"/>
			<point x="478" y="104" type="line"/>
			<point x="446" y="84"/>
			<point x="409" y="74"/>
		</contour>
	</outline>
</glyph>
<glyph name="R" format="2">
	<advance width="680" height="0"/>
	<unicode hex="0052"/>
	<anchor x="340" y="0" name="bottom"/>
	<anchor x="340" y="700" name="top"/>
	<outline>
		<contour>
			<point x="100" y="0" type="line"/>
			<point x="194" y="0" type="line" name="ab02"/>
			<point x="194" y="282" type="line"/>
			<point x="352" y="282" type="line" name="sv01"/>
			<point x="519" y="0" type="line"/>
			<point x="630" y="0" type="line" name="ab01"/>
			<point x="446" y="294" type="line" name="sv02"/>
			<point x="554" y="322"/>
			<point x="610" y="397" name="ih01"/>
			<point x="610" y="490" type="curve" smooth="yes" name="at01"/>
			<point x="610" y="610"/>
			<point x="520" y="700"/>
			<point x="345" y="700" type="curve" smooth="yes" name="sv03"/>
			<point x="100" y="700" type="line"/>
		</contour>
		<contour>
			<point x="194" y="362" type="line" name="sh01"/>
			<point x="194" y="618" type="line" name="ih02"/>
			<point x="335" y="618" type="line" smooth="yes" name="ih03"/>
			<point x="464" y="618"/>
			<point x="516" y="566"/>
			<point x="516" y="490" type="curve" smooth="yes"/>
			<point x="516" y="414"/>
			<point x="464" y="362"/>
			<point x="335" y="362" type="curve" smooth="yes"/>
		</contour>
	</outline>
</glyph>
<glyph name="S" format="2">
	<advance width="640" height="0"/>
	<unicode hex="0053"/>
	<anchor x="320" y="0" name="bottom"/>
	<anchor x="320" y="700" name="top"/>
	<outline>
		<contour>
			<point x="320" y="-10" type="curve" smooth="yes"/>
			<point x="487" y="-10"/>
			<point x="585" y="76" name="iv03"/>
			<point x="585" y="185" type="curve" smooth="yes"/>
			<point x="585" y="310" name="sv02"/>
			<point x="515" y="361" name="iv04"/>
			<point x="341" y="399" type="curve" smooth="yes"/>
			<point x="221" y="426" name="at01"/>
			<point x="169" y="452"/>
			<point x="169" y="525" type="curve" smooth="yes" name="iv01"/>
			<point x="169" y="581"/>
			<point x="224" y="626" name="sv01"/>
			<point x="320" y="626" type="curve" smooth="yes" name="iv02"/>
			<point x="414" y="626"/>
			<point x="453" y="581" name="ih01"/>
			<point x="466" y="525" type="curve" name="ih02"/>
			<point x="560" y="525" type="line" name="ih03"/>
			<point x="542" y="628"/>
			<point x="470" y="710"/>
			<point x="320" y="710" type="curve" smooth="yes"/>
			<point x="168" y="710"/>
			<point x="75" y="628"/>
			<point x="75" y="525" type="curve" smooth="yes"/>
			<point x="75" y="397"/>
			<point x="145" y="354"/>
			<point x="301" y="320" type="curve" smooth="yes"/>
			<point x="443" y="288"/>
			<point x="491" y="262"/>
			<point x="491" y="185" type="curve" smooth="yes"/>
			<point x="491" y="122"/>
			<point x="432" y="74" name="hr03"/>
			<point x="320" y="74" type="curve" smooth="yes" name="hr01"/>
			<point x="210" y="74"/>
			<point x="163" y="123"/>
			<point x="149" y="185" type="curve" name="hr02"/>
			<point x="55" y="185" type="line"/>
			<point x="74" y="76"/>
			<point x="151" y="-10"/>
		</contour>
	</outline>
</glyph>
<glyph name="U" format="2">
	<advance width="730" height="0"/>
	<unicode hex="0055"/>
	<anchor x="365" y="0" name="bottom"/>
	<anchor x="454" y="0" name="ogonek"/>
	<anchor x="365" y="700" name="top"/>
	<anchor x="710" y="700" name="topright"/>
	<outline>
		<contour>
			<point x="365" y="-10" type="curve" smooth="yes"/>
			<point x="532" y="-10"/>
			<point x="640" y="85"/>
			<point x="640" y="290" type="curve" smooth="yes" name="at02"/>
			<point x="640" y="700" type="line"/>
			<point x="546" y="700" type="line" name="sv01"/>
			<point x="546" y="290" type="line" smooth="yes"/>
			<point x="546" y="138"/>
			<point x="478" y="74" name="at01"/>
			<point x="365" y="74" type="curve" smooth="yes"/>
			<point x="252" y="74" name="ih01"/>
			<point x="184" y="138" name="ih02"/>
			<point x="184" y="290" type="curve" smooth="yes" name="ih03"/>
			<point x="184" y="700" type="line"/>
			<point x="90" y="700" type="line"/>
			<point x="90" y="290" type="line" smooth="yes"/>
			<point x="90" y="85"/>
			<point x="198" y="-10"/>
		</contour>
	</outline>
</glyph>
<glyph name="V" format="2">
	<advance width="670" height="0"/>
	<unicode hex="0056"/>
	<anchor x="335" y="0" name="bottom"/>
	<anchor x="335" y="700" name="top"/>
	<outline>
		<contour>
			<point x="293" y="0" type="line"/>
			<point x="387" y="0" type="line" name="ab01"/>
			<point x="650" y="700" type="line"/>
			<point x="552" y="700" type="line" name="at02"/>
			<point x="341" y="120" type="line" name="ih01"/>
			<point x="122" y="700" type="line"/>
			<point x="20" y="700" type="line" name="at01"/>
		</contour>
	</outline>
</glyph>
<glyph name="W" format="2">
	<advance width="960" height="0"/>
	<unicode hex="0057"/>
	<anchor x="480" y="0" name="bottom"/>
	<anchor x="480" y="700" name="top"/>
	<outline>
		<contour>
			<point x="218" y="0" type="line"/>
			<point x="312" y="0" type="line" name="ab02"/>
			<point x="478" y="550" type="line" name="ih01"/>
			<point x="648" y="0" type="line"/>
			<point x="742" y="0" type="line" name="ab01"/>
			<point x="930" y="700" type="line"/>
			<point x="834" y="700" type="line" name="at03"/>
			<point x="689" y="150" type="line" name="iv02"/>
			<point x="522" y="700" type="line"/>
			<point x="438" y="700" type="line" name="at02"/>
			<point x="274" y="150" type="line" name="iv01"/>
			<point x="130" y="700" type="line"/>
			<point x="30" y="700" type="line" name="at01"/>
		</contour>
	</outline>
</glyph>
<glyph name="X" format="2">
	<advance width="660" height="0"/>
	<unicode hex="0058"/>
	<anchor x="330" y="0" name="bottom"/>
	<anchor x="330" y="700" name="top"/>
	<outline>
		<contour>
			<point x="30" y="0" type="line"/>
			<point x="132" y="0" type="line" name="ab02"/>
			<point x="329" y="288" type="line" name="iv01"/>
			<point x="524" y="0" type="line"/>
			<point x="630" y="0" type="line" name="ab01"/>
			<point x="384" y="359" type="line"/>
			<point x="620" y="700" type="line"/>
			<point x="520" y="700" type="line" name="at02"/>
			<point x="331" y="429" type="line" name="ih01"/>
			<point x="144" y="700" type="line"/>
			<point x="40" y="700" type="line" name="at01"/>
			<point x="277" y="357" type="line"/>
		</contour>
	</outline>
</glyph>
<glyph name="Y" format="2">
	<advance width="640" height="0"/>
	<unicode hex="0059"/>
	<anchor x="320" y="0" name="bottom"/>
	<anchor x="320" y="700" name="top"/>
	<anchor x="20" y="700" name="topleft"/>
	<outline>
		<contour>
			<point x="283" y="0" type="line"/>
			<point x="377" y="0" type="line" name="ab01"/>
			<point x="377" y="277" type="line"/>
			<point x="630" y="700" type="line"/>
			<point x="526" y="700" type="line" name="at02"/>
			<point x="329" y="374" type="line" name="ih01"/>
			<point x="118" y="700" type="line"/>
			<point x="10" y="700" type="line" name="at01"/>
			<point x="283" y="277" type="line"/>
		</contour>
	</outline>
</glyph>
<glyph name="Z" format="2">
	<advance width="600" height="0"/>
	<unicode hex="005A"/>
	<anchor x="300" y="0" name="bottom"/>
	<anchor x="300" y="350" name="center"/>
	<anchor x="300" y="700" name="top"/>
	<outline>
		<contour>
			<point x="45" y="0" type="line"/>
			<point x="555" y="0" type="line" name="ab01"/>
			<point x="555" y="82" type="line"/>
			<point x="153" y="82" type="line" name="sv01"/>
			<point x="545" y="623" type="line" name="sv03"/>
			<point x="545" y="700" type="line"/>
			<point x="55" y="700" type="line" name="at01"/>
			<point x="55" y="618" type="line"/>
			<point x="437" y="618" type="line" name="ih01"/>
			<point x="45" y="77" type="line" name="sv02"/>
		</contour>
	</outline>
</glyph>
<glyph name="bracketleft" format="2">
	<advance width="380" height="0"/>
	<unicode hex="005B"/>
	<outline>
		<contour>
			<point x="130" y="-200" type="line"/>
			<point x="310" y="-200" type="line" name="ab01"/>
			<point x="310" y="-126" type="line"/>
			<point x="214" y="-126" type="line" name="hr01"/>
			<point x="214" y="626" type="line" name="ih01"/>
			<point x="310" y="626" type="line" name="hr02"/>
			<point x="310" y="700" type="line"/>
			<point x="130" y="700" type="line" name="at01"/>
		</contour>
	</outline>
</glyph>
<glyph name="asciicircum" format="2">
	<advance width="550" height="0"/>
	<unicode hex="005E"/>
	<outline>
		<contour>
			<point x="50" y="440" type="line"/>
			<point x="142" y="440" type="line" name="sv01"/>
			<point x="273" y="625" type="line" name="ih01"/>
			<point x="404" y="440" type="line"/>
			<point x="500" y="440" type="line" name="iv01"/>
			<point x="316" y="700" type="line"/>
			<point x="234" y="700" type="line" name="at01"/>
		</contour>
	</outline>
</glyph>
<glyph name="d" format="2">
	<advance width="615" height="0"/>
	<unicode hex="0064"/>
	<anchor x="308" y="0" name="bottom"/>
	<anchor x="308" y="265" name="center"/>
	<anchor x="308" y="774" name="top"/>
	<anchor x="589" y="700" name="topright"/>
	<outline>
		<contour>
			<point x="265" y="-10" type="curve" smooth="yes"/>
			<point x="356" y="-10"/>
			<point x="426" y="35"/>
			<point x="453" y="100" type="curve"/>
			<point x="453" y="0" type="line" name="hr01"/>
			<point x="535" y="0" type="line"/>
			<point x="535" y="700" type="line"/>
			<point x="447" y="700" type="line"/>
			<point x="447" y="435" type="line"/>
			<point x="416" y="500"/>
			<point x="350" y="540" name="hr02"/>
			<point x="265" y="540" type="curve" smooth="yes" name="hr01"/>
			<point x="137" y="540"/>
			<point x="45" y="448"/>
			<point x="45" y="280" type="curve" smooth="yes"/>
			<point x="45" y="260" type="line" smooth="yes"/>
			<point x="45" y="80"/>
			<point x="134" y="-10"/>
		</contour>
		<contour>
			<point x="285" y="68" type="curve" smooth="yes"/>
			<point x="199" y="68"/>
			<point x="133" y="135"/>
			<point x="133" y="260" type="curve" smooth="yes"/>
			<point x="133" y="280" type="line" smooth="yes"/>
			<point x="133" y="396"/>
			<point x="199" y="462"/>
			<point x="285" y="462" type="curve" smooth="yes"/>
			<point x="381" y="462"/>
			<point x="447" y="396"/>
			<point x="447" y="310" type="curve" smooth="yes"/>
			<point x="447" y="230" type="line" smooth="yes"/>
			<point x="447" y="134"/>
			<point x="381" y="68"/>
		</contour>
	</outline>
</glyph>
<glyph name="e" format="2">
	<advance width="580" height="0"/>
	<unicode hex="0065"/>
	<anchor x="290" y="0" name="bottom"/>
	<anchor x="380" y="0" name="ogonek"/>
	<anchor x="290" y="530" name="top"/>
	<outline>
		<contour>
			<point x="300" y="-10" type="curve" smooth="yes"/>
			<point x="412" y="-10"/>
			<point x="504" y="44" name="iv02"/>
			<point x="525" y="145" type="curve" name="sv02"/>
			<point x="439" y="145" type="line"/>
			<point x="420" y="98" name="sv01"/>
			<point x="380" y="70" name="hr01"/>
			<point x="300" y="70" type="curve" smooth="yes" name="ih01"/>
			<point x="221" y="70"/>
			<point x="133" y="115"/>
			<point x="133" y="239" type="curve" name="ab01"/>
			<point x="535" y="239" type="line"/>
			<point x="535" y="295" type="line" smooth="yes" name="iv01"/>
			<point x="535" y="451"/>
			<point x="446" y="540" name="sh01"/>
			<point x="290" y="540" type="curve" smooth="yes" name="ih02"/>
			<point x="159" y="540" name="ih03"/>
			<point x="45" y="455"/>
			<point x="45" y="280" type="curve" smooth="yes"/>
			<point x="45" y="260" type="line" smooth="yes"/>
			<point x="45" y="75"/>
			<point x="165" y="-10"/>
		</contour>
		<contour>
			<point x="295" y="460" type="curve" smooth="yes"/>
			<point x="381" y="460"/>
			<point x="449" y="420"/>
			<point x="452" y="311" type="curve"/>
			<point x="133" y="311" type="line"/>
			<point x="133" y="415"/>
			<point x="213" y="460"/>
		</contour>
	</outline>
</glyph>
<glyph name="f" format="2">
	<advance width="365" height="0"/>
	<unicode hex="0066"/>
	<anchor x="183" y="0" name="bottom"/>
	<anchor x="183" y="774" name="top"/>
	<outline>
		<contour>
			<point x="110" y="0" type="line"/>
			<point x="198" y="0" type="line"/>
			<point x="198" y="452" type="line"/>
			<point x="335" y="452" type="line"/>
			<point x="335" y="530" type="line"/>
			<point x="198" y="530" type="line"/>
			<point x="198" y="540" type="line" smooth="yes"/>
			<point x="198" y="604"/>
			<point x="219" y="625"/>
			<point x="280" y="625" type="curve" smooth="yes"/>
			<point x="300" y="625"/>
			<point x="325" y="625"/>
			<point x="345" y="622" type="curve" name="hr01"/>
			<point x="345" y="702" type="line"/>
			<point x="315" y="704"/>
			<point x="290" y="705"/>
			<point x="270" y="705" type="curve" smooth="yes"/>
			<point x="159" y="705"/>
			<point x="110" y="651"/>
			<point x="110" y="540" type="curve" smooth="yes"/>
			<point x="110" y="530" type="line"/>
			<point x="35" y="530" type="line"/>
			<point x="35" y="452" type="line"/>
			<point x="110" y="452" type="line"/>
		</contour>
	</outline>
</glyph>
<glyph name="g" format="2">
	<advance width="615" height="0"/>
	<unicode hex="0067"/>
	<anchor x="308" y="-226" name="bottom"/>
	<anchor x="308" y="530" name="top"/>
	<outline>
		<contour>
			<point x="290" y="-210" type="curve" smooth="yes"/>
			<point x="449" y="-210"/>
			<point x="535" y="-124"/>
			<point x="535" y="20" type="curve" smooth="yes"/>
			<point x="535" y="530" type="line"/>
			<point x="453" y="530" type="line"/>
			<point x="453" y="430" type="line"/>
			<point x="426" y="495"/>
			<point x="356" y="540" name="hr01"/>
			<point x="265" y="540" type="curve" smooth="yes"/>
			<point x="137" y="540"/>
			<point x="45" y="448"/>
			<point x="45" y="285" type="curve" smooth="yes"/>
			<point x="45" y="265" type="line" smooth="yes"/>
			<point x="45" y="90"/>
			<point x="134" y="0"/>
			<point x="265" y="0" type="curve" smooth="yes"/>
			<point x="350" y="0"/>
			<point x="416" y="34"/>
			<point x="447" y="105" type="curve"/>
			<point x="447" y="20" type="line" smooth="yes"/>
			<point x="447" y="-76"/>
			<point x="398" y="-130"/>
			<point x="290" y="-130" type="curve" smooth="yes"/>
			<point x="201" y="-130"/>
			<point x="170" y="-103"/>
			<point x="157" y="-60" type="curve" name="hr01"/>
			<point x="65" y="-60" type="line"/>
			<point x="76" y="-145"/>
			<point x="135" y="-210"/>
		</contour>
		<contour>
			<point x="285" y="78" type="curve" smooth="yes"/>
			<point x="199" y="78"/>
			<point x="133" y="144"/>
			<point x="133" y="265" type="curve" smooth="yes"/>
			<point x="133" y="285" type="line" smooth="yes"/>
			<point x="133" y="396"/>
			<point x="199" y="462"/>
			<point x="285" y="462" type="curve" smooth="yes"/>
			<point x="381" y="462"/>
			<point x="447" y="396"/>
			<point x="447" y="315" type="curve" smooth="yes"/>
			<point x="447" y="235" type="line" smooth="yes"/>
			<point x="447" y="143"/>
			<point x="381" y="78"/>
		</contour>
	</outline>
</glyph>
<glyph name="k" format="2">
	<advance width="565" height="0"/>
	<unicode hex="006B"/>
	<anchor x="283" y="0" name="bottom"/>
	<anchor x="283" y="774" name="top"/>
	<outline>
		<contour>
			<point x="80" y="0" type="line"/>
			<point x="168" y="0" type="line" name="ab02"/>
			<point x="168" y="185" type="line"/>
			<point x="237" y="250" type="line" name="iv02"/>
			<point x="428" y="0" type="line"/>
			<point x="540" y="0" type="line" name="ab01"/>
			<point x="300" y="311" type="line" name="ih01"/>
			<point x="520" y="530" type="line"/>
			<point x="412" y="530" type="line" name="at02"/>
			<point x="168" y="286" type="line" name="iv01"/>
			<point x="168" y="700" type="line"/>
			<point x="80" y="700" type="line" name="at01"/>
		</contour>
	</outline>
</glyph>
<glyph name="m" format="2">
	<advance width="885" height="0"/>
	<unicode hex="006D"/>
	<anchor x="443" y="0" name="bottom"/>
	<anchor x="443" y="530" name="top"/>
	<outline>
		<contour>
			<point x="80" y="0" type="line"/>
			<point x="168" y="0" type="line"/>
			<point x="168" y="315" type="line" smooth="yes"/>
			<point x="168" y="404"/>
			<point x="226" y="460"/>
			<point x="290" y="460" type="curve" smooth="yes"/>
			<point x="363" y="460"/>
			<point x="401" y="420"/>
			<point x="401" y="315" type="curve" smooth="yes"/>
			<point x="401" y="0" type="line"/>
			<point x="489" y="0" type="line"/>
			<point x="489" y="315" type="line" smooth="yes"/>
			<point x="489" y="404"/>
			<point x="547" y="460"/>
			<point x="611" y="460" type="curve" smooth="yes"/>
			<point x="686" y="460"/>
			<point x="722" y="420"/>
			<point x="722" y="315" type="curve" smooth="yes"/>
			<point x="722" y="0" type="line"/>
			<point x="810" y="0" type="line"/>
			<point x="810" y="335" type="line" smooth="yes"/>
			<point x="810" y="476"/>
			<point x="745" y="540"/>
			<point x="636" y="540" type="curve" smooth="yes"/>
			<point x="560" y="540"/>
			<point x="507" y="500"/>
			<point x="472" y="435" type="curve"/>
			<point x="453" y="496"/>
			<point x="407" y="540"/>
			<point x="315" y="540" type="curve" smooth="yes"/>
			<point x="244" y="540"/>
			<point x="185" y="495"/>
			<point x="162" y="430" type="curve"/>
			<point x="162" y="530" type="line" name="hr01"/>
			<point x="80" y="530" type="line"/>
		</contour>
	</outline>
</glyph>
<glyph name="o" format="2">
	<advance width="600" height="0"/>
	<unicode hex="006F"/>
	<anchor x="300" y="0" name="bottom"/>
	<anchor x="300" y="265" name="center"/>
	<anchor x="540" y="10" name="ogonek"/>
	<anchor x="300" y="530" name="top"/>
	<anchor x="580" y="530" name="topright"/>
	<outline>
		<contour>
			<point x="300" y="-10" type="curve" smooth="yes"/>
			<point x="435" y="-10"/>
			<point x="555" y="78"/>
			<point x="555" y="260" type="curve" smooth="yes" name="at01"/>
			<point x="555" y="280" type="line" smooth="yes"/>
			<point x="555" y="452"/>
			<point x="435" y="540" name="ih01"/>
			<point x="300" y="540" type="curve" smooth="yes"/>
			<point x="165" y="540"/>
			<point x="45" y="452"/>
			<point x="45" y="280" type="curve" smooth="yes" name="sv01"/>
			<point x="45" y="260" type="line" smooth="yes"/>
			<point x="45" y="78"/>
			<point x="165" y="-10" name="sh01"/>
		</contour>
		<contour>
			<point x="300" y="70" type="curve" smooth="yes" name="ih03"/>
			<point x="219" y="70"/>
			<point x="135" y="122"/>
			<point x="135" y="260" type="curve" smooth="yes"/>
			<point x="135" y="280" type="line" smooth="yes"/>
			<point x="135" y="408"/>
			<point x="219" y="460"/>
			<point x="300" y="460" type="curve" smooth="yes"/>
			<point x="381" y="460"/>
			<point x="465" y="408"/>
			<point x="465" y="280" type="curve" smooth="yes"/>
			<point x="465" y="260" type="line" smooth="yes"/>
			<point x="465" y="122"/>
			<point x="381" y="70"/>
		</contour>
	</outline>
</glyph>
<glyph name="q" format="2">
	<advance width="615" height="0"/>
	<unicode hex="0071"/>
	<anchor x="308" y="0" name="bottom"/>
	<anchor x="308" y="530" name="top"/>
	<outline>
		<contour>
			<point x="447" y="-200" type="line"/>
			<point x="535" y="-200" type="line"/>
			<point x="535" y="530" type="line"/>
			<point x="453" y="530" type="line"/>
			<point x="453" y="430" type="line"/>
			<point x="426" y="495"/>
			<point x="356" y="540" name="hr01"/>
			<point x="265" y="540" type="curve" smooth="yes" name="hr01"/>
			<point x="137" y="540"/>
			<point x="45" y="448"/>
			<point x="45" y="280" type="curve" smooth="yes"/>
			<point x="45" y="260" type="line" smooth="yes"/>
			<point x="45" y="80"/>
			<point x="134" y="-10"/>
			<point x="265" y="-10" type="curve" smooth="yes"/>
			<point x="350" y="-10"/>
			<point x="416" y="30"/>
			<point x="447" y="95" type="curve"/>
		</contour>
		<contour>
			<point x="285" y="68" type="curve" smooth="yes"/>
			<point x="199" y="68"/>
			<point x="133" y="135"/>
			<point x="133" y="260" type="curve" smooth="yes"/>
			<point x="133" y="280" type="line" smooth="yes"/>
			<point x="133" y="396"/>
			<point x="199" y="462"/>
			<point x="285" y="462" type="curve" smooth="yes"/>
			<point x="381" y="462"/>
			<point x="447" y="396"/>
			<point x="447" y="310" type="curve" smooth="yes"/>
			<point x="447" y="230" type="line" smooth="yes"/>
			<point x="447" y="134"/>
			<point x="381" y="68"/>
		</contour>
	</outline>
</glyph>
<glyph name="r" format="2">
	<advance width="390" height="0"/>
	<unicode hex="0072"/>
	<anchor x="124" y="0" name="bottom"/>
	<anchor x="195" y="530" name="top"/>
	<outline>
		<contour>
			<point x="80" y="0" type="line"/>
			<point x="168" y="0" type="line"/>
			<point x="168" y="310" type="line" smooth="yes"/>
			<point x="168" y="399"/>
			<point x="230" y="460"/>
			<point x="310" y="460" type="curve" smooth="yes"/>
			<point x="339" y="460"/>
			<point x="353" y="458"/>
			<point x="370" y="451" type="curve"/>
			<point x="370" y="533" type="line"/>
			<point x="357" y="537"/>
			<point x="342" y="540"/>
			<point x="315" y="540" type="curve" smooth="yes"/>
			<point x="239" y="540"/>
			<point x="185" y="493"/>
			<point x="162" y="430" type="curve"/>
			<point x="162" y="530" type="line" name="hr01"/>
			<point x="80" y="530" type="line"/>
		</contour>
	</outline>
</glyph>
<glyph name="s" format="2">
	<advance width="530" height="0"/>
	<unicode hex="0073"/>
	<anchor x="265" y="0" name="bottom"/>
	<anchor x="265" y="530" name="top"/>
	<outline>
		<contour>
			<point x="265" y="-10" type="curve" smooth="yes"/>
			<point x="414" y="-10"/>
			<point x="485" y="61" name="iv03"/>
			<point x="485" y="145" type="curve" smooth="yes"/>
			<point x="485" y="249" name="sv02"/>
			<point x="412" y="292" name="iv04"/>
			<point x="281" y="308" type="curve" smooth="yes"/>
			<point x="180" y="321" name="at01"/>
			<point x="148" y="342"/>
			<point x="148" y="390" type="curve" smooth="yes" name="iv01"/>
			<point x="148" y="431"/>
			<point x="178" y="464" name="sv01"/>
			<point x="265" y="464" type="curve" smooth="yes" name="iv02"/>
			<point x="334" y="464"/>
			<point x="366" y="432" name="ih01"/>
			<point x="377" y="385" type="curve" name="ih02"/>
			<point x="465" y="385" type="line" name="ih03"/>
			<point x="449" y="469"/>
			<point x="391" y="540"/>
			<point x="265" y="540" type="curve" smooth="yes"/>
			<point x="130" y="540"/>
			<point x="60" y="470"/>
			<point x="60" y="390" type="curve" smooth="yes"/>
			<point x="60" y="291"/>
			<point x="134" y="248"/>
			<point x="251" y="232" type="curve" smooth="yes"/>
			<point x="367" y="216"/>
			<point x="397" y="189"/>
			<point x="397" y="145" type="curve" smooth="yes"/>
			<point x="397" y="102"/>
			<point x="363" y="66" name="hr02"/>
			<point x="265" y="66" type="curve" smooth="yes" name="hr01"/>
			<point x="180" y="66"/>
			<point x="142" y="102"/>
			<point x="133" y="145" type="curve" name="hr02"/>
			<point x="45" y="145" type="line"/>
			<point x="61" y="61"/>
			<point x="124" y="-10"/>
		</contour>
	</outline>
</glyph>
<glyph name="t" format="2">
	<advance width="400" height="0"/>
	<unicode hex="0074"/>
	<anchor x="200" y="0" name="bottom"/>
	<anchor x="200" y="265" name="center"/>
	<anchor x="200" y="530" name="top"/>
	<anchor x="232" y="786" name="topright"/>
	<outline>
		<contour>
			<point x="275" y="-5" type="curve" smooth="yes"/>
			<point x="306" y="-5"/>
			<point x="330" y="-3"/>
			<point x="355" y="0" type="curve" name="sv04"/>
			<point x="355" y="78" type="line"/>
			<point x="335" y="76" name="sv03"/>
			<point x="315" y="75" name="sv02"/>
			<point x="295" y="75" type="curve" smooth="yes"/>
			<point x="223" y="75" name="at02"/>
			<point x="203" y="100" name="ih01"/>
			<point x="203" y="160" type="curve" smooth="yes" name="hr01"/>
			<point x="203" y="452" type="line"/>
			<point x="345" y="452" type="line" name="at01"/>
			<point x="345" y="530" type="line"/>
			<point x="203" y="530" type="line" name="sv01"/>
			<point x="203" y="650" type="line"/>
			<point x="115" y="650" type="line" name="ab01"/>
			<point x="115" y="530" type="line" name="ih02"/>
			<point x="35" y="530" type="line" name="ih03"/>
			<point x="35" y="452" type="line"/>
			<point x="115" y="452" type="line"/>
			<point x="115" y="150" type="line" smooth="yes"/>
			<point x="115" y="46"/>
			<point x="162" y="-5"/>
		</contour>
	</outline>
</glyph>
<glyph name="u" format="2">
	<advance width="605" height="0"/>
	<unicode hex="0075"/>
	<anchor x="303" y="0" name="bottom"/>
	<anchor x="525" y="0" name="ogonek"/>
	<anchor x="303" y="530" name="top"/>
	<anchor x="585" y="530" name="topright"/>
	<outline>
		<contour>
			<point x="267" y="-10" type="curve" smooth="yes" name="ih01"/>
			<point x="358" y="-10" name="iv01"/>
			<point x="419" y="41"/>
			<point x="443" y="100" type="curve" name="ab02"/>
			<point x="443" y="0" type="line" name="hr01"/>
			<point x="525" y="0" type="line" name="at02"/>
			<point x="525" y="530" type="line"/>
			<point x="437" y="530" type="line" name="sv01"/>
			<point x="437" y="220" type="line" smooth="yes"/>
			<point x="437" y="145"/>
			<point x="393" y="70" name="at01"/>
			<point x="293" y="70" type="curve" smooth="yes" name="hr01"/>
			<point x="201" y="70" name="ab01"/>
			<point x="163" y="121" name="ih02"/>
			<point x="163" y="220" type="curve" smooth="yes" name="ih03"/>
			<point x="163" y="530" type="line"/>
			<point x="75" y="530" type="line"/>
			<point x="75" y="215" type="line" smooth="yes"/>
			<point x="75" y="62"/>
			<point x="139" y="-10"/>
		</contour>
	</outline>
</glyph>
<glyph name="v" format="2">
	<advance width="560" height="0"/>
	<unicode hex="0076"/>
	<anchor x="280" y="0" name="bottom"/>
	<anchor x="280" y="530" name="top"/>
	<outline>
		<contour>
			<point x="240" y="0" type="line"/>
			<point x="340" y="0" type="line" name="ab01"/>
			<point x="540" y="530" type="line"/>
			<point x="446" y="530" type="line" name="at02"/>
			<point x="290" y="90" type="line" name="ih01"/>
			<point x="118" y="530" type="line"/>
			<point x="20" y="530" type="line" name="at01"/>
		</contour>
	</outline>
</glyph>
<glyph name="w" format="2">
	<advance width="810" height="0"/>
	<unicode hex="0077"/>
	<anchor x="405" y="0" name="bottom"/>
	<anchor x="405" y="530" name="top"/>
	<outline>
		<contour>
			<point x="175" y="0" type="line"/>
			<point x="263" y="0" type="line" name="ab02"/>
			<point x="403" y="410" type="line" name="ih01"/>
			<point x="547" y="0" type="line"/>
			<point x="635" y="0" type="line" name="ab01"/>
			<point x="780" y="530" type="line"/>
			<point x="688" y="530" type="line" name="at03"/>
			<point x="587" y="120" type="line" name="iv02"/>
			<point x="444" y="530" type="line"/>
			<point x="366" y="530" type="line" name="at02"/>
			<point x="228" y="120" type="line" name="iv01"/>
			<point x="126" y="530" type="line"/>
			<point x="30" y="530" type="line" name="at01"/>
		</contour>
	</outline>
</glyph>
<glyph name="x" format="2">
	<advance width="550" height="0"/>
	<unicode hex="0078"/>
	<anchor x="275" y="0" name="bottom"/>
	<anchor x="275" y="530" name="top"/>
	<outline>
		<contour>
			<point x="25" y="0" type="line"/>
			<point x="125" y="0" type="line" name="ab02"/>
			<point x="273" y="207" type="line" name="iv01"/>
			<point x="421" y="0" type="line"/>
			<point x="525" y="0" type="line" name="ab01"/>
			<point x="326" y="274" type="line"/>
			<point x="515" y="530" type="line"/>
			<point x="417" y="530" type="line" name="at02"/>
			<point x="277" y="337" type="line" name="ih01"/>
			<point x="137" y="530" type="line"/>
			<point x="35" y="530" type="line" name="at01"/>
			<point x="224" y="269" type="line"/>
		</contour>
	</outline>
</glyph>
<glyph name="z" format="2">
	<advance width="510" height="0"/>
	<unicode hex="007A"/>
	<anchor x="255" y="0" name="bottom"/>
	<anchor x="255" y="265" name="center"/>
	<anchor x="255" y="530" name="top"/>
	<outline>
		<contour>
			<point x="40" y="0" type="line"/>
			<point x="470" y="0" type="line" name="ab01"/>
			<point x="470" y="78" type="line"/>
			<point x="146" y="78" type="line" name="sv01"/>
			<point x="460" y="457" type="line" name="sv03"/>
			<point x="460" y="530" type="line"/>
			<point x="50" y="530" type="line" name="at01"/>
			<point x="50" y="452" type="line"/>
			<point x="354" y="452" type="line" name="ih01"/>
			<point x="40" y="73" type="line" name="sv02"/>
		</contour>
	</outline>
</glyph>
<glyph name="braceleft" format="2">
	<advance width="380" height="0"/>
	<unicode hex="007B"/>
	<outline>
		<contour>
			<point x="320" y="-200" type="line" name="hr05"/>
			<point x="320" y="-126" type="line"/>
			<point x="280" y="-126" type="line" smooth="yes"/>
			<point x="243" y="-126"/>
			<point x="224" y="-107" name="hr01"/>
			<point x="224" y="-70" type="curve" smooth="yes"/>
			<point x="224" y="180" type="line" smooth="yes"/>
			<point x="224" y="220"/>
			<point x="205" y="239"/>
			<point x="174" y="250" type="curve"/>
			<point x="205" y="261"/>
			<point x="224" y="280"/>
			<point x="224" y="320" type="curve" smooth="yes"/>
			<point x="224" y="570" type="line" smooth="yes"/>
			<point x="224" y="607"/>
			<point x="243" y="626"/>
			<point x="280" y="626" type="curve" smooth="yes"/>
			<point x="320" y="626" type="line" name="hr01"/>
			<point x="320" y="700" type="line"/>
			<point x="280" y="700" type="line" smooth="yes"/>
			<point x="189" y="700"/>
			<point x="140" y="651"/>
			<point x="140" y="560" type="curve" smooth="yes"/>
			<point x="140" y="337" type="line" smooth="yes"/>
			<point x="140" y="306"/>
			<point x="121" y="287"/>
			<point x="90" y="287" type="curve" name="hr02"/>
			<point x="90" y="213" type="line"/>
			<point x="121" y="213"/>
			<point x="140" y="194" name="hr04"/>
			<point x="140" y="163" type="curve" smooth="yes" name="hr03"/>
			<point x="140" y="-60" type="line" smooth="yes"/>
			<point x="140" y="-151"/>
			<point x="189" y="-200"/>
			<point x="280" y="-200" type="curve" smooth="yes" name="hr04"/>
		</contour>
	</outline>
</glyph>
<glyph name="braceright" format="2">
	<advance width="380" height="0"/>
	<unicode hex="007D"/>
	<outline>
		<contour>
			<point x="60" y="700" type="line"/>
			<point x="60" y="626" type="line"/>
			<point x="100" y="626" type="line" smooth="yes"/>
			<point x="137" y="626"/>
			<point x="156" y="607"/>
			<point x="156" y="570" type="curve" smooth="yes"/>
			<point x="156" y="320" type="line" smooth="yes"/>
			<point x="156" y="280"/>
			<point x="175" y="261"/>
			<point x="206" y="250" type="curve"/>
			<point x="175" y="239"/>
			<point x="156" y="220"/>
			<point x="156" y="180" type="curve" smooth="yes"/>
			<point x="156" y="-70" type="line" smooth="yes"/>
			<point x="156" y="-107"/>
			<point x="137" y="-126"/>
			<point x="100" y="-126" type="curve" smooth="yes"/>
			<point x="60" y="-126" type="line" name="hr01"/>
			<point x="60" y="-200" type="line"/>
			<point x="100" y="-200" type="line" smooth="yes"/>
			<point x="191" y="-200"/>
			<point x="240" y="-151"/>
			<point x="240" y="-60" type="curve" smooth="yes"/>
			<point x="240" y="163" type="line" smooth="yes"/>
			<point x="240" y="194"/>
			<point x="259" y="213"/>
			<point x="290" y="213" type="curve" name="hr02"/>
			<point x="290" y="287" type="line"/>
			<point x="259" y="287"/>
			<point x="240" y="306" name="hr02"/>
			<point x="240" y="337" type="curve" smooth="yes" name="hr03"/>
			<point x="240" y="560" type="line" smooth="yes"/>
			<point x="240" y="651"/>
			<point x="191" y="700"/>
			<point x="100" y="700" type="curve" smooth="yes" name="hr04"/>
		</contour>
	</outline>
</glyph>
<glyph name="asciitilde" format="2">
	<advance width="550" height="0"/>
	<unicode hex="007E"/>
	<outline>
		<contour>
			<point x="370" y="280" type="curve" smooth="yes"/>
			<point x="422" y="280"/>
			<point x="459" y="305"/>
			<point x="482" y="332" type="curve" smooth="yes"/>
			<point x="495" y="347"/>
			<point x="506" y="365"/>
			<point x="515" y="385" type="curve"/>
			<point x="452" y="425" type="line"/>
			<point x="447" y="413"/>
			<point x="440" y="403"/>
			<point x="433" y="394" type="curve"/>
			<point x="420" y="379"/>
			<point x="402" y="364"/>
			<point x="375" y="364" type="curve" smooth="yes"/>
			<point x="315" y="364"/>
			<point x="266" y="440" name="hr01"/>
			<point x="180" y="440" type="curve" smooth="yes"/>
			<point x="127" y="440"/>
			<point x="91" y="414"/>
			<point x="68" y="387" type="curve" smooth="yes"/>
			<point x="55" y="372"/>
			<point x="44" y="354"/>
			<point x="35" y="335" type="curve"/>
			<point x="98" y="295" type="line"/>
			<point x="103" y="306"/>
			<point x="110" y="316"/>
			<point x="117" y="325" type="curve"/>
			<point x="130" y="340"/>
			<point x="148" y="356"/>
			<point x="175" y="356" type="curve" smooth="yes"/>
			<point x="234" y="356"/>
			<point x="285" y="280" name="hr02"/>
		</contour>
	</outline>
</glyph>
<glyph name="exclamdown" format="2">
	<advance width="300" height="0"/>
	<unicode hex="00A1"/>
	<outline>
		<contour>
			<point x="106" y="-200" type="line"/>
			<point x="194" y="-200" type="line" name="ab01"/>
			<point x="194" y="310" type="line"/>
			<point x="106" y="310" type="line" name="sh01"/>
		</contour>
		<contour>
			<point x="150" y="400" type="curve" smooth="yes"/>
			<point x="189" y="400"/>
			<point x="220" y="431" name="at01"/>
			<point x="220" y="470" type="curve" smooth="yes"/>
			<point x="220" y="510" name="ih01"/>
			<point x="189" y="540" name="ih02"/>
			<point x="150" y="540" type="curve" smooth="yes" name="ih03"/>
			<point x="111" y="540"/>
			<point x="80" y="510"/>
			<point x="80" y="470" type="curve" smooth="yes"/>
			<point x="80" y="431"/>
			<point x="111" y="400"/>
		</contour>
	</outline>
</glyph>
<glyph name="cent" format="2">
	<advance width="545" height="0"/>
	<unicode hex="00A2"/>
	<outline>
		<contour>
			<point x="243" y="-120" type="line" name="sv05"/>
			<point x="327" y="-120" type="line"/>
			<point x="327" y="-6" type="line" name="sv04"/>
			<point x="416" y="9" name="iv02"/>
			<point x="482" y="68"/>
			<point x="505" y="160" type="curve" name="sv03"/>
			<point x="415" y="160" type="line"/>
			<point x="396" y="104"/>
			<point x="350" y="70" name="ih01"/>
			<point x="285" y="70" type="curve" smooth="yes"/>
			<point x="208" y="70" name="iv01"/>
			<point x="135" y="123" name="at01"/>
			<point x="135" y="260" type="curve" smooth="yes" name="sv02"/>
			<point x="135" y="280" type="line" smooth="yes"/>
			<point x="135" y="407" name="sv01"/>
			<point x="208" y="460"/>
			<point x="285" y="460" type="curve" smooth="yes"/>
			<point x="361" y="460" name="ab01"/>
			<point x="394" y="421" name="ih02"/>
			<point x="415" y="370" type="curve" name="ih03"/>
			<point x="505" y="370" type="line"/>
			<point x="486" y="454"/>
			<point x="427" y="522"/>
			<point x="327" y="537" type="curve"/>
			<point x="327" y="630" type="line"/>
			<point x="243" y="630" type="line"/>
			<point x="243" y="536" type="line"/>
			<point x="134" y="520"/>
			<point x="45" y="431"/>
			<point x="45" y="280" type="curve" smooth="yes"/>
			<point x="45" y="260" type="line" smooth="yes"/>
			<point x="45" y="97"/>
			<point x="128" y="9"/>
			<point x="243" y="-7" type="curve"/>
		</contour>
	</outline>
</glyph>
<glyph name="sterling" format="2">
	<advance width="630" height="0"/>
	<unicode hex="00A3"/>
	<outline>
		<contour>
			<point x="60" y="0" type="line"/>
			<point x="570" y="0" type="line"/>
			<point x="570" y="82" type="line"/>
			<point x="244" y="82" type="line"/>
			<point x="244" y="309" type="line"/>
			<point x="425" y="309" type="line"/>
			<point x="425" y="381" type="line"/>
			<point x="244" y="381" type="line"/>
			<point x="244" y="500" type="line" smooth="yes"/>
			<point x="244" y="589"/>
			<point x="286" y="626"/>
			<point x="363" y="626" type="curve" smooth="yes"/>
			<point x="435" y="626"/>
			<point x="471" y="589"/>
			<point x="476" y="525" type="curve" name="hr01"/>
			<point x="570" y="525" type="line"/>
			<point x="565" y="633"/>
			<point x="488" y="710"/>
			<point x="363" y="710" type="curve" smooth="yes"/>
			<point x="234" y="710"/>
			<point x="150" y="631"/>
			<point x="150" y="500" type="curve" smooth="yes"/>
			<point x="150" y="381" type="line"/>
			<point x="70" y="381" type="line"/>
			<point x="70" y="309" type="line"/>
			<point x="150" y="309" type="line"/>
			<point x="150" y="82" type="line"/>
			<point x="60" y="82" type="line"/>
		</contour>
	</outline>
</glyph>
<glyph name="currency" format="2">
	<advance width="550" height="0"/>
	<unicode hex="00A4"/>
	<outline>
		<contour>
			<point x="94" y="120" type="line" name="sv05"/>
			<point x="173" y="199" type="line"/>
			<point x="204" y="180" name="av01"/>
			<point x="236" y="170"/>
			<point x="275" y="170" type="curve" smooth="yes" name="sv06"/>
			<point x="312" y="170"/>
			<point x="347" y="180" name="sv04"/>
			<point x="376" y="199" type="curve"/>
			<point x="456" y="120" type="line" name="sv03"/>
			<point x="515" y="179" type="line"/>
			<point x="435" y="258" type="line" name="sv02"/>
			<point x="455" y="289"/>
			<point x="465" y="323" name="ih01"/>
			<point x="465" y="360" type="curve" smooth="yes"/>
			<point x="465" y="397" name="sv01"/>
			<point x="454" y="432"/>
			<point x="435" y="461" type="curve" name="iv02"/>
			<point x="515" y="541" type="line"/>
			<point x="456" y="600" type="line" name="iv01"/>
			<point x="376" y="520" type="line"/>
			<point x="347" y="539"/>
			<point x="312" y="550"/>
			<point x="275" y="550" type="curve" smooth="yes" name="sv07"/>
			<point x="238" y="550"/>
			<point x="204" y="540" name="sh01"/>
			<point x="173" y="520" type="curve" name="ih02"/>
			<point x="94" y="600" type="line" name="ih03"/>
			<point x="35" y="541" type="line"/>
			<point x="114" y="461" type="line"/>
			<point x="95" y="432"/>
			<point x="85" y="397"/>
			<point x="85" y="360" type="curve" smooth="yes"/>
			<point x="85" y="321"/>
			<point x="95" y="289"/>
			<point x="114" y="258" type="curve"/>
			<point x="35" y="179" type="line"/>
		</contour>
		<contour>
			<point x="275" y="252" type="curve" smooth="yes"/>
			<point x="216" y="252"/>
			<point x="169" y="300"/>
			<point x="169" y="360" type="curve" smooth="yes"/>
			<point x="169" y="420"/>
			<point x="216" y="468"/>
			<point x="275" y="468" type="curve" smooth="yes"/>
			<point x="334" y="468"/>
			<point x="381" y="420"/>
			<point x="381" y="360" type="curve" smooth="yes"/>
			<point x="381" y="300"/>
			<point x="334" y="252"/>
		</contour>
	</outline>
</glyph>
<glyph name="section" format="2">
	<advance width="560" height="0"/>
	<unicode hex="00A7"/>
	<outline>
		<contour>
			<point x="280" y="-210" type="curve" smooth="yes"/>
			<point x="389" y="-210"/>
			<point x="455" y="-140" name="iv02"/>
			<point x="455" y="-48" type="curve" smooth="yes"/>
			<point x="455" y="16" name="sv04"/>
			<point x="418" y="53"/>
			<point x="367" y="82" type="curve" name="sv02"/>
			<point x="442" y="114"/>
			<point x="490" y="173" name="iv04"/>
			<point x="490" y="249" type="curve" smooth="yes" name="at01"/>
			<point x="490" y="332"/>
			<point x="438" y="396" name="iv03"/>
			<point x="358" y="428" type="curve" smooth="yes"/>
			<point x="232" y="479" name="sv03"/>
			<point x="199" y="499"/>
			<point x="199" y="548" type="curve" smooth="yes" name="sv01"/>
			<point x="199" y="596" name="iv01"/>
			<point x="229" y="626"/>
			<point x="280" y="626" type="curve" smooth="yes" name="ih01"/>
			<point x="334" y="626"/>
			<point x="361" y="599" name="hr02"/>
			<point x="361" y="545" type="curve" name="iv05"/>
			<point x="455" y="545" type="line"/>
			<point x="455" y="640" name="sh01"/>
			<point x="389" y="710" name="ih02"/>
			<point x="280" y="710" type="curve" smooth="yes" name="ih03"/>
			<point x="171" y="710"/>
			<point x="105" y="640"/>
			<point x="105" y="548" type="curve" smooth="yes"/>
			<point x="105" y="484"/>
			<point x="141" y="449"/>
			<point x="193" y="418" type="curve"/>
			<point x="117" y="386"/>
			<point x="70" y="326" name="hr03"/>
			<point x="70" y="250" type="curve" smooth="yes" name="hr01"/>
			<point x="70" y="166"/>
			<point x="122" y="104"/>
			<point x="202" y="72" type="curve" smooth="yes"/>
			<point x="329" y="22"/>
			<point x="361" y="1"/>
			<point x="361" y="-48" type="curve" smooth="yes"/>
			<point x="361" y="-99"/>
			<point x="334" y="-125"/>
			<point x="280" y="-125" type="curve" smooth="yes"/>
			<point x="226" y="-125"/>
			<point x="199" y="-100" name="hr04"/>
			<point x="199" y="-50" type="curve" name="hr02"/>
			<point x="105" y="-50" type="line"/>
			<point x="105" y="-140"/>
			<point x="171" y="-210"/>
		</contour>
		<contour>
			<point x="280" y="142" type="curve" smooth="yes"/>
			<point x="212" y="142"/>
			<point x="162" y="187"/>
			<point x="162" y="250" type="curve" smooth="yes" name="hr05"/>
			<point x="162" y="313"/>
			<point x="212" y="358"/>
			<point x="280" y="358" type="curve" smooth="yes"/>
			<point x="347" y="358"/>
			<point x="398" y="310"/>
			<point x="398" y="249" type="curve" smooth="yes"/>
			<point x="398" y="186"/>
			<point x="348" y="142"/>
		</contour>
	</outline>
</glyph>
<glyph name="copyright" format="2">
	<advance width="830" height="0"/>
	<unicode hex="00A9"/>
	<outline>
		<contour>
			<point x="415" y="-10" type="curve" smooth="yes"/>
			<point x="615" y="-10"/>
			<point x="775" y="150" name="at01"/>
			<point x="775" y="350" type="curve" smooth="yes"/>
			<point x="775" y="552" name="ih01"/>
			<point x="617" y="710"/>
			<point x="415" y="710" type="curve" smooth="yes"/>
			<point x="215" y="710" name="sv01"/>
			<point x="55" y="550"/>
			<point x="55" y="350" type="curve" smooth="yes" name="sh01"/>
			<point x="55" y="148"/>
			<point x="213" y="-10" name="iv03"/>
		</contour>
		<contour>
			<point x="415" y="66" type="curve" smooth="yes" name="sv03"/>
			<point x="258" y="66"/>
			<point x="135" y="189"/>
			<point x="135" y="350" type="curve" smooth="yes" name="sv02"/>
			<point x="135" y="511"/>
			<point x="259" y="634" name="iv02"/>
			<point x="415" y="634" type="curve" smooth="yes" name="iv01"/>
			<point x="571" y="634"/>
			<point x="695" y="511"/>
			<point x="695" y="350" type="curve" smooth="yes" name="sh02"/>
			<point x="695" y="187" name="ih02"/>
			<point x="571" y="66" name="ih03"/>
		</contour>
		<contour>
			<point x="415" y="140" type="curve" smooth="yes"/>
			<point x="515" y="140"/>
			<point x="574" y="203"/>
			<point x="585" y="275" type="curve"/>
			<point x="505" y="275" type="line"/>
			<point x="494" y="234" name="hr01"/>
			<point x="471" y="208"/>
			<point x="415" y="208" type="curve" smooth="yes"/>
			<point x="356" y="208" name="hr02"/>
			<point x="315" y="249"/>
			<point x="315" y="345" type="curve" smooth="yes"/>
			<point x="315" y="355" type="line" smooth="yes"/>
			<point x="315" y="452"/>
			<point x="355" y="492"/>
			<point x="415" y="492" type="curve" smooth="yes"/>
			<point x="466" y="492"/>
			<point x="494" y="466"/>
			<point x="505" y="430" type="curve"/>
			<point x="585" y="430" type="line"/>
			<point x="574" y="502" name="hr03"/>
			<point x="516" y="560"/>
			<point x="415" y="560" type="curve" smooth="yes"/>
			<point x="311" y="560"/>
			<point x="235" y="484"/>
			<point x="235" y="355" type="curve" smooth="yes"/>
			<point x="235" y="345" type="line" smooth="yes"/>
			<point x="235" y="214"/>
			<point x="308" y="140"/>
		</contour>
	</outline>
</glyph>
<glyph name="logicalnot" format="2">
	<advance width="550" height="0"/>
	<unicode hex="00AC"/>
	<outline>
		<contour>
			<point x="412" y="151" type="line" name="hr02"/>
			<point x="500" y="151" type="line" name="iv01"/>
			<point x="500" y="401" type="line" name="av01"/>
			<point x="50" y="401" type="line"/>
			<point x="50" y="319" type="line" name="hr01"/>
			<point x="412" y="319" type="line" name="hr02"/>
		</contour>
	</outline>
</glyph>
<glyph name="registered" format="2">
	<advance width="660" height="0"/>
	<unicode hex="00AE"/>
	<outline>
		<contour>
			<point x="330" y="140" type="curve" smooth="yes"/>
			<point x="487" y="140"/>
			<point x="615" y="268" name="at01"/>
			<point x="615" y="425" type="curve" smooth="yes"/>
			<point x="615" y="582" name="ih01"/>
			<point x="487" y="710"/>
			<point x="330" y="710" type="curve" smooth="yes"/>
			<point x="173" y="710" name="sv01"/>
			<point x="45" y="582"/>
			<point x="45" y="425" type="curve" smooth="yes" name="sh01"/>
			<point x="45" y="268" name="iv01"/>
			<point x="173" y="140"/>
		</contour>
		<contour>
			<point x="330" y="200" type="curve" smooth="yes"/>
			<point x="210" y="200" name="sv04"/>
			<point x="111" y="300"/>
			<point x="111" y="425" type="curve" smooth="yes" name="sv03"/>
			<point x="111" y="550"/>
			<point x="210" y="650" name="sh02"/>
			<point x="330" y="650" type="curve" smooth="yes" name="iv02"/>
			<point x="450" y="650" name="iv03"/>
			<point x="549" y="550" name="sv05"/>
			<point x="549" y="425" type="curve" smooth="yes"/>
			<point x="549" y="300"/>
			<point x="450" y="200" name="sh03"/>
		</contour>
		<contour>
			<point x="225" y="275" type="line" name="ih03"/>
			<point x="289" y="275" type="line"/>
			<point x="289" y="385" type="line"/>
			<point x="325" y="385" type="line"/>
			<point x="385" y="275" type="line"/>
			<point x="455" y="275" type="line"/>
			<point x="388" y="391" type="line"/>
			<point x="435" y="404"/>
			<point x="455" y="436"/>
			<point x="455" y="480" type="curve" smooth="yes"/>
			<point x="455" y="540"/>
			<point x="419" y="575"/>
			<point x="330" y="575" type="curve" smooth="yes"/>
			<point x="225" y="575" type="line"/>
		</contour>
		<contour>
			<point x="289" y="435" type="line"/>
			<point x="289" y="525" type="line"/>
			<point x="326" y="525" type="line" smooth="yes"/>
			<point x="377" y="525"/>
			<point x="391" y="511"/>
			<point x="391" y="480" type="curve" smooth="yes"/>
			<point x="391" y="449"/>
			<point x="377" y="435"/>
			<point x="326" y="435" type="curve" smooth="yes"/>
		</contour>
	</outline>
</glyph>
<glyph name="degree" format="2">
	<advance width="390" height="0"/>
	<unicode hex="00B0"/>
	<outline>
		<contour>
			<point x="195" y="400" type="curve" smooth="yes"/>
			<point x="281" y="400"/>
			<point x="350" y="469" name="at01"/>
			<point x="350" y="555" type="curve" smooth="yes"/>
			<point x="350" y="641" name="ih01"/>
			<point x="281" y="710"/>
			<point x="195" y="710" type="curve" smooth="yes"/>
			<point x="109" y="710" name="sv01"/>
			<point x="40" y="641"/>
			<point x="40" y="555" type="curve" smooth="yes" name="sh01"/>
			<point x="40" y="469" name="ih02"/>
			<point x="109" y="400" name="ih03"/>
		</contour>
		<contour>
			<point x="195" y="476" type="curve" smooth="yes"/>
			<point x="151" y="476"/>
			<point x="116" y="511"/>
			<point x="116" y="555" type="curve" smooth="yes"/>
			<point x="116" y="599"/>
			<point x="151" y="634"/>
			<point x="195" y="634" type="curve" smooth="yes"/>
			<point x="239" y="634"/>
			<point x="274" y="599"/>
			<point x="274" y="555" type="curve" smooth="yes"/>
			<point x="274" y="511"/>
			<point x="239" y="476"/>
		</contour>
	</outline>
</glyph>
<glyph name="plusminus" format="2">
	<advance width="550" height="0"/>
	<unicode hex="00B1"/>
	<outline>
		<contour>
			<point x="50" y="89" type="line" name="sv01"/>
			<point x="500" y="89" type="line"/>
			<point x="500" y="171" type="line"/>
			<point x="50" y="171" type="line" name="sh01"/>
		</contour>
		<contour>
			<point x="231" y="270" type="line" name="iv01"/>
			<point x="319" y="270" type="line"/>
			<point x="319" y="369" type="line"/>
			<point x="500" y="369" type="line" name="sv04"/>
			<point x="500" y="451" type="line"/>
			<point x="319" y="451" type="line" name="sv03"/>
			<point x="319" y="635" type="line"/>
			<point x="231" y="635" type="line" name="sv02"/>
			<point x="231" y="451" type="line" name="av01"/>
			<point x="50" y="451" type="line"/>
			<point x="50" y="369" type="line"/>
			<point x="231" y="369" type="line" name="ih01"/>
		</contour>
	</outline>
</glyph>
<glyph name="uni00B3" format="2">
	<advance width="370" height="0"/>
	<unicode hex="00B3"/>
	<outline>
		<contour>
			<point x="185" y="370" type="curve" smooth="yes"/>
			<point x="285" y="370"/>
			<point x="340" y="424" name="iv05"/>
			<point x="340" y="492" type="curve" smooth="yes"/>
			<point x="340" y="548" name="at01"/>
			<point x="305" y="575" name="iv04"/>
			<point x="265" y="590" type="curve"/>
			<point x="305" y="605" name="sv02"/>
			<point x="330" y="624"/>
			<point x="330" y="676" type="curve" smooth="yes" name="iv02"/>
			<point x="330" y="741"/>
			<point x="281" y="790"/>
			<point x="185" y="790" type="curve" smooth="yes" name="iv03"/>
			<point x="90" y="790"/>
			<point x="40" y="739" name="sv01"/>
			<point x="40" y="675" type="curve"/>
			<point x="126" y="675" type="line" name="iv01"/>
			<point x="126" y="700" name="ih01"/>
			<point x="149" y="714" name="ih02"/>
			<point x="185" y="714" type="curve" smooth="yes" name="ih03"/>
			<point x="226" y="714"/>
			<point x="244" y="696"/>
			<point x="244" y="669" type="curve" smooth="yes"/>
			<point x="244" y="640"/>
			<point x="224" y="620"/>
			<point x="184" y="620" type="curve" smooth="yes"/>
			<point x="135" y="620" type="line" name="hr01"/>
			<point x="135" y="550" type="line"/>
			<point x="184" y="550" type="line" smooth="yes"/>
			<point x="233" y="550"/>
			<point x="254" y="531"/>
			<point x="254" y="498" type="curve" smooth="yes"/>
			<point x="254" y="466"/>
			<point x="232" y="446"/>
			<point x="185" y="446" type="curve" smooth="yes"/>
			<point x="139" y="446"/>
			<point x="116" y="461"/>
			<point x="116" y="490" type="curve" name="hr02"/>
			<point x="30" y="490" type="line"/>
			<point x="30" y="425"/>
			<point x="85" y="370"/>
		</contour>
	</outline>
</glyph>
<glyph name="uni00B5" format="2">
	<advance width="610" height="0"/>
	<unicode hex="00B5"/>
	<outline>
		<contour>
			<point x="80" y="-200" type="line"/>
			<point x="168" y="-200" type="line"/>
			<point x="168" y="17" type="line"/>
			<point x="196" y="-1"/>
			<point x="231" y="-10"/>
			<point x="272" y="-10" type="curve" smooth="yes"/>
			<point x="363" y="-10"/>
			<point x="424" y="41"/>
			<point x="448" y="100" type="curve"/>
			<point x="448" y="0" type="line" name="hr01"/>
			<point x="530" y="0" type="line"/>
			<point x="530" y="530" type="line"/>
			<point x="442" y="530" type="line"/>
			<point x="442" y="220" type="line" smooth="yes"/>
			<point x="442" y="145"/>
			<point x="398" y="70" name="hr02"/>
			<point x="298" y="70" type="curve" smooth="yes" name="hr01"/>
			<point x="206" y="70"/>
			<point x="168" y="121"/>
			<point x="168" y="220" type="curve" smooth="yes"/>
			<point x="168" y="530" type="line"/>
			<point x="80" y="530" type="line"/>
		</contour>
	</outline>
</glyph>
<glyph name="paragraph" format="2">
	<advance width="625" height="0"/>
	<unicode hex="00B6"/>
	<outline>
		<contour>
			<point x="195" y="-200" type="line"/>
			<point x="279" y="-200" type="line" name="ab02"/>
			<point x="279" y="620" type="line" name="ih01"/>
			<point x="441" y="620" type="line"/>
			<point x="441" y="-200" type="line"/>
			<point x="525" y="-200" type="line" name="ab01"/>
			<point x="525" y="700" type="line"/>
			<point x="245" y="700" type="line" smooth="yes" name="at01"/>
			<point x="136" y="700"/>
			<point x="45" y="609" name="iv01"/>
			<point x="45" y="500" type="curve" smooth="yes" name="ih02"/>
			<point x="45" y="408" name="ih03"/>
			<point x="110" y="327"/>
			<point x="195" y="306" type="curve" name="hr01"/>
		</contour>
	</outline>
</glyph>
<glyph name="uni00B9" format="2">
	<advance width="250" height="0"/>
	<unicode hex="00B9"/>
	<outline>
		<contour>
			<point x="129" y="380" type="line"/>
			<point x="215" y="380" type="line" name="ab01"/>
			<point x="215" y="780" type="line"/>
			<point x="135" y="780" type="line" name="at01"/>
			<point x="25" y="702" type="line"/>
			<point x="25" y="616" type="line" name="iv01"/>
			<point x="129" y="690" type="line" name="hr01"/>
		</contour>
	</outline>
</glyph>
<glyph name="questiondown" format="2">
	<advance width="500" height="0"/>
	<unicode hex="00BF"/>
	<outline>
		<contour>
			<point x="250" y="-210" type="curve" smooth="yes"/>
			<point x="379" y="-210"/>
			<point x="460" y="-128" name="iv02"/>
			<point x="460" y="-20" type="curve" name="sv01"/>
			<point x="370" y="-20" type="line"/>
			<point x="370" y="-84"/>
			<point x="325" y="-130" name="hr01"/>
			<point x="250" y="-130" type="curve" smooth="yes"/>
			<point x="175" y="-130" name="iv01"/>
			<point x="130" y="-84"/>
			<point x="130" y="-20" type="curve" smooth="yes" name="hr02"/>
			<point x="130" y="24"/>
			<point x="160" y="59" name="ih01"/>
			<point x="216" y="107" type="curve" smooth="yes"/>
			<point x="285" y="166"/>
			<point x="295" y="199" name="at01"/>
			<point x="295" y="250" type="curve" smooth="yes"/>
			<point x="295" y="310" type="line" name="sh01"/>
			<point x="207" y="310" type="line" name="ih02"/>
			<point x="207" y="260" type="line" smooth="yes" name="ih03"/>
			<point x="207" y="226"/>
			<point x="196" y="199"/>
			<point x="150" y="162" type="curve"/>
			<point x="93" y="113"/>
			<point x="40" y="54"/>
			<point x="40" y="-20" type="curve" smooth="yes"/>
			<point x="40" y="-128"/>
			<point x="121" y="-210"/>
		</contour>
		<contour>
			<point x="250" y="400" type="curve" smooth="yes"/>
			<point x="289" y="400"/>
			<point x="320" y="431"/>
			<point x="320" y="470" type="curve" smooth="yes" name="hr03"/>
			<point x="320" y="510"/>
			<point x="289" y="540"/>
			<point x="250" y="540" type="curve" smooth="yes"/>
			<point x="211" y="540"/>
			<point x="180" y="510"/>
			<point x="180" y="470" type="curve" smooth="yes"/>
			<point x="180" y="431"/>
			<point x="211" y="400"/>
		</contour>
	</outline>
</glyph>
<glyph name="AE" format="2">
	<advance width="950" height="0"/>
	<unicode hex="00C6"/>
	<anchor x="475" y="0" name="bottom"/>
	<anchor x="475" y="700" name="top"/>
	<outline>
		<contour>
			<point x="10" y="0" type="line"/>
			<point x="114" y="0" type="line" name="ab02"/>
			<point x="215" y="174" type="line"/>
			<point x="440" y="174" type="line" name="sv04"/>
			<point x="440" y="0" type="line" name="ih01"/>
			<point x="890" y="0" type="line" name="ab01"/>
			<point x="890" y="82" type="line"/>
			<point x="534" y="82" type="line" name="sv03"/>
			<point x="534" y="319" type="line"/>
			<point x="860" y="319" type="line" name="sv02"/>
			<point x="860" y="401" type="line" name="iv01"/>
			<point x="534" y="401" type="line"/>
			<point x="534" y="618" type="line"/>
			<point x="890" y="618" type="line" name="sv01"/>
			<point x="890" y="700" type="line"/>
			<point x="419" y="700" type="line" name="at01"/>
		</contour>
		<contour>
			<point x="263" y="256" type="line"/>
			<point x="440" y="576" type="line" name="iv02"/>
			<point x="440" y="256" type="line" name="sh01"/>
		</contour>
	</outline>
</glyph>
<glyph name="Eth" format="2">
	<advance width="715" height="0"/>
	<unicode hex="00D0"/>
	<outline>
		<contour>
			<point x="115" y="0" type="line"/>
			<point x="310" y="0" type="line" smooth="yes"/>
			<point x="526" y="0"/>
			<point x="655" y="121"/>
			<point x="655" y="345" type="curve" smooth="yes"/>
			<point x="655" y="365" type="line" smooth="yes"/>
			<point x="655" y="585"/>
			<point x="530" y="700"/>
			<point x="320" y="700" type="curve" smooth="yes"/>
			<point x="115" y="700" type="line"/>
			<point x="115" y="391" type="line"/>
			<point x="35" y="391" type="line"/>
			<point x="35" y="319" type="line"/>
			<point x="115" y="319" type="line"/>
		</contour>
		<contour>
			<point x="209" y="82" type="line"/>
			<point x="209" y="319" type="line"/>
			<point x="385" y="319" type="line"/>
			<point x="385" y="391" type="line"/>
			<point x="209" y="391" type="line"/>
			<point x="209" y="618" type="line"/>
			<point x="310" y="618" type="line" smooth="yes"/>
			<point x="460" y="618"/>
			<point x="555" y="544"/>
			<point x="555" y="365" type="curve" smooth="yes"/>
			<point x="555" y="345" type="line" smooth="yes"/>
			<point x="555" y="158"/>
			<point x="458" y="82"/>
			<point x="300" y="82" type="curve" smooth="yes"/>
		</contour>
	</outline>
</glyph>
<glyph name="multiply" format="2">
	<advance width="550" height="0"/>
	<unicode hex="00D7"/>
	<outline>
		<contour>
			<point x="134" y="160" type="line" name="sv02"/>
			<point x="275" y="301" type="line"/>
			<point x="416" y="160" type="line" name="iv01"/>
			<point x="475" y="219" type="line"/>
			<point x="334" y="360" type="line"/>
			<point x="475" y="501" type="line"/>
			<point x="416" y="560" type="line" name="sv01"/>
			<point x="275" y="419" type="line" name="ih01"/>
			<point x="134" y="560" type="line" name="av01"/>
			<point x="75" y="501" type="line"/>
			<point x="216" y="360" type="line"/>
			<point x="75" y="219" type="line"/>
		</contour>
	</outline>
</glyph>
<glyph name="Oslash" format="2">
	<advance width="740" height="0"/>
	<unicode hex="00D8"/>
	<anchor x="370" y="0" name="bottom"/>
	<anchor x="370" y="700" name="top"/>
	<outline>
		<contour>
			<point x="370" y="-10" type="curve" smooth="yes"/>
			<point x="530" y="-10"/>
			<point x="680" y="95"/>
			<point x="680" y="345" type="curve" smooth="yes" name="iv04"/>
			<point x="680" y="365" type="line" smooth="yes"/>
			<point x="680" y="466" name="at02"/>
			<point x="653" y="543" name="iv03"/>
			<point x="610" y="599" type="curve" name="at01"/>
			<point x="665" y="668" type="line"/>
			<point x="613" y="710" type="line"/>
			<point x="563" y="647" type="line" name="iv02"/>
			<point x="507" y="690"/>
			<point x="441" y="710" name="ab01"/>
			<point x="370" y="710" type="curve" smooth="yes" name="iv01"/>
			<point x="210" y="710" name="ih01"/>
			<point x="60" y="605"/>
			<point x="60" y="365" type="curve" smooth="yes"/>
			<point x="60" y="345" type="line" smooth="yes" name="iv05"/>
			<point x="60" y="237"/>
			<point x="87" y="159"/>
			<point x="130" y="102" type="curve" name="sh01"/>
			<point x="75" y="32" type="line"/>
			<point x="127" y="-10" type="line"/>
			<point x="177" y="53" type="line" name="iv06"/>
			<point x="233" y="10"/>
			<point x="299" y="-10"/>
		</contour>
		<contour>
			<point x="370" y="74" type="curve" smooth="yes" name="ih02"/>
			<point x="319" y="74" name="ih03"/>
			<point x="273" y="90"/>
			<point x="234" y="125" type="curve"/>
			<point x="547" y="520" type="line"/>
			<point x="568" y="480"/>
			<point x="580" y="429"/>
			<point x="580" y="365" type="curve" smooth="yes"/>
			<point x="580" y="345" type="line" smooth="yes"/>
			<point x="580" y="150"/>
			<point x="479" y="74"/>
		</contour>
		<contour>
			<point x="370" y="626" type="curve" smooth="yes"/>
			<point x="421" y="626"/>
			<point x="467" y="610"/>
			<point x="506" y="575" type="curve"/>
			<point x="193" y="181" type="line"/>
			<point x="172" y="222"/>
			<point x="160" y="276"/>
			<point x="160" y="345" type="curve" smooth="yes"/>
			<point x="160" y="365" type="line" smooth="yes"/>
			<point x="160" y="549"/>
			<point x="261" y="626"/>
		</contour>
	</outline>
</glyph>
<glyph name="Thorn" format="2">
	<advance width="655" height="0"/>
	<unicode hex="00DE"/>
	<anchor x="328" y="0" name="bottom"/>
	<anchor x="328" y="700" name="top"/>
	<outline>
		<contour>
			<point x="100" y="0" type="line"/>
			<point x="194" y="0" type="line" name="ab01"/>
			<point x="194" y="145" type="line"/>
			<point x="340" y="145" type="line" smooth="yes" name="sv01"/>
			<point x="525" y="145"/>
			<point x="610" y="235" name="sh01"/>
			<point x="610" y="360" type="curve" smooth="yes"/>
			<point x="610" y="485"/>
			<point x="525" y="575" name="at01"/>
			<point x="340" y="575" type="curve" smooth="yes"/>
			<point x="194" y="575" type="line"/>
			<point x="194" y="700" type="line" name="sv02"/>
			<point x="100" y="700" type="line"/>
		</contour>
		<contour>
			<point x="194" y="227" type="line" name="ih01"/>
			<point x="194" y="493" type="line" name="ih02"/>
			<point x="335" y="493" type="line" smooth="yes" name="ih03"/>
			<point x="468" y="493"/>
			<point x="516" y="441"/>
			<point x="516" y="360" type="curve" smooth="yes"/>
			<point x="516" y="279"/>
			<point x="468" y="227"/>
			<point x="335" y="227" type="curve" smooth="yes"/>
		</contour>
	</outline>
</glyph>
<glyph name="ae" format="2">
	<advance width="935" height="0"/>
	<unicode hex="00E6"/>
	<anchor x="468" y="0" name="bottom"/>
	<anchor x="468" y="530" name="top"/>
	<outline>
		<contour>
			<point x="241" y="-10" type="curve" smooth="yes"/>
			<point x="349" y="-10"/>
			<point x="411" y="34"/>
			<point x="450" y="105" type="curve"/>
			<point x="493" y="29"/>
			<point x="570" y="-10"/>
			<point x="655" y="-10" type="curve" smooth="yes"/>
			<point x="767" y="-10"/>
			<point x="859" y="44"/>
			<point x="880" y="145" type="curve" name="hr01"/>
			<point x="794" y="145" type="line"/>
			<point x="775" y="98"/>
			<point x="735" y="70" name="hr02"/>
			<point x="655" y="70" type="curve" smooth="yes"/>
			<point x="576" y="70"/>
			<point x="488" y="115"/>
			<point x="488" y="241" type="curve"/>
			<point x="890" y="241" type="line"/>
			<point x="890" y="295" type="line" smooth="yes"/>
			<point x="890" y="451"/>
			<point x="801" y="540"/>
			<point x="645" y="540" type="curve" smooth="yes"/>
			<point x="561" y="540"/>
			<point x="506" y="513"/>
			<point x="466" y="450" type="curve"/>
			<point x="435" y="510"/>
			<point x="368" y="540"/>
			<point x="280" y="540" type="curve" smooth="yes"/>
			<point x="167" y="540"/>
			<point x="85" y="475"/>
			<point x="80" y="390" type="curve"/>
			<point x="168" y="390" type="line"/>
			<point x="172" y="426"/>
			<point x="204" y="460" name="hr03"/>
			<point x="280" y="460" type="curve" smooth="yes" name="hr01"/>
			<point x="361" y="460"/>
			<point x="402" y="431"/>
			<point x="402" y="340" type="curve" smooth="yes"/>
			<point x="402" y="309" type="line"/>
			<point x="229" y="309" type="line" smooth="yes"/>
			<point x="117" y="309"/>
			<point x="50" y="264"/>
			<point x="50" y="155" type="curve" smooth="yes"/>
			<point x="50" y="60"/>
			<point x="115" y="-10"/>
		</contour>
		<contour>
			<point x="251" y="70" type="curve" smooth="yes"/>
			<point x="175" y="70"/>
			<point x="140" y="106"/>
			<point x="140" y="155" type="curve" smooth="yes"/>
			<point x="140" y="214"/>
			<point x="179" y="241"/>
			<point x="246" y="241" type="curve" smooth="yes"/>
			<point x="402" y="241" type="line"/>
			<point x="402" y="200" type="line" smooth="yes"/>
			<point x="402" y="116"/>
			<point x="332" y="70"/>
		</contour>
		<contour>
			<point x="650" y="460" type="curve" smooth="yes"/>
			<point x="736" y="460"/>
			<point x="804" y="417"/>
			<point x="807" y="309" type="curve"/>
			<point x="488" y="309" type="line"/>
			<point x="488" y="413"/>
			<point x="568" y="460"/>
		</contour>
	</outline>
</glyph>
<glyph name="eth" format="2">
	<advance width="600" height="0"/>
	<unicode hex="00F0"/>
	<anchor x="300" y="0" name="bottom"/>
	<anchor x="300" y="774" name="top"/>
	<outline>
		<contour>
			<point x="305" y="-10" type="curve" smooth="yes"/>
			<point x="440" y="-10"/>
			<point x="560" y="77"/>
			<point x="560" y="270" type="curve" smooth="yes" name="iv05"/>
			<point x="560" y="290" type="line" smooth="yes"/>
			<point x="560" y="478" name="ih01"/>
			<point x="500" y="604" name="at01"/>
			<point x="323" y="690" type="curve" name="sv01"/>
			<point x="348" y="737" type="line" name="sv02"/>
			<point x="302" y="758" type="line"/>
			<point x="277" y="711" type="line"/>
			<point x="250" y="722" name="iv04"/>
			<point x="221" y="731" name="iv03"/>
			<point x="190" y="742" type="curve" name="iv02"/>
			<point x="168" y="668" type="line" name="iv01"/>
			<point x="195" y="659"/>
			<point x="217" y="651"/>
			<point x="240" y="642" type="curve" name="ab01"/>
			<point x="215" y="595" type="line"/>
			<point x="261" y="574" type="line"/>
			<point x="287" y="623" type="line"/>
			<point x="370" y="584" name="sv03"/>
			<point x="421" y="537"/>
			<point x="452" y="450" type="curve"/>
			<point x="413" y="498" name="sh01"/>
			<point x="357" y="520" name="ih02"/>
			<point x="285" y="520" type="curve" smooth="yes" name="ih03"/>
			<point x="170" y="520"/>
			<point x="50" y="432"/>
			<point x="50" y="270" type="curve" smooth="yes"/>
			<point x="50" y="250" type="line" smooth="yes"/>
			<point x="50" y="78"/>
			<point x="170" y="-10"/>
		</contour>
		<contour>
			<point x="305" y="70" type="curve" smooth="yes"/>
			<point x="224" y="70"/>
			<point x="140" y="122"/>
			<point x="140" y="250" type="curve" smooth="yes"/>
			<point x="140" y="270" type="line" smooth="yes"/>
			<point x="140" y="387"/>
			<point x="224" y="440"/>
			<point x="305" y="440" type="curve" smooth="yes"/>
			<point x="386" y="440"/>
			<point x="470" y="387"/>
			<point x="470" y="270" type="curve" smooth="yes"/>
			<point x="470" y="250" type="line" smooth="yes"/>
			<point x="470" y="122"/>
			<point x="386" y="70"/>
		</contour>
	</outline>
</glyph>
<glyph name="divide" format="2">
	<advance width="550" height="0"/>
	<unicode hex="00F7"/>
	<outline>
		<contour>
			<point x="50" y="319" type="line"/>
			<point x="500" y="319" type="line" name="sv01"/>
			<point x="500" y="401" type="line" name="av01"/>
			<point x="50" y="401" type="line" name="sh01"/>
		</contour>
		<contour>
			<point x="275" y="119" type="curve" smooth="yes"/>
			<point x="314" y="119"/>
			<point x="345" y="150" name="sv02"/>
			<point x="345" y="189" type="curve" smooth="yes"/>
			<point x="345" y="229" name="ih01"/>
			<point x="314" y="259"/>
			<point x="275" y="259" type="curve" smooth="yes"/>
			<point x="236" y="259" name="sv03"/>
			<point x="205" y="229"/>
			<point x="205" y="189" type="curve" smooth="yes" name="sh02"/>
			<point x="205" y="150" name="ih02"/>
			<point x="236" y="119" name="ih03"/>
		</contour>
		<contour>
			<point x="275" y="461" type="curve" smooth="yes"/>
			<point x="314" y="461"/>
			<point x="345" y="492"/>
			<point x="345" y="531" type="curve" smooth="yes"/>
			<point x="345" y="571"/>
			<point x="314" y="601"/>
			<point x="275" y="601" type="curve" smooth="yes"/>
			<point x="236" y="601"/>
			<point x="205" y="571"/>
			<point x="205" y="531" type="curve" smooth="yes"/>
			<point x="205" y="492"/>
			<point x="236" y="461"/>
		</contour>
	</outline>
</glyph>
<glyph name="oslash" format="2">
	<advance width="600" height="0"/>
	<unicode hex="00F8"/>
	<anchor x="300" y="530" name="top"/>
	<outline>
		<contour>
			<point x="300" y="-10" type="curve" smooth="yes"/>
			<point x="435" y="-10"/>
			<point x="555" y="78"/>
			<point x="555" y="260" type="curve" smooth="yes" name="iv02"/>
			<point x="555" y="280" type="line" smooth="yes"/>
			<point x="555" y="353" name="at02"/>
			<point x="533" y="410"/>
			<point x="498" y="453" type="curve" name="at01"/>
			<point x="540" y="502" type="line"/>
			<point x="498" y="540" type="line"/>
			<point x="457" y="492" type="line" name="iv01"/>
			<point x="413" y="524"/>
			<point x="359" y="540" name="ab01"/>
			<point x="300" y="540" type="curve" smooth="yes"/>
			<point x="165" y="540" name="ih01"/>
			<point x="45" y="452"/>
			<point x="45" y="280" type="curve" smooth="yes"/>
			<point x="45" y="260" type="line" smooth="yes" name="iv03"/>
			<point x="45" y="180"/>
			<point x="67" y="121"/>
			<point x="103" y="77" type="curve" name="sh01"/>
			<point x="60" y="26" type="line"/>
			<point x="102" y="-10" type="line"/>
			<point x="143" y="38" type="line" name="iv04"/>
			<point x="187" y="6"/>
			<point x="241" y="-10"/>
		</contour>
		<contour>
			<point x="300" y="70" type="curve" smooth="yes" name="ih02"/>
			<point x="264" y="70" name="ih03"/>
			<point x="228" y="80"/>
			<point x="199" y="103" type="curve"/>
			<point x="439" y="384" type="line"/>
			<point x="455" y="357"/>
			<point x="465" y="323"/>
			<point x="465" y="280" type="curve" smooth="yes"/>
			<point x="465" y="260" type="line" smooth="yes"/>
			<point x="465" y="122"/>
			<point x="381" y="70"/>
		</contour>
		<contour>
			<point x="300" y="460" type="curve" smooth="yes"/>
			<point x="336" y="460"/>
			<point x="371" y="450"/>
			<point x="402" y="427" type="curve"/>
			<point x="162" y="145" type="line"/>
			<point x="145" y="174"/>
			<point x="135" y="212"/>
			<point x="135" y="260" type="curve" smooth="yes"/>
			<point x="135" y="280" type="line" smooth="yes"/>
			<point x="135" y="408"/>
			<point x="219" y="460"/>
		</contour>
	</outline>
</glyph>
<glyph name="thorn" format="2">
	<advance width="615" height="0"/>
	<unicode hex="00FE"/>
	<anchor x="308" y="0" name="bottom"/>
	<anchor x="308" y="530" name="top"/>
	<outline>
		<contour>
			<point x="80" y="-200" type="line"/>
			<point x="168" y="-200" type="line"/>
			<point x="168" y="95" type="line"/>
			<point x="199" y="35"/>
			<point x="259" y="-10"/>
			<point x="350" y="-10" type="curve" smooth="yes"/>
			<point x="481" y="-10"/>
			<point x="570" y="81"/>
			<point x="570" y="260" type="curve" smooth="yes"/>
			<point x="570" y="280" type="line" smooth="yes"/>
			<point x="570" y="452"/>
			<point x="484" y="540"/>
			<point x="350" y="540" type="curve" smooth="yes"/>
			<point x="265" y="540"/>
			<point x="199" y="500"/>
			<point x="168" y="435" type="curve"/>
			<point x="168" y="700" type="line" name="hr01"/>
			<point x="80" y="700" type="line"/>
		</contour>
		<contour>
			<point x="330" y="68" type="curve" smooth="yes"/>
			<point x="234" y="68"/>
			<point x="168" y="134"/>
			<point x="168" y="230" type="curve" smooth="yes"/>
			<point x="168" y="310" type="line" smooth="yes"/>
			<point x="168" y="396"/>
			<point x="234" y="462"/>
			<point x="330" y="462" type="curve" smooth="yes"/>
			<point x="416" y="462"/>
			<point x="482" y="396"/>
			<point x="482" y="280" type="curve" smooth="yes"/>
			<point x="482" y="260" type="line" smooth="yes"/>
			<point x="482" y="135"/>
			<point x="416" y="68"/>
		</contour>
	</outline>
</glyph>
<glyph name="dcroat" format="2">
	<advance width="615"/>
	<unicode hex="0111"/>
	<outline>
		<component base="d"/>
		<contour>
			<point x="293" y="638" type="line"/>
			<point x="293" y="581" type="line"/>
			<point x="634" y="581" type="line"/>
			<point x="634" y="638" type="line"/>
		</contour>
	</outline>
</glyph>
<glyph name="Hbar" format="2">
	<advance width="760"/>
	<unicode hex="0126"/>
	<outline>
		<component base="H"/>
		<contour>
			<point x="29" y="601" type="line"/>
			<point x="29" y="519" type="line"/>
			<point x="731" y="519" type="line" name="sv01"/>
			<point x="731" y="601" type="line" name="iv01"/>
		</contour>
	</outline>
</glyph>
<glyph name="hbar" format="2">
	<advance width="615"/>
	<unicode hex="0127"/>
	<outline>
		<component base="h"/>
		<contour>
			<point x="-7" y="638" type="line"/>
			<point x="-7" y="581" type="line"/>
			<point x="334" y="581" type="line"/>
			<point x="334" y="638" type="line"/>
		</contour>
	</outline>
</glyph>
<glyph name="Lslash" format="2">
	<advance width="590" height="0"/>
	<unicode hex="0141"/>
	<outline>
		<contour>
			<point x="120" y="0" type="line"/>
			<point x="570" y="0" type="line" name="ab01"/>
			<point x="570" y="82" type="line"/>
			<point x="214" y="82" type="line" name="sv02"/>
			<point x="214" y="326" type="line" name="iv05"/>
			<point x="390" y="428" type="line" name="sv01"/>
			<point x="390" y="510" type="line" name="iv01"/>
			<point x="214" y="408" type="line" name="iv04"/>
			<point x="214" y="700" type="line" name="ih01"/>
			<point x="120" y="700" type="line" name="hr01"/>
			<point x="120" y="354" type="line" name="iv03"/>
			<point x="20" y="297" type="line" name="hr02"/>
			<point x="20" y="215" type="line" name="iv02"/>
			<point x="120" y="272" type="line" name="hr03"/>
		</contour>
	</outline>
</glyph>
<glyph name="lslash" format="2">
	<advance width="340" height="0"/>
	<unicode hex="0142"/>
	<outline>
		<contour>
			<point x="255" y="-5" type="curve" smooth="yes"/>
			<point x="266" y="-5"/>
			<point x="289" y="-4"/>
			<point x="300" y="-1" type="curve"/>
			<point x="300" y="77" type="line"/>
			<point x="289" y="76"/>
			<point x="280" y="75"/>
			<point x="265" y="75" type="curve" smooth="yes"/>
			<point x="208" y="75"/>
			<point x="188" y="96" name="hr01"/>
			<point x="188" y="165" type="curve" smooth="yes" name="hr01"/>
			<point x="188" y="397" type="line"/>
			<point x="300" y="462" type="line" name="hr02"/>
			<point x="300" y="540" type="line"/>
			<point x="188" y="475" type="line" name="hr03"/>
			<point x="188" y="700" type="line"/>
			<point x="100" y="700" type="line" name="hr04"/>
			<point x="100" y="424" type="line"/>
			<point x="20" y="378" type="line" name="hr05"/>
			<point x="20" y="300" type="line"/>
			<point x="100" y="346" type="line" name="hr06"/>
			<point x="100" y="165" type="line" smooth="yes"/>
			<point x="100" y="45"/>
			<point x="144" y="-5"/>
		</contour>
	</outline>
</glyph>
<glyph name="Eng" format="2">
	<advance width="760"/>
	<unicode hex="014A"/>
	<anchor x="300" y="0" name="bottom"/>
	<anchor x="300" y="700" name="top"/>
	<outline>
		<contour>
			<point x="500" y="-211" type="curve" smooth="yes"/>
			<point x="617" y="-211"/>
			<point x="660" y="-166"/>
			<point x="660" y="-1" type="curve" smooth="yes"/>
			<point x="660" y="529" type="line"/>
			<point x="568" y="529" type="line" name="hr01"/>
			<point x="568" y="-1" type="line" smooth="yes"/>
			<point x="568" y="-107"/>
			<point x="553" y="-131"/>
			<point x="485" y="-131" type="curve" smooth="yes"/>
			<point x="474" y="-131"/>
			<point x="461" y="-131"/>
			<point x="450" y="-128" type="curve" name="hr01"/>
			<point x="450" y="-208" type="line"/>
			<point x="465" y="-211"/>
			<point x="485" y="-211"/>
		</contour>
		<component base="N"/>
	</outline>
</glyph>
<glyph name="eng" format="2">
	<advance width="614"/>
	<unicode hex="014B"/>
	<anchor x="307" y="0" name="bottom"/>
	<anchor x="307" y="530" name="top"/>
	<outline>
		<contour>
			<point x="380" y="-210" type="curve" smooth="yes"/>
			<point x="497" y="-210"/>
			<point x="540" y="-165"/>
			<point x="540" y="0" type="curve" smooth="yes"/>
			<point x="540" y="130" type="line"/>
			<point x="452" y="130" type="line" name="hr01"/>
			<point x="452" y="0" type="line" smooth="yes"/>
			<point x="452" y="-106"/>
			<point x="433" y="-130"/>
			<point x="365" y="-130" type="curve" smooth="yes"/>
			<point x="354" y="-130"/>
			<point x="341" y="-130"/>
			<point x="330" y="-127" type="curve" name="hr01"/>
			<point x="330" y="-207" type="line"/>
			<point x="345" y="-210"/>
			<point x="365" y="-210"/>
		</contour>
		<component base="n"/>
	</outline>
</glyph>
<glyph name="oe" format="2">
	<advance width="1000" height="0"/>
	<unicode hex="0153"/>
	<anchor x="500" y="0" name="bottom"/>
	<anchor x="500" y="530" name="top"/>
	<outline>
		<contour>
			<point x="300" y="-10" type="curve" smooth="yes"/>
			<point x="389" y="-10"/>
			<point x="466" y="27"/>
			<point x="509" y="106" type="curve"/>
			<point x="552" y="26"/>
			<point x="629" y="-10"/>
			<point x="720" y="-10" type="curve" smooth="yes"/>
			<point x="832" y="-10"/>
			<point x="924" y="44"/>
			<point x="945" y="145" type="curve" name="hr01"/>
			<point x="859" y="145" type="line"/>
			<point x="840" y="98"/>
			<point x="800" y="70" name="hr02"/>
			<point x="720" y="70" type="curve" smooth="yes"/>
			<point x="641" y="70"/>
			<point x="553" y="115"/>
			<point x="553" y="239" type="curve"/>
			<point x="955" y="239" type="line"/>
			<point x="955" y="295" type="line" smooth="yes"/>
			<point x="955" y="451"/>
			<point x="866" y="540"/>
			<point x="710" y="540" type="curve" smooth="yes"/>
			<point x="623" y="540"/>
			<point x="549" y="504"/>
			<point x="508" y="428" type="curve"/>
			<point x="465" y="503"/>
			<point x="388" y="540"/>
			<point x="300" y="540" type="curve" smooth="yes"/>
			<point x="165" y="540"/>
			<point x="45" y="452"/>
			<point x="45" y="280" type="curve" smooth="yes"/>
			<point x="45" y="260" type="line" smooth="yes"/>
			<point x="45" y="78"/>
			<point x="165" y="-10"/>
		</contour>
		<contour>
			<point x="300" y="70" type="curve" smooth="yes"/>
			<point x="219" y="70"/>
			<point x="135" y="122"/>
			<point x="135" y="260" type="curve" smooth="yes"/>
			<point x="135" y="280" type="line" smooth="yes"/>
			<point x="135" y="408"/>
			<point x="219" y="460"/>
			<point x="300" y="460" type="curve" smooth="yes"/>
			<point x="381" y="460"/>
			<point x="465" y="408"/>
			<point x="465" y="280" type="curve" smooth="yes"/>
			<point x="465" y="260" type="line" smooth="yes"/>
			<point x="465" y="122"/>
			<point x="381" y="70"/>
		</contour>
		<contour>
			<point x="715" y="460" type="curve" smooth="yes"/>
			<point x="801" y="460"/>
			<point x="869" y="420"/>
			<point x="872" y="311" type="curve"/>
			<point x="553" y="311" type="line"/>
			<point x="553" y="415"/>
			<point x="633" y="460"/>
		</contour>
	</outline>
</glyph>
<glyph name="florin" format="2">
	<advance width="370" height="0"/>
	<unicode hex="0192"/>
	<outline>
		<contour>
			<point x="48" y="-210" type="curve" smooth="yes"/>
			<point x="148" y="-210"/>
			<point x="198" y="-155"/>
			<point x="198" y="-45" type="curve" smooth="yes"/>
			<point x="198" y="452" type="line"/>
			<point x="335" y="452" type="line"/>
			<point x="335" y="530" type="line"/>
			<point x="198" y="530" type="line"/>
			<point x="198" y="540" type="line" smooth="yes"/>
			<point x="198" y="604"/>
			<point x="219" y="625"/>
			<point x="280" y="625" type="curve" smooth="yes"/>
			<point x="300" y="625"/>
			<point x="325" y="625"/>
			<point x="345" y="622" type="curve" name="hr01"/>
			<point x="345" y="702" type="line"/>
			<point x="315" y="704"/>
			<point x="290" y="705"/>
			<point x="270" y="705" type="curve" smooth="yes"/>
			<point x="159" y="705"/>
			<point x="110" y="651"/>
			<point x="110" y="540" type="curve" smooth="yes"/>
			<point x="110" y="530" type="line"/>
			<point x="35" y="530" type="line"/>
			<point x="35" y="452" type="line"/>
			<point x="110" y="452" type="line"/>
			<point x="110" y="-45" type="line" smooth="yes"/>
			<point x="110" y="-109"/>
			<point x="89" y="-130"/>
			<point x="38" y="-130" type="curve" smooth="yes"/>
			<point x="27" y="-130"/>
			<point x="4" y="-130"/>
			<point x="-7" y="-127" type="curve" name="hr01"/>
			<point x="-7" y="-207" type="line"/>
			<point x="13" y="-210"/>
			<point x="37" y="-210"/>
		</contour>
	</outline>
</glyph>
<glyph name="uni0302" format="2">
	<advance width="350" height="0"/>
	<unicode hex="0302"/>
	<anchor x="175" y="530" name="_top"/>
	<anchor x="175" y="740" name="top"/>
	<outline>
		<contour>
			<point x="20" y="580" type="line"/>
			<point x="90" y="580" type="line" name="ab01"/>
			<point x="175" y="671" type="line" name="ih01"/>
			<point x="260" y="580" type="line"/>
			<point x="330" y="580" type="line" name="ab02"/>
			<point x="220" y="740" type="line"/>
			<point x="130" y="740" type="line" name="sv01"/>
		</contour>
	</outline>
</glyph>
<glyph name="tildecomb" format="2">
	<advance width="340" height="0"/>
	<unicode hex="0303"/>
	<anchor x="170" y="530" name="_top"/>
	<anchor x="170" y="720" name="top"/>
	<outline>
		<contour>
			<point x="265" y="715" type="line"/>
			<point x="264" y="707"/>
			<point x="262" y="700"/>
			<point x="259" y="694" type="curve"/>
			<point x="254" y="683"/>
			<point x="245" y="674"/>
			<point x="230" y="674" type="curve" smooth="yes"/>
			<point x="195" y="674"/>
			<point x="170" y="720" name="hr01"/>
			<point x="110" y="720" type="curve" smooth="yes"/>
			<point x="71" y="720"/>
			<point x="50" y="695"/>
			<point x="37" y="670" type="curve"/>
			<point x="30" y="655"/>
			<point x="24" y="639"/>
			<point x="20" y="620" type="curve"/>
			<point x="75" y="605" type="line"/>
			<point x="76" y="612"/>
			<point x="78" y="619"/>
			<point x="81" y="625" type="curve"/>
			<point x="86" y="636"/>
			<point x="95" y="646"/>
			<point x="110" y="646" type="curve" smooth="yes"/>
			<point x="145" y="646"/>
			<point x="169" y="600" name="hr02"/>
			<point x="230" y="600" type="curve" smooth="yes"/>
			<point x="267" y="600"/>
			<point x="290" y="625"/>
			<point x="303" y="650" type="curve"/>
			<point x="310" y="665"/>
			<point x="316" y="681"/>
			<point x="320" y="700" type="curve"/>
		</contour>
	</outline>
</glyph>
<glyph name="uni0306" format="2">
	<advance width="340" height="0"/>
	<unicode hex="0306"/>
	<anchor x="170" y="530" name="_top"/>
	<anchor x="170" y="725" name="top"/>
	<outline>
		<contour>
			<point x="170" y="595" type="curve" smooth="yes"/>
			<point x="274" y="595" name="sv03"/>
			<point x="320" y="641" name="sv02"/>
			<point x="320" y="725" type="curve" name="iv01"/>
			<point x="236" y="725" type="line"/>
			<point x="236" y="680" name="sv01"/>
			<point x="214" y="657" name="ih01"/>
			<point x="170" y="657" type="curve" smooth="yes" name="hr01"/>
			<point x="127" y="657" name="ih02"/>
			<point x="106" y="680"/>
			<point x="106" y="725" type="curve" name="hr02"/>
			<point x="20" y="725" type="line"/>
			<point x="20" y="641"/>
			<point x="66" y="595"/>
		</contour>
	</outline>
</glyph>
<glyph name="uni0307" format="2">
	<advance width="160" height="0"/>
	<unicode hex="0307"/>
	<anchor x="80" y="530" name="_top"/>
	<anchor x="80" y="720" name="top"/>
	<outline>
		<contour>
			<point x="80" y="600" type="curve" smooth="yes"/>
			<point x="115" y="600"/>
			<point x="140" y="625" name="sv01"/>
			<point x="140" y="660" type="curve" smooth="yes"/>
			<point x="140" y="695" name="ih01"/>
			<point x="115" y="720" name="ih02"/>
			<point x="80" y="720" type="curve" smooth="yes" name="ih03"/>
			<point x="45" y="720"/>
			<point x="20" y="695"/>
			<point x="20" y="660" type="curve" smooth="yes"/>
			<point x="20" y="625"/>
			<point x="45" y="600"/>
		</contour>
	</outline>
</glyph>
<glyph name="uni0308" format="2">
	<advance width="360" height="0"/>
	<unicode hex="0308"/>
	<anchor x="180" y="530" name="_top"/>
	<anchor x="180" y="718" name="top"/>
	<outline>
		<contour>
			<point x="78" y="602" type="curve" smooth="yes"/>
			<point x="110" y="602"/>
			<point x="136" y="628"/>
			<point x="136" y="660" type="curve" smooth="yes"/>
			<point x="136" y="692"/>
			<point x="110" y="718"/>
			<point x="78" y="718" type="curve" smooth="yes"/>
			<point x="46" y="718"/>
			<point x="20" y="692"/>
			<point x="20" y="660" type="curve" smooth="yes"/>
			<point x="20" y="628"/>
			<point x="46" y="602"/>
		</contour>
		<contour>
			<point x="282" y="602" type="curve" smooth="yes"/>
			<point x="314" y="602"/>
			<point x="340" y="628"/>
			<point x="340" y="660" type="curve" smooth="yes"/>
			<point x="340" y="692"/>
			<point x="314" y="718"/>
			<point x="282" y="718" type="curve" smooth="yes"/>
			<point x="250" y="718"/>
			<point x="224" y="692"/>
			<point x="224" y="660" type="curve" smooth="yes"/>
			<point x="224" y="628"/>
			<point x="250" y="602"/>
		</contour>
	</outline>
</glyph>
<glyph name="uni030A" format="2">
	<advance width="270" height="0"/>
	<unicode hex="030A"/>
	<anchor x="135" y="530" name="_top"/>
	<anchor x="135" y="785" name="top"/>
	<outline>
		<contour>
			<point x="135" y="575" type="curve" smooth="yes"/>
			<point x="199" y="575"/>
			<point x="250" y="620" name="sv01"/>
			<point x="250" y="680" type="curve" smooth="yes"/>
			<point x="250" y="740" name="ih01"/>
			<point x="199" y="785"/>
			<point x="135" y="785" type="curve" smooth="yes"/>
			<point x="71" y="785" name="iv01"/>
			<point x="20" y="740"/>
			<point x="20" y="680" type="curve" smooth="yes" name="sh01"/>
			<point x="20" y="620" name="ih02"/>
			<point x="71" y="575" name="ih03"/>
		</contour>
		<contour>
			<point x="135" y="633" type="curve" smooth="yes"/>
			<point x="107" y="633"/>
			<point x="88" y="652"/>
			<point x="88" y="680" type="curve" smooth="yes"/>
			<point x="88" y="708"/>
			<point x="107" y="727"/>
			<point x="135" y="727" type="curve" smooth="yes"/>
			<point x="163" y="727"/>
			<point x="182" y="708"/>
			<point x="182" y="680" type="curve" smooth="yes"/>
			<point x="182" y="652"/>
			<point x="163" y="633"/>
		</contour>
	</outline>
</glyph>
<glyph name="uni030B" format="2">
	<advance width="520" height="0"/>
	<unicode hex="030B"/>
	<anchor x="192" y="530" name="_top"/>
	<anchor x="262" y="740" name="top"/>
	<outline>
		<contour>
			<point x="122" y="580" type="line"/>
			<point x="272" y="740" type="line" name="ih01"/>
			<point x="162" y="740" type="line" name="sv01"/>
			<point x="52" y="580" type="line" name="ab01"/>
		</contour>
		<contour>
			<point x="302" y="580" type="line"/>
			<point x="472" y="740" type="line" name="sv03"/>
			<point x="362" y="740" type="line" name="sv02"/>
			<point x="232" y="580" type="line" name="sh01"/>
		</contour>
	</outline>
</glyph>
<glyph name="uni030C" format="2">
	<advance width="350" height="0"/>
	<unicode hex="030C"/>
	<anchor x="175" y="530" name="_top"/>
	<anchor x="175" y="740" name="top"/>
	<outline>
		<contour>
			<point x="130" y="580" type="line"/>
			<point x="220" y="580" type="line" name="ab01"/>
			<point x="330" y="740" type="line" name="sv03"/>
			<point x="260" y="740" type="line" name="sv02"/>
			<point x="175" y="649" type="line" name="ih01"/>
			<point x="90" y="740" type="line"/>
			<point x="20" y="740" type="line" name="sv01"/>
		</contour>
	</outline>
</glyph>
<glyph name="uni0312" format="2">
	<advance width="135"/>
	<unicode hex="0312"/>
	<anchor x="0" y="530" name="_top"/>
	<outline>
		<contour>
			<point x="45" y="794" type="line" name="sv02"/>
			<point x="6" y="794" type="line" name="ih01"/>
			<point x="-45" y="704" type="line"/>
			<point x="-45" y="613" type="line"/>
			<point x="45" y="613" type="line" name="sv01"/>
		</contour>
	</outline>
</glyph>
<glyph name="uni0326" format="2">
	<advance width="230"/>
	<unicode hex="0326"/>
	<anchor x="115" y="0" name="_bottom"/>
	<outline>
		<contour>
			<point x="70" y="-226" type="line" name="sv02"/>
			<point x="109" y="-226" type="line" name="ih01"/>
			<point x="160" y="-136" type="line"/>
			<point x="160" y="-45" type="line"/>
			<point x="70" y="-45" type="line" name="sv01"/>
		</contour>
	</outline>
</glyph>
<glyph name="uni0327" format="2">
	<advance width="220" height="0"/>
	<unicode hex="0327"/>
	<anchor x="98" y="0" name="_bottom"/>
	<anchor x="110" y="-210" name="bottom"/>
	<outline>
		<contour>
			<point x="80" y="-210" type="curve" smooth="yes"/>
			<point x="163" y="-210"/>
			<point x="200" y="-172"/>
			<point x="200" y="-115" type="curve" smooth="yes"/>
			<point x="200" y="-85"/>
			<point x="189" y="-52"/>
			<point x="135" y="-38" type="curve"/>
			<point x="142" y="10" type="line"/>
			<point x="82" y="10" type="line"/>
			<point x="65" y="-79" type="line"/>
			<point x="114" y="-79"/>
			<point x="122" y="-97" name="hr01"/>
			<point x="122" y="-113" type="curve" smooth="yes"/>
			<point x="122" y="-132"/>
			<point x="107" y="-148"/>
			<point x="70" y="-148" type="curve" smooth="yes"/>
			<point x="55" y="-148"/>
			<point x="43" y="-147"/>
			<point x="34" y="-146" type="curve"/>
			<point x="20" y="-144" type="line" name="hr02"/>
			<point x="20" y="-204" type="line"/>
			<point x="27" y="-205"/>
			<point x="32" y="-206"/>
			<point x="39" y="-207" type="curve"/>
			<point x="50" y="-209"/>
			<point x="63" y="-210"/>
		</contour>
	</outline>
</glyph>
<glyph name="uni0328" format="2">
	<advance width="230"/>
	<unicode hex="0328"/>
	<guideline x="168" y="10" angle="270"/>
	<anchor x="168" y="0" name="_ogonek"/>
	<outline>
		<contour>
			<point x="123" y="-210" type="curve" smooth="yes"/>
			<point x="142" y="-210"/>
			<point x="158" y="-208"/>
			<point x="168" y="-206" type="curve"/>
			<point x="168" y="-146" type="line"/>
			<point x="163" y="-147"/>
			<point x="152" y="-148"/>
			<point x="141" y="-148" type="curve" smooth="yes"/>
			<point x="106" y="-148"/>
			<point x="91" y="-125"/>
			<point x="91" y="-97" type="curve" smooth="yes"/>
			<point x="91" y="-32" name="hr01"/>
			<point x="157" y="-7"/>
			<point x="168" y="0" type="curve" name="ab01"/>
			<point x="108" y="0" type="line"/>
			<point x="69" y="-16"/>
			<point x="13" y="-60"/>
			<point x="13" y="-122" type="curve" smooth="yes"/>
			<point x="13" y="-172"/>
			<point x="50" y="-210"/>
		</contour>
	</outline>
</glyph>
<glyph name="uni0402" format="2">
	<advance width="820" height="0"/>
	<unicode hex="0402"/>
	<outline>
		<contour>
			<point x="263" y="0" type="line" name="hr02"/>
			<point x="357" y="0" type="line"/>
			<point x="357" y="306" type="line"/>
			<point x="392" y="329"/>
			<point x="449" y="353"/>
			<point x="530" y="353" type="curve" smooth="yes"/>
			<point x="637" y="353"/>
			<point x="681" y="309"/>
			<point x="681" y="226" type="curve" smooth="yes"/>
			<point x="681" y="206" type="line" smooth="yes"/>
			<point x="681" y="123"/>
			<point x="637" y="79" name="hr01"/>
			<point x="530" y="79" type="curve" smooth="yes"/>
			<point x="519" y="79"/>
			<point x="501" y="79"/>
			<point x="490" y="82" type="curve"/>
			<point x="490" y="-2" type="line"/>
			<point x="501" y="-5"/>
			<point x="529" y="-5"/>
			<point x="540" y="-5" type="curve" smooth="yes"/>
			<point x="696" y="-5"/>
			<point x="775" y="74"/>
			<point x="775" y="206" type="curve" smooth="yes"/>
			<point x="775" y="226" type="line" smooth="yes"/>
			<point x="775" y="358"/>
			<point x="696" y="437"/>
			<point x="540" y="437" type="curve" smooth="yes"/>
			<point x="459" y="437"/>
			<point x="392" y="415"/>
			<point x="357" y="392" type="curve"/>
			<point x="357" y="618" type="line"/>
			<point x="600" y="618" type="line"/>
			<point x="600" y="700" type="line"/>
			<point x="20" y="700" type="line"/>
			<point x="20" y="618" type="line"/>
			<point x="263" y="618" type="line" name="hr01"/>
		</contour>
	</outline>
</glyph>
<glyph name="uni0404" format="2">
	<advance width="680" height="0"/>
	<unicode hex="0404"/>
	<outline>
		<contour>
			<point x="355" y="-10" type="curve" smooth="yes"/>
			<point x="496" y="-10" name="iv03"/>
			<point x="609" y="55"/>
			<point x="630" y="210" type="curve" name="sv03"/>
			<point x="530" y="210" type="line"/>
			<point x="518" y="130" name="sv02"/>
			<point x="459" y="74" name="iv02"/>
			<point x="355" y="74" type="curve" smooth="yes"/>
			<point x="270" y="74" name="sv01"/>
			<point x="171" y="127"/>
			<point x="160" y="315" type="curve" name="iv01"/>
			<point x="440" y="315" type="line" name="at01"/>
			<point x="440" y="395" type="line"/>
			<point x="160" y="395" type="line"/>
			<point x="168" y="572" name="ih01"/>
			<point x="263" y="626" name="ih02"/>
			<point x="355" y="626" type="curve" smooth="yes" name="ih03"/>
			<point x="450" y="626"/>
			<point x="511" y="581"/>
			<point x="530" y="490" type="curve" name="hr02"/>
			<point x="630" y="490" type="line"/>
			<point x="614" y="629"/>
			<point x="506" y="710"/>
			<point x="355" y="710" type="curve" smooth="yes"/>
			<point x="199" y="710"/>
			<point x="60" y="614"/>
			<point x="60" y="365" type="curve" smooth="yes"/>
			<point x="60" y="345" type="line" smooth="yes"/>
			<point x="60" y="86"/>
			<point x="199" y="-10"/>
		</contour>
	</outline>
</glyph>
<glyph name="uni0409" format="2">
	<advance width="1055" height="0"/>
	<unicode hex="0409"/>
	<outline>
		<contour>
			<point x="55" y="-10" type="curve" smooth="yes"/>
			<point x="180" y="-10"/>
			<point x="239" y="75"/>
			<point x="239" y="520" type="curve" smooth="yes" name="sv01"/>
			<point x="239" y="618" type="line" name="ih01"/>
			<point x="511" y="618" type="line" name="ab02"/>
			<point x="511" y="0" type="line"/>
			<point x="740" y="0" type="line" smooth="yes" name="iv02"/>
			<point x="925" y="0"/>
			<point x="1010" y="85"/>
			<point x="1010" y="210" type="curve" smooth="yes" name="at01"/>
			<point x="1010" y="335"/>
			<point x="925" y="420" name="iv01"/>
			<point x="740" y="420" type="curve" smooth="yes"/>
			<point x="605" y="420" type="line"/>
			<point x="605" y="700" type="line" name="ab01"/>
			<point x="145" y="700" type="line" name="hr01"/>
			<point x="145" y="540" type="line" smooth="yes" name="sh01"/>
			<point x="145" y="145" name="sv03"/>
			<point x="120" y="84"/>
			<point x="40" y="84" type="curve" smooth="yes" name="sv02"/>
			<point x="33" y="84" name="ih02"/>
			<point x="28" y="84" name="ih03"/>
			<point x="25" y="85" type="curve" name="hr01"/>
			<point x="25" y="-7" type="line"/>
			<point x="35" y="-9"/>
			<point x="45" y="-10"/>
		</contour>
		<contour>
			<point x="605" y="82" type="line"/>
			<point x="605" y="338" type="line"/>
			<point x="735" y="338" type="line" smooth="yes"/>
			<point x="868" y="338"/>
			<point x="916" y="291"/>
			<point x="916" y="210" type="curve" smooth="yes"/>
			<point x="916" y="129"/>
			<point x="868" y="82"/>
			<point x="735" y="82" type="curve" smooth="yes"/>
		</contour>
	</outline>
</glyph>
<glyph name="uni040A" format="2">
	<advance width="1105" height="0"/>
	<unicode hex="040A"/>
	<outline>
		<contour>
			<point x="100" y="0" type="line"/>
			<point x="194" y="0" type="line" name="ab02"/>
			<point x="194" y="329" type="line"/>
			<point x="556" y="329" type="line" name="sv02"/>
			<point x="556" y="0" type="line"/>
			<point x="790" y="0" type="line" smooth="yes" name="ab01"/>
			<point x="979" y="0"/>
			<point x="1060" y="79"/>
			<point x="1060" y="206" type="curve" smooth="yes" name="sv01"/>
			<point x="1060" y="331"/>
			<point x="979" y="411" name="at02"/>
			<point x="790" y="411" type="curve" smooth="yes" name="ih01"/>
			<point x="650" y="411" type="line"/>
			<point x="650" y="700" type="line"/>
			<point x="556" y="700" type="line" name="at01"/>
			<point x="556" y="411" type="line"/>
			<point x="194" y="411" type="line" name="sh01"/>
			<point x="194" y="700" type="line" name="sv04"/>
			<point x="100" y="700" type="line"/>
		</contour>
		<contour>
			<point x="650" y="82" type="line" name="sv03"/>
			<point x="650" y="329" type="line" name="ih02"/>
			<point x="785" y="329" type="line" smooth="yes" name="ih03"/>
			<point x="918" y="329"/>
			<point x="966" y="282"/>
			<point x="966" y="206" type="curve" smooth="yes"/>
			<point x="966" y="129"/>
			<point x="918" y="82"/>
			<point x="785" y="82" type="curve" smooth="yes"/>
		</contour>
	</outline>
</glyph>
<glyph name="uni040B" format="2">
	<advance width="835" height="0"/>
	<unicode hex="040B"/>
	<outline>
		<contour>
			<point x="263" y="0" type="line"/>
			<point x="357" y="0" type="line"/>
			<point x="357" y="306" type="line"/>
			<point x="392" y="329"/>
			<point x="447" y="353"/>
			<point x="530" y="353" type="curve" smooth="yes"/>
			<point x="638" y="353"/>
			<point x="681" y="310"/>
			<point x="681" y="205" type="curve" smooth="yes"/>
			<point x="681" y="0" type="line"/>
			<point x="775" y="0" type="line"/>
			<point x="775" y="205" type="line" smooth="yes"/>
			<point x="775" y="366"/>
			<point x="704" y="437"/>
			<point x="540" y="437" type="curve" smooth="yes"/>
			<point x="459" y="437"/>
			<point x="392" y="415"/>
			<point x="357" y="392" type="curve"/>
			<point x="357" y="618" type="line"/>
			<point x="600" y="618" type="line"/>
			<point x="600" y="700" type="line"/>
			<point x="20" y="700" type="line"/>
			<point x="20" y="618" type="line"/>
			<point x="263" y="618" type="line"/>
		</contour>
	</outline>
</glyph>
<glyph name="uni040F" format="2">
	<advance width="740" height="0"/>
	<unicode hex="040F"/>
	<outline>
		<contour>
			<point x="325" y="-130" type="line" name="hr02"/>
			<point x="415" y="-130" type="line" name="av01"/>
			<point x="415" y="0" type="line" name="hr01"/>
			<point x="640" y="0" type="line" name="ab01"/>
			<point x="640" y="700" type="line"/>
			<point x="546" y="700" type="line" name="at02"/>
			<point x="546" y="82" type="line"/>
			<point x="194" y="82" type="line" name="sv01"/>
			<point x="194" y="700" type="line"/>
			<point x="100" y="700" type="line" name="at01"/>
			<point x="100" y="0" type="line"/>
			<point x="325" y="0" type="line" name="hr02"/>
		</contour>
	</outline>
</glyph>
<glyph name="uni0411" format="2">
	<advance width="665" height="0"/>
	<unicode hex="0411"/>
	<outline>
		<contour>
			<point x="100" y="0" type="line"/>
			<point x="350" y="0" type="line" smooth="yes" name="ab01"/>
			<point x="535" y="0"/>
			<point x="620" y="85" name="sh01"/>
			<point x="620" y="210" type="curve" smooth="yes"/>
			<point x="620" y="335"/>
			<point x="535" y="420" name="sv01"/>
			<point x="350" y="420" type="curve" smooth="yes"/>
			<point x="194" y="420" type="line" name="at01"/>
			<point x="194" y="619" type="line"/>
			<point x="555" y="619" type="line"/>
			<point x="555" y="700" type="line" name="sv02"/>
			<point x="100" y="700" type="line"/>
		</contour>
		<contour>
			<point x="194" y="82" type="line" name="ih01"/>
			<point x="194" y="338" type="line" name="ih02"/>
			<point x="345" y="338" type="line" smooth="yes" name="ih03"/>
			<point x="478" y="338"/>
			<point x="526" y="291"/>
			<point x="526" y="210" type="curve" smooth="yes"/>
			<point x="526" y="129"/>
			<point x="478" y="82"/>
			<point x="345" y="82" type="curve" smooth="yes"/>
		</contour>
	</outline>
</glyph>
<glyph name="uni0416" format="2">
	<advance width="960" height="0"/>
	<unicode hex="0416"/>
	<anchor x="940" y="0" name="bottomright"/>
	<anchor x="480" y="700" name="top"/>
	<outline>
		<contour>
			<point x="30" y="0" type="line"/>
			<point x="138" y="0" type="line" name="ab03"/>
			<point x="363" y="321" type="line"/>
			<point x="433" y="321" type="line" name="sv04"/>
			<point x="433" y="0" type="line"/>
			<point x="527" y="0" type="line" name="ab02"/>
			<point x="527" y="321" type="line"/>
			<point x="597" y="321" type="line" name="sv01"/>
			<point x="820" y="0" type="line"/>
			<point x="930" y="0" type="line" name="ab01"/>
			<point x="672" y="367" type="line" name="iv02"/>
			<point x="920" y="700" type="line"/>
			<point x="818" y="700" type="line" name="at03"/>
			<point x="597" y="399" type="line" name="iv01"/>
			<point x="527" y="399" type="line"/>
			<point x="527" y="700" type="line"/>
			<point x="433" y="700" type="line" name="at02"/>
			<point x="433" y="399" type="line" name="ih01"/>
			<point x="363" y="399" type="line" name="sv03"/>
			<point x="144" y="700" type="line"/>
			<point x="40" y="700" type="line" name="at01"/>
			<point x="288" y="364" type="line" name="sv02"/>
		</contour>
	</outline>
</glyph>
<glyph name="uni0417" format="2">
	<advance width="640" height="0"/>
	<unicode hex="0417"/>
	<anchor x="320" y="0" name="bottom"/>
	<anchor x="320" y="700" name="top"/>
	<outline>
		<contour>
			<point x="321" y="-10" type="curve" smooth="yes"/>
			<point x="496" y="-10"/>
			<point x="591" y="77" name="iv04"/>
			<point x="591" y="196" type="curve" smooth="yes"/>
			<point x="591" y="287" name="at01"/>
			<point x="535" y="345" name="iv03"/>
			<point x="451" y="365" type="curve"/>
			<point x="520" y="388" name="sv03"/>
			<point x="566" y="441" name="hr01"/>
			<point x="566" y="514" type="curve" smooth="yes" name="iv02"/>
			<point x="566" y="631"/>
			<point x="482" y="710"/>
			<point x="321" y="710" type="curve" smooth="yes" name="sv02"/>
			<point x="160" y="710"/>
			<point x="77" y="628" name="sv01"/>
			<point x="66" y="515" type="curve"/>
			<point x="160" y="515" type="line" name="iv01"/>
			<point x="168" y="582" name="ih01"/>
			<point x="214" y="626" name="ih02"/>
			<point x="321" y="626" type="curve" smooth="yes" name="ih03"/>
			<point x="421" y="626"/>
			<point x="472" y="581"/>
			<point x="472" y="514" type="curve" smooth="yes"/>
			<point x="472" y="447"/>
			<point x="426" y="399"/>
			<point x="326" y="399" type="curve" smooth="yes"/>
			<point x="231" y="399" type="line"/>
			<point x="231" y="321" type="line"/>
			<point x="326" y="321" type="line" smooth="yes"/>
			<point x="447" y="321"/>
			<point x="497" y="268" name="hr03"/>
			<point x="497" y="196" type="curve" smooth="yes" name="hr01"/>
			<point x="497" y="121"/>
			<point x="445" y="74"/>
			<point x="321" y="74" type="curve" smooth="yes"/>
			<point x="220" y="74"/>
			<point x="156" y="124"/>
			<point x="145" y="200" type="curve" name="hr02"/>
			<point x="51" y="200" type="line"/>
			<point x="62" y="77"/>
			<point x="158" y="-10"/>
		</contour>
	</outline>
</glyph>
<glyph name="uni041A" format="2">
	<advance width="700" height="0"/>
	<unicode hex="041A"/>
	<anchor x="680" y="0" name="bottomright"/>
	<anchor x="372" y="700" name="top"/>
	<outline>
		<contour>
			<point x="100" y="0" type="line"/>
			<point x="194" y="0" type="line" name="ab02"/>
			<point x="194" y="321" type="line" name="sv01"/>
			<point x="274" y="321" type="line"/>
			<point x="550" y="0" type="line"/>
			<point x="670" y="0" type="line" name="ab01"/>
			<point x="354" y="366" type="line" name="ih01"/>
			<point x="660" y="700" type="line"/>
			<point x="548" y="700" type="line" name="at02"/>
			<point x="274" y="399" type="line"/>
			<point x="194" y="399" type="line" name="iv01"/>
			<point x="194" y="700" type="line"/>
			<point x="100" y="700" type="line" name="at01"/>
		</contour>
	</outline>
</glyph>
<glyph name="uni0423" format="2">
	<advance width="670" height="0"/>
	<unicode hex="0423"/>
	<anchor x="335" y="700" name="top"/>
	<outline>
		<contour>
			<point x="205" y="-10" type="curve" smooth="yes"/>
			<point x="304" y="-10"/>
			<point x="349" y="35"/>
			<point x="395" y="137" type="curve" smooth="yes"/>
			<point x="650" y="700" type="line"/>
			<point x="554" y="700" type="line"/>
			<point x="356" y="255" type="line"/>
			<point x="122" y="700" type="line"/>
			<point x="20" y="700" type="line"/>
			<point x="309" y="158" type="line"/>
			<point x="280" y="90"/>
			<point x="262" y="74"/>
			<point x="205" y="74" type="curve" smooth="yes"/>
			<point x="190" y="74"/>
			<point x="176" y="75"/>
			<point x="165" y="76" type="curve"/>
			<point x="165" y="-8" type="line"/>
			<point x="176" y="-9"/>
			<point x="190" y="-10"/>
		</contour>
	</outline>
</glyph>
<glyph name="uni0424" format="2">
	<advance width="860" height="0"/>
	<unicode hex="0424"/>
	<outline>
		<contour>
			<point x="383" y="-30" type="line"/>
			<point x="477" y="-30" type="line" name="av01"/>
			<point x="477" y="43" type="line" name="sv02"/>
			<point x="682" y="43"/>
			<point x="805" y="166"/>
			<point x="805" y="350" type="curve" smooth="yes" name="iv01"/>
			<point x="805" y="370" type="line" smooth="yes"/>
			<point x="805" y="534" name="av02"/>
			<point x="682" y="657" name="sv01"/>
			<point x="477" y="657" type="curve"/>
			<point x="477" y="730" type="line"/>
			<point x="383" y="730" type="line" name="ih01"/>
			<point x="383" y="657" type="line"/>
			<point x="178" y="657" name="sv03"/>
			<point x="55" y="534" name="sh01"/>
			<point x="55" y="370" type="curve" smooth="yes"/>
			<point x="55" y="350" type="line" smooth="yes"/>
			<point x="55" y="166" name="sv04"/>
			<point x="178" y="43" name="sh02"/>
			<point x="383" y="43" type="curve"/>
		</contour>
		<contour>
			<point x="705" y="350" type="line" name="ih02"/>
			<point x="705" y="215" name="ih03"/>
			<point x="624" y="127"/>
			<point x="477" y="127" type="curve"/>
			<point x="477" y="573" type="line"/>
			<point x="624" y="573"/>
			<point x="705" y="485"/>
			<point x="705" y="370" type="curve" smooth="yes"/>
		</contour>
		<contour>
			<point x="155" y="370" type="line"/>
			<point x="155" y="485"/>
			<point x="236" y="573"/>
			<point x="383" y="573" type="curve"/>
			<point x="383" y="127" type="line"/>
			<point x="236" y="127"/>
			<point x="155" y="215"/>
			<point x="155" y="350" type="curve" smooth="yes"/>
		</contour>
	</outline>
</glyph>
<glyph name="uni042B" format="2">
	<advance width="890" height="0"/>
	<unicode hex="042B"/>
	<anchor x="445" y="700" name="top"/>
	<outline>
		<contour>
			<point x="100" y="0" type="line"/>
			<point x="320" y="0" type="line" smooth="yes"/>
			<point x="505" y="0"/>
			<point x="590" y="85"/>
			<point x="590" y="210" type="curve" smooth="yes"/>
			<point x="590" y="335"/>
			<point x="505" y="420"/>
			<point x="320" y="420" type="curve" smooth="yes"/>
			<point x="194" y="420" type="line"/>
			<point x="194" y="700" type="line"/>
			<point x="100" y="700" type="line"/>
		</contour>
		<contour>
			<point x="194" y="82" type="line"/>
			<point x="194" y="338" type="line"/>
			<point x="315" y="338" type="line" smooth="yes"/>
			<point x="448" y="338"/>
			<point x="496" y="291"/>
			<point x="496" y="210" type="curve" smooth="yes"/>
			<point x="496" y="129"/>
			<point x="448" y="82"/>
			<point x="315" y="82" type="curve" smooth="yes"/>
		</contour>
		<contour>
			<point x="696" y="0" type="line"/>
			<point x="790" y="0" type="line"/>
			<point x="790" y="700" type="line"/>
			<point x="696" y="700" type="line"/>
		</contour>
	</outline>
</glyph>
<glyph name="uni042D" format="2">
	<advance width="680" height="0"/>
	<unicode hex="042D"/>
	<anchor x="340" y="700" name="top"/>
	<outline>
		<contour>
			<point x="325" y="-10" type="curve" smooth="yes"/>
			<point x="481" y="-10"/>
			<point x="620" y="86"/>
			<point x="620" y="345" type="curve" smooth="yes" name="at01"/>
			<point x="620" y="365" type="line" smooth="yes" name="iv03"/>
			<point x="620" y="614"/>
			<point x="481" y="710" name="sv03"/>
			<point x="325" y="710" type="curve" smooth="yes" name="iv02"/>
			<point x="174" y="710"/>
			<point x="66" y="629"/>
			<point x="50" y="490" type="curve" name="sv02"/>
			<point x="150" y="490" type="line" name="sv01"/>
			<point x="169" y="581"/>
			<point x="230" y="626" name="iv01"/>
			<point x="325" y="626" type="curve" smooth="yes" name="ih01"/>
			<point x="418" y="626" name="ih02"/>
			<point x="511" y="572" name="ih03"/>
			<point x="519" y="395" type="curve"/>
			<point x="240" y="395" type="line"/>
			<point x="240" y="315" type="line"/>
			<point x="519" y="315" type="line"/>
			<point x="511" y="127"/>
			<point x="408" y="74"/>
			<point x="325" y="74" type="curve" smooth="yes"/>
			<point x="221" y="74"/>
			<point x="162" y="130"/>
			<point x="150" y="210" type="curve" name="hr01"/>
			<point x="50" y="210" type="line"/>
			<point x="71" y="55"/>
			<point x="184" y="-10"/>
		</contour>
	</outline>
</glyph>
<glyph name="uni042E" format="2">
	<advance width="950" height="0"/>
	<unicode hex="042E"/>
	<anchor x="475" y="700" name="top"/>
	<outline>
		<contour>
			<point x="100" y="0" type="line"/>
			<point x="194" y="0" type="line"/>
			<point x="194" y="319" type="line"/>
			<point x="326" y="319" type="line"/>
			<point x="334" y="83"/>
			<point x="456" y="-10" name="hr01"/>
			<point x="605" y="-10" type="curve" smooth="yes"/>
			<point x="761" y="-10"/>
			<point x="890" y="90"/>
			<point x="890" y="345" type="curve" smooth="yes"/>
			<point x="890" y="365" type="line" smooth="yes"/>
			<point x="890" y="610"/>
			<point x="761" y="710"/>
			<point x="605" y="710" type="curve" smooth="yes"/>
			<point x="458" y="710"/>
			<point x="338" y="620"/>
			<point x="327" y="401" type="curve"/>
			<point x="194" y="401" type="line"/>
			<point x="194" y="700" type="line" name="hr01"/>
			<point x="100" y="700" type="line"/>
		</contour>
		<contour>
			<point x="605" y="74" type="curve" smooth="yes" name="hr03"/>
			<point x="505" y="74"/>
			<point x="420" y="150"/>
			<point x="420" y="345" type="curve" smooth="yes"/>
			<point x="420" y="365" type="line" smooth="yes"/>
			<point x="420" y="549"/>
			<point x="505" y="626"/>
			<point x="605" y="626" type="curve" smooth="yes"/>
			<point x="705" y="626"/>
			<point x="790" y="549"/>
			<point x="790" y="365" type="curve" smooth="yes"/>
			<point x="790" y="345" type="line" smooth="yes"/>
			<point x="790" y="150"/>
			<point x="705" y="74"/>
		</contour>
	</outline>
</glyph>
<glyph name="uni042F" format="2">
	<advance width="685" height="0"/>
	<unicode hex="042F"/>
	<anchor x="343" y="700" name="top"/>
	<outline>
		<contour>
			<point x="45" y="0" type="line"/>
			<point x="151" y="0" type="line" name="ab02"/>
			<point x="329" y="282" type="line"/>
			<point x="491" y="282" type="line" name="sv01"/>
			<point x="491" y="0" type="line"/>
			<point x="585" y="0" type="line" name="ab01"/>
			<point x="585" y="700" type="line"/>
			<point x="340" y="700" type="line" smooth="yes" name="ih01"/>
			<point x="165" y="700"/>
			<point x="75" y="610" name="sv02"/>
			<point x="75" y="490" type="curve" smooth="yes"/>
			<point x="75" y="398"/>
			<point x="129" y="323" name="sv03"/>
			<point x="237" y="294" type="curve" name="iv01"/>
		</contour>
		<contour>
			<point x="169" y="490" type="curve" smooth="yes" name="sh01"/>
			<point x="169" y="566"/>
			<point x="221" y="618" name="ih02"/>
			<point x="350" y="618" type="curve" smooth="yes" name="ih03"/>
			<point x="491" y="618" type="line"/>
			<point x="491" y="362" type="line"/>
			<point x="350" y="362" type="line" smooth="yes"/>
			<point x="221" y="362"/>
			<point x="169" y="414"/>
		</contour>
	</outline>
</glyph>
<glyph name="uni0431" format="2">
	<advance width="595" height="0"/>
	<unicode hex="0431"/>
	<outline>
		<contour>
			<point x="300" y="-10" type="curve" smooth="yes"/>
			<point x="444" y="-10"/>
			<point x="550" y="96"/>
			<point x="550" y="260" type="curve" smooth="yes" name="at02"/>
			<point x="550" y="280" type="line" smooth="yes" name="iv01"/>
			<point x="550" y="435" name="sv02"/>
			<point x="455" y="530"/>
			<point x="320" y="530" type="curve" smooth="yes" name="sv01"/>
			<point x="232" y="530" name="at01"/>
			<point x="162" y="486"/>
			<point x="130" y="415" type="curve"/>
			<point x="141" y="564" name="ih01"/>
			<point x="207" y="616"/>
			<point x="335" y="619" type="curve" smooth="yes"/>
			<point x="434" y="622"/>
			<point x="489" y="628" name="sv03"/>
			<point x="510" y="640" type="curve"/>
			<point x="510" y="725" type="line"/>
			<point x="466" y="702" name="sh01"/>
			<point x="404" y="704" name="ih02"/>
			<point x="320" y="700" type="curve" smooth="yes" name="ih03"/>
			<point x="113" y="689"/>
			<point x="50" y="549"/>
			<point x="50" y="310" type="curve" smooth="yes"/>
			<point x="50" y="290" type="line" smooth="yes"/>
			<point x="50" y="100"/>
			<point x="160" y="-10"/>
		</contour>
		<contour>
			<point x="300" y="70" type="curve" smooth="yes"/>
			<point x="212" y="70"/>
			<point x="140" y="142"/>
			<point x="140" y="260" type="curve" smooth="yes"/>
			<point x="140" y="280" type="line" smooth="yes"/>
			<point x="140" y="383"/>
			<point x="207" y="450"/>
			<point x="300" y="450" type="curve" smooth="yes"/>
			<point x="393" y="450"/>
			<point x="460" y="383"/>
			<point x="460" y="280" type="curve" smooth="yes"/>
			<point x="460" y="260" type="line" smooth="yes"/>
			<point x="460" y="136"/>
			<point x="393" y="70"/>
		</contour>
	</outline>
</glyph>
<glyph name="uni0434" format="2">
	<advance width="605" height="0"/>
	<unicode hex="0434"/>
	<outline>
		<contour>
			<point x="20" y="-125" type="line"/>
			<point x="104" y="-125" type="line"/>
			<point x="104" y="0" type="line" name="hr01"/>
			<point x="496" y="0" type="line"/>
			<point x="496" y="-125" type="line" name="hr02"/>
			<point x="580" y="-125" type="line"/>
			<point x="580" y="78" type="line"/>
			<point x="505" y="78" type="line" name="hr03"/>
			<point x="505" y="530" type="line"/>
			<point x="135" y="530" type="line"/>
			<point x="135" y="390" type="line" smooth="yes"/>
			<point x="135" y="252"/>
			<point x="114" y="118"/>
			<point x="85" y="78" type="curve"/>
			<point x="20" y="78" type="line"/>
		</contour>
		<contour>
			<point x="175" y="78" type="line"/>
			<point x="205" y="146"/>
			<point x="221" y="258"/>
			<point x="221" y="370" type="curve" smooth="yes"/>
			<point x="221" y="452" type="line"/>
			<point x="417" y="452" type="line"/>
			<point x="417" y="78" type="line"/>
		</contour>
	</outline>
</glyph>
<glyph name="uni0436" format="2">
	<advance width="800" height="0"/>
	<unicode hex="0436"/>
	<anchor x="780" y="0" name="bottomright"/>
	<anchor x="400" y="530" name="top"/>
	<outline>
		<contour>
			<point x="25" y="0" type="line"/>
			<point x="127" y="0" type="line" name="ab03"/>
			<point x="295" y="232" type="line"/>
			<point x="356" y="232" type="line" name="sv04"/>
			<point x="356" y="0" type="line"/>
			<point x="444" y="0" type="line" name="ab02"/>
			<point x="444" y="232" type="line"/>
			<point x="504" y="232" type="line" name="sv01"/>
			<point x="671" y="0" type="line"/>
			<point x="775" y="0" type="line" name="ab01"/>
			<point x="575" y="276" type="line" name="iv02"/>
			<point x="765" y="530" type="line"/>
			<point x="669" y="530" type="line" name="at03"/>
			<point x="504" y="308" type="line" name="iv01"/>
			<point x="444" y="308" type="line"/>
			<point x="444" y="530" type="line"/>
			<point x="356" y="530" type="line" name="at02"/>
			<point x="356" y="308" type="line" name="ih01"/>
			<point x="295" y="308" type="line" name="sv03"/>
			<point x="133" y="530" type="line"/>
			<point x="35" y="530" type="line" name="at01"/>
			<point x="225" y="273" type="line" name="sv02"/>
		</contour>
	</outline>
</glyph>
<glyph name="uni0437" format="2">
	<advance width="525" height="0"/>
	<unicode hex="0437"/>
	<anchor x="263" y="0" name="bottom"/>
	<anchor x="263" y="530" name="top"/>
	<outline>
		<contour>
			<point x="260" y="-10" type="curve" smooth="yes"/>
			<point x="405" y="-10"/>
			<point x="480" y="63" name="iv04"/>
			<point x="480" y="150" type="curve" smooth="yes"/>
			<point x="480" y="209" name="at01"/>
			<point x="455" y="255" name="iv03"/>
			<point x="380" y="275" type="curve"/>
			<point x="436" y="296" name="sv03"/>
			<point x="460" y="335" name="hr01"/>
			<point x="460" y="386" type="curve" smooth="yes" name="iv02"/>
			<point x="460" y="476"/>
			<point x="396" y="540"/>
			<point x="260" y="540" type="curve" smooth="yes" name="sv02"/>
			<point x="135" y="540"/>
			<point x="58" y="474" name="sv01"/>
			<point x="50" y="385" type="curve"/>
			<point x="138" y="385" type="line" name="iv01"/>
			<point x="146" y="433" name="ih01"/>
			<point x="179" y="460" name="ih02"/>
			<point x="260" y="460" type="curve" smooth="yes" name="ih03"/>
			<point x="335" y="460"/>
			<point x="372" y="426"/>
			<point x="372" y="386" type="curve" smooth="yes"/>
			<point x="372" y="335"/>
			<point x="343" y="306"/>
			<point x="270" y="306" type="curve" smooth="yes"/>
			<point x="185" y="306" type="line"/>
			<point x="185" y="234" type="line"/>
			<point x="276" y="234" type="line" smooth="yes"/>
			<point x="361" y="234"/>
			<point x="392" y="202" name="hr03"/>
			<point x="392" y="150" type="curve" smooth="yes" name="hr01"/>
			<point x="392" y="106"/>
			<point x="352" y="70" name="hr04"/>
			<point x="260" y="70" type="curve" smooth="yes" name="hr02"/>
			<point x="185" y="70"/>
			<point x="137" y="98"/>
			<point x="128" y="150" type="curve" name="hr03"/>
			<point x="40" y="150" type="line"/>
			<point x="48" y="49"/>
			<point x="127" y="-10"/>
		</contour>
	</outline>
</glyph>
<glyph name="uni043A" format="2">
	<advance width="575" height="0"/>
	<unicode hex="043A"/>
	<anchor x="555" y="0" name="bottomright"/>
	<anchor x="301" y="530" name="top"/>
	<outline>
		<contour>
			<point x="80" y="0" type="line"/>
			<point x="168" y="0" type="line" name="ab02"/>
			<point x="168" y="232" type="line" name="sv01"/>
			<point x="238" y="232" type="line"/>
			<point x="438" y="0" type="line"/>
			<point x="550" y="0" type="line" name="ab01"/>
			<point x="310" y="276" type="line" name="ih01"/>
			<point x="540" y="530" type="line"/>
			<point x="436" y="530" type="line" name="at02"/>
			<point x="238" y="308" type="line"/>
			<point x="168" y="308" type="line" name="iv01"/>
			<point x="168" y="530" type="line"/>
			<point x="80" y="530" type="line" name="at01"/>
		</contour>
	</outline>
</glyph>
<glyph name="uni043C" format="2">
	<advance width="720" height="0"/>
	<unicode hex="043C"/>
	<outline>
		<contour>
			<point x="80" y="0" type="line"/>
			<point x="168" y="0" type="line" name="ab02"/>
			<point x="168" y="385" type="line" name="iv03"/>
			<point x="325" y="115" type="line" name="iv01"/>
			<point x="395" y="115" type="line"/>
			<point x="552" y="385" type="line" name="iv02"/>
			<point x="552" y="0" type="line"/>
			<point x="640" y="0" type="line" name="ab01"/>
			<point x="640" y="530" type="line"/>
			<point x="552" y="530" type="line" name="at02"/>
			<point x="363" y="200" type="line" name="ih01"/>
			<point x="174" y="530" type="line"/>
			<point x="80" y="530" type="line" name="at01"/>
		</contour>
	</outline>
</glyph>
<glyph name="uni0444" format="2">
	<advance width="740" height="0"/>
	<unicode hex="0444"/>
	<outline>
		<contour>
			<point x="326" y="-200" type="line"/>
			<point x="414" y="-200" type="line" name="ab01"/>
			<point x="414" y="-10" type="line" name="ab02"/>
			<point x="598" y="-10"/>
			<point x="695" y="87"/>
			<point x="695" y="259" type="curve" smooth="yes" name="at03"/>
			<point x="695" y="279" type="line" smooth="yes"/>
			<point x="695" y="443" name="at01"/>
			<point x="598" y="540" name="at02"/>
			<point x="414" y="540" type="curve"/>
			<point x="414" y="700" type="line"/>
			<point x="326" y="700" type="line" name="sh01"/>
			<point x="326" y="540" type="line"/>
			<point x="142" y="540" name="sv01"/>
			<point x="45" y="443" name="ih01"/>
			<point x="45" y="279" type="curve" smooth="yes"/>
			<point x="45" y="259" type="line" smooth="yes"/>
			<point x="45" y="87" name="sv02"/>
			<point x="142" y="-10" name="sh02"/>
			<point x="326" y="-10" type="curve"/>
		</contour>
		<contour>
			<point x="605" y="259" type="line" name="ih02"/>
			<point x="605" y="130" name="ih03"/>
			<point x="545" y="70"/>
			<point x="413" y="70" type="curve"/>
			<point x="413" y="460" type="line"/>
			<point x="545" y="460"/>
			<point x="605" y="400"/>
			<point x="605" y="279" type="curve" smooth="yes"/>
		</contour>
		<contour>
			<point x="135" y="279" type="line"/>
			<point x="135" y="400"/>
			<point x="195" y="460"/>
			<point x="327" y="460" type="curve"/>
			<point x="327" y="70" type="line"/>
			<point x="195" y="70"/>
			<point x="135" y="130"/>
			<point x="135" y="259" type="curve" smooth="yes"/>
		</contour>
	</outline>
</glyph>
<glyph name="uni0449" format="2">
	<advance width="840" height="0"/>
	<unicode hex="0449"/>
	<outline>
		<contour>
			<point x="731" y="-125" type="line" name="hr02"/>
			<point x="815" y="-125" type="line" name="av01"/>
			<point x="815" y="78" type="line" name="sv05"/>
			<point x="730" y="78" type="line" name="sv04"/>
			<point x="730" y="530" type="line"/>
			<point x="642" y="530" type="line" name="at03"/>
			<point x="642" y="78" type="line" name="sv03"/>
			<point x="449" y="78" type="line" name="sv02"/>
			<point x="449" y="530" type="line" name="ih01"/>
			<point x="361" y="530" type="line" name="at02"/>
			<point x="361" y="78" type="line"/>
			<point x="168" y="78" type="line" name="sv01"/>
			<point x="168" y="530" type="line"/>
			<point x="80" y="530" type="line" name="at01"/>
			<point x="80" y="0" type="line" name="hr01"/>
			<point x="731" y="0" type="line" name="hr02"/>
		</contour>
	</outline>
</glyph>
<glyph name="uni044B" format="2">
	<advance width="730"/>
	<unicode hex="044B"/>
	<outline>
		<contour>
			<point x="80" y="0" type="line"/>
			<point x="275" y="0" type="line" smooth="yes"/>
			<point x="408" y="0"/>
			<point x="470" y="63"/>
			<point x="470" y="164" type="curve" smooth="yes"/>
			<point x="470" y="268"/>
			<point x="408" y="330"/>
			<point x="275" y="330" type="curve" smooth="yes"/>
			<point x="168" y="330" type="line"/>
			<point x="168" y="530" type="line"/>
			<point x="80" y="530" type="line"/>
		</contour>
		<contour>
			<point x="168" y="78" type="line"/>
			<point x="168" y="252" type="line"/>
			<point x="270" y="252" type="line" smooth="yes"/>
			<point x="353" y="252"/>
			<point x="382" y="222"/>
			<point x="382" y="165" type="curve" smooth="yes"/>
			<point x="382" y="108"/>
			<point x="353" y="78"/>
			<point x="270" y="78" type="curve" smooth="yes"/>
		</contour>
		<contour>
			<point x="552" y="0" type="line"/>
			<point x="640" y="0" type="line"/>
			<point x="640" y="530" type="line"/>
			<point x="552" y="530" type="line"/>
		</contour>
	</outline>
</glyph>
<glyph name="uni044C" format="2">
	<advance width="525" height="0"/>
	<unicode hex="044C"/>
	<outline>
		<contour>
			<point x="80" y="0" type="line"/>
			<point x="295" y="0" type="line" smooth="yes" name="ab01"/>
			<point x="428" y="0"/>
			<point x="490" y="63" name="sh01"/>
			<point x="490" y="164" type="curve" smooth="yes"/>
			<point x="490" y="268"/>
			<point x="428" y="330" name="at01"/>
			<point x="295" y="330" type="curve" smooth="yes"/>
			<point x="168" y="330" type="line"/>
			<point x="168" y="530" type="line" name="sv01"/>
			<point x="80" y="530" type="line"/>
		</contour>
		<contour>
			<point x="168" y="78" type="line" name="ih01"/>
			<point x="168" y="252" type="line" name="ih02"/>
			<point x="290" y="252" type="line" smooth="yes" name="ih03"/>
			<point x="373" y="252"/>
			<point x="402" y="222"/>
			<point x="402" y="165" type="curve" smooth="yes"/>
			<point x="402" y="108"/>
			<point x="373" y="78"/>
			<point x="290" y="78" type="curve" smooth="yes"/>
		</contour>
	</outline>
</glyph>
<glyph name="uni044D" format="2">
	<advance width="545" height="0"/>
	<unicode hex="044D"/>
	<anchor x="273" y="530" name="top"/>
	<outline>
		<contour>
			<point x="260" y="-10" type="curve" smooth="yes"/>
			<point x="400" y="-10"/>
			<point x="500" y="78"/>
			<point x="500" y="260" type="curve" smooth="yes" name="at01"/>
			<point x="500" y="280" type="line" smooth="yes" name="iv03"/>
			<point x="500" y="452"/>
			<point x="395" y="540" name="sv03"/>
			<point x="260" y="540" type="curve" smooth="yes" name="iv02"/>
			<point x="136" y="540"/>
			<point x="59" y="466"/>
			<point x="40" y="370" type="curve" name="sv02"/>
			<point x="130" y="370" type="line" name="sv01"/>
			<point x="149" y="421"/>
			<point x="186" y="460" name="iv01"/>
			<point x="260" y="460" type="curve" smooth="yes" name="ih01"/>
			<point x="340" y="460" name="ih02"/>
			<point x="400" y="416" name="ih03"/>
			<point x="409" y="309" type="curve"/>
			<point x="200" y="309" type="line"/>
			<point x="200" y="231" type="line"/>
			<point x="409" y="231" type="line"/>
			<point x="401" y="115"/>
			<point x="338" y="70"/>
			<point x="260" y="70" type="curve" smooth="yes"/>
			<point x="195" y="70"/>
			<point x="149" y="104"/>
			<point x="130" y="160" type="curve" name="hr01"/>
			<point x="40" y="160" type="line"/>
			<point x="65" y="55"/>
			<point x="149" y="-10"/>
		</contour>
	</outline>
</glyph>
<glyph name="uni044F" format="2">
	<advance width="570" height="0"/>
	<unicode hex="044F"/>
	<anchor x="285" y="530" name="top"/>
	<outline>
		<contour>
			<point x="40" y="0" type="line"/>
			<point x="138" y="0" type="line" name="ab02"/>
			<point x="267" y="202" type="line" name="ih01"/>
			<point x="402" y="202" type="line" name="sv01"/>
			<point x="402" y="0" type="line"/>
			<point x="490" y="0" type="line" name="ab01"/>
			<point x="490" y="530" type="line"/>
			<point x="260" y="530" type="line" smooth="yes" name="at01"/>
			<point x="120" y="530"/>
			<point x="60" y="470" name="sv02"/>
			<point x="60" y="366" type="curve" smooth="yes"/>
			<point x="60" y="283"/>
			<point x="96" y="230" name="sv03"/>
			<point x="184" y="210" type="curve" name="iv01"/>
		</contour>
		<contour>
			<point x="148" y="366" type="curve" smooth="yes" name="sh01"/>
			<point x="148" y="422"/>
			<point x="178" y="452" name="ih02"/>
			<point x="255" y="452" type="curve" smooth="yes" name="ih03"/>
			<point x="402" y="452" type="line"/>
			<point x="402" y="280" type="line"/>
			<point x="255" y="280" type="line" smooth="yes"/>
			<point x="178" y="280"/>
			<point x="148" y="310"/>
		</contour>
	</outline>
</glyph>
<glyph name="uni0452" format="2">
	<advance width="620" height="0"/>
	<unicode hex="0452"/>
	<outline>
		<contour>
			<point x="110" y="0" type="line"/>
			<point x="198" y="0" type="line"/>
			<point x="198" y="170" type="line" smooth="yes"/>
			<point x="198" y="245"/>
			<point x="242" y="320"/>
			<point x="342" y="320" type="curve" smooth="yes"/>
			<point x="434" y="320"/>
			<point x="472" y="269"/>
			<point x="472" y="170" type="curve" smooth="yes"/>
			<point x="472" y="0" type="line" smooth="yes"/>
			<point x="472" y="-106"/>
			<point x="453" y="-130"/>
			<point x="385" y="-130" type="curve" smooth="yes"/>
			<point x="374" y="-130"/>
			<point x="361" y="-130"/>
			<point x="350" y="-127" type="curve" name="hr01"/>
			<point x="350" y="-207" type="line"/>
			<point x="365" y="-210"/>
			<point x="385" y="-210"/>
			<point x="400" y="-210" type="curve" smooth="yes"/>
			<point x="517" y="-210"/>
			<point x="560" y="-165"/>
			<point x="560" y="0" type="curve" smooth="yes"/>
			<point x="560" y="190" type="line" smooth="yes"/>
			<point x="560" y="327"/>
			<point x="496" y="400"/>
			<point x="368" y="400" type="curve" smooth="yes"/>
			<point x="284" y="400"/>
			<point x="225" y="351"/>
			<point x="198" y="295" type="curve"/>
			<point x="198" y="456" type="line"/>
			<point x="430" y="456" type="line"/>
			<point x="430" y="530" type="line"/>
			<point x="198" y="530" type="line"/>
			<point x="198" y="700" type="line"/>
			<point x="110" y="700" type="line"/>
			<point x="110" y="530" type="line"/>
			<point x="20" y="530" type="line"/>
			<point x="20" y="456" type="line"/>
			<point x="110" y="456" type="line"/>
		</contour>
	</outline>
</glyph>
<glyph name="uni0454" format="2">
	<advance width="545" height="0"/>
	<unicode hex="0454"/>
	<outline>
		<contour>
			<point x="285" y="-10" type="curve" smooth="yes"/>
			<point x="396" y="-10" name="iv03"/>
			<point x="480" y="55"/>
			<point x="505" y="160" type="curve" name="sv03"/>
			<point x="415" y="160" type="line"/>
			<point x="396" y="104" name="sv02"/>
			<point x="350" y="70" name="iv02"/>
			<point x="285" y="70" type="curve" smooth="yes"/>
			<point x="215" y="70" name="sv01"/>
			<point x="144" y="115"/>
			<point x="136" y="231" type="curve" name="iv01"/>
			<point x="345" y="231" type="line" name="at01"/>
			<point x="345" y="309" type="line"/>
			<point x="136" y="309" type="line"/>
			<point x="147" y="416" name="ih01"/>
			<point x="215" y="460" name="ih02"/>
			<point x="285" y="460" type="curve" smooth="yes" name="ih03"/>
			<point x="361" y="460"/>
			<point x="394" y="421"/>
			<point x="415" y="370" type="curve" name="hr02"/>
			<point x="505" y="370" type="line"/>
			<point x="484" y="466"/>
			<point x="411" y="540"/>
			<point x="285" y="540" type="curve" smooth="yes"/>
			<point x="160" y="540"/>
			<point x="45" y="452"/>
			<point x="45" y="280" type="curve" smooth="yes"/>
			<point x="45" y="260" type="line" smooth="yes"/>
			<point x="45" y="78"/>
			<point x="149" y="-10"/>
		</contour>
	</outline>
</glyph>
<glyph name="uni045F" format="2">
	<advance width="590" height="0"/>
	<unicode hex="045F"/>
	<outline>
		<contour>
			<point x="252" y="-125" type="line" name="hr02"/>
			<point x="338" y="-125" type="line" name="av01"/>
			<point x="338" y="0" type="line" name="hr01"/>
			<point x="510" y="0" type="line" name="ab01"/>
			<point x="510" y="530" type="line"/>
			<point x="422" y="530" type="line" name="at02"/>
			<point x="422" y="78" type="line" name="sv02"/>
			<point x="168" y="78" type="line" name="sv01"/>
			<point x="168" y="530" type="line"/>
			<point x="80" y="530" type="line" name="at01"/>
			<point x="80" y="0" type="line"/>
			<point x="252" y="0" type="line" name="hr02"/>
		</contour>
	</outline>
</glyph>
<glyph name="uni0493" format="2">
	<advance width="495" height="0"/>
	<unicode hex="0493"/>
	<guideline y="259"/>
	<outline>
		<contour>
			<point x="35" y="231" type="line"/>
			<point x="115" y="231" type="line" name="sv04"/>
			<point x="115" y="0" type="line"/>
			<point x="203" y="0" type="line" name="ab01"/>
			<point x="203" y="231" type="line"/>
			<point x="380" y="231" type="line" name="sv03"/>
			<point x="380" y="309" type="line" name="iv01"/>
			<point x="203" y="309" type="line"/>
			<point x="203" y="452" type="line" name="ih01"/>
			<point x="475" y="452" type="line" name="sv02"/>
			<point x="475" y="530" type="line"/>
			<point x="115" y="530" type="line" name="at01"/>
			<point x="115" y="309" type="line"/>
			<point x="35" y="309" type="line" name="sv01"/>
		</contour>
	</outline>
</glyph>
<glyph name="uni0496" format="2">
	<advance width="976" height="0"/>
	<unicode hex="0496"/>
	<outline>
		<contour>
			<point x="946" y="-130" type="line" name="hr02"/>
			<point x="946" y="82" type="line"/>
			<point x="872" y="82" type="line" name="sv05"/>
			<point x="672" y="367" type="line" name="iv02"/>
			<point x="920" y="700" type="line"/>
			<point x="818" y="700" type="line" name="at03"/>
			<point x="597" y="399" type="line" name="iv01"/>
			<point x="527" y="399" type="line"/>
			<point x="527" y="700" type="line"/>
			<point x="433" y="700" type="line" name="at02"/>
			<point x="433" y="399" type="line" name="hr01"/>
			<point x="363" y="399" type="line" name="sv04"/>
			<point x="144" y="700" type="line"/>
			<point x="40" y="700" type="line" name="at01"/>
			<point x="288" y="364" type="line" name="sv03"/>
			<point x="30" y="0" type="line" name="hr01"/>
			<point x="138" y="0" type="line" name="ab03"/>
			<point x="363" y="321" type="line"/>
			<point x="433" y="321" type="line" name="sv02"/>
			<point x="433" y="0" type="line"/>
			<point x="527" y="0" type="line" name="ab02"/>
			<point x="527" y="321" type="line" name="ih01"/>
			<point x="597" y="321" type="line" name="sv01"/>
			<point x="820" y="0" type="line"/>
			<point x="856" y="0" type="line" name="ab01"/>
			<point x="856" y="-130" type="line" name="av01"/>
		</contour>
	</outline>
</glyph>
<glyph name="uni0498" format="2">
	<advance width="640"/>
	<unicode hex="0498"/>
	<outline>
		<component base="uni0417"/>
		<contour>
			<point x="365" y="-5" type="line" name="ab01"/>
			<point x="275" y="-4" type="line"/>
			<point x="275" y="-130" type="line"/>
			<point x="365" y="-130" type="line" name="av01"/>
		</contour>
	</outline>
</glyph>
<glyph name="uni0499" format="2">
	<advance width="525"/>
	<unicode hex="0499"/>
	<outline>
		<component base="uni0437"/>
		<contour>
			<point x="303" y="-2" type="line" name="ab01"/>
			<point x="217" y="-2" type="line" name="hr05"/>
			<point x="217" y="-125" type="line" name="hr06"/>
			<point x="303" y="-125" type="line"/>
		</contour>
	</outline>
</glyph>
<glyph name="uni049A" format="2">
	<advance width="716" height="0"/>
	<unicode hex="049A"/>
	<guideline y="0"/>
	<outline>
		<contour>
			<point x="686" y="-130" type="line" name="hr02"/>
			<point x="686" y="82" type="line"/>
			<point x="599" y="82" type="line" name="sv02"/>
			<point x="354" y="366" type="line" name="ih01"/>
			<point x="660" y="700" type="line"/>
			<point x="548" y="700" type="line" name="at02"/>
			<point x="274" y="399" type="line" name="hr01"/>
			<point x="194" y="399" type="line"/>
			<point x="194" y="700" type="line"/>
			<point x="100" y="700" type="line" name="at01"/>
			<point x="100" y="0" type="line" name="hr01"/>
			<point x="194" y="0" type="line" name="ab02"/>
			<point x="194" y="321" type="line"/>
			<point x="274" y="321" type="line" name="sv01"/>
			<point x="550" y="0" type="line"/>
			<point x="596" y="0" type="line" name="ab01"/>
			<point x="596" y="-130" type="line" name="av01"/>
		</contour>
	</outline>
</glyph>
<glyph name="uni049B" format="2">
	<advance width="583" height="0"/>
	<unicode hex="049B"/>
	<guideline y="0"/>
	<outline>
		<contour>
			<point x="558" y="-125" type="line" name="hr02"/>
			<point x="558" y="78" type="line"/>
			<point x="482" y="78" type="line" name="sv02"/>
			<point x="310" y="276" type="line" name="ih01"/>
			<point x="540" y="530" type="line"/>
			<point x="436" y="530" type="line" name="at02"/>
			<point x="238" y="308" type="line" name="hr01"/>
			<point x="168" y="308" type="line"/>
			<point x="168" y="530" type="line"/>
			<point x="80" y="530" type="line" name="at01"/>
			<point x="80" y="0" type="line" name="hr01"/>
			<point x="168" y="0" type="line" name="ab02"/>
			<point x="168" y="232" type="line"/>
			<point x="238" y="232" type="line" name="sv01"/>
			<point x="438" y="0" type="line"/>
			<point x="474" y="0" type="line" name="ab01"/>
			<point x="474" y="-125" type="line" name="av01"/>
		</contour>
	</outline>
</glyph>
<glyph name="uni049C" format="2">
	<advance width="709" height="0"/>
	<unicode hex="049C"/>
	<outline>
		<contour>
			<point x="100" y="0" type="line"/>
			<point x="194" y="0" type="line" name="ab02"/>
			<point x="194" y="314" type="line"/>
			<point x="248" y="314" type="line" name="sv05"/>
			<point x="248" y="200" type="line"/>
			<point x="333" y="200" type="line" name="sv04"/>
			<point x="333" y="314" type="line"/>
			<point x="350" y="314" type="line" name="sv03"/>
			<point x="565" y="0" type="line"/>
			<point x="679" y="0" type="line" name="ab01"/>
			<point x="427" y="359" type="line" name="iv01"/>
			<point x="659" y="700" type="line"/>
			<point x="552" y="700" type="line" name="at02"/>
			<point x="350" y="395" type="line" name="ih01"/>
			<point x="333" y="395" type="line"/>
			<point x="333" y="512" type="line" name="sv02"/>
			<point x="248" y="512" type="line"/>
			<point x="248" y="395" type="line"/>
			<point x="194" y="395" type="line" name="sv01"/>
			<point x="194" y="700" type="line"/>
			<point x="100" y="700" type="line" name="at01"/>
		</contour>
	</outline>
</glyph>
<glyph name="uni04A0" format="2">
	<advance width="780" height="0"/>
	<unicode hex="04A0"/>
	<guideline y="651"/>
	<outline>
		<contour>
			<point x="20" y="618" type="line"/>
			<point x="180" y="618" type="line" name="sv02"/>
			<point x="180" y="0" type="line"/>
			<point x="274" y="0" type="line" name="ab02"/>
			<point x="274" y="321" type="line"/>
			<point x="354" y="321" type="line" name="sv01"/>
			<point x="630" y="0" type="line"/>
			<point x="750" y="0" type="line" name="ab01"/>
			<point x="434" y="366" type="line" name="iv01"/>
			<point x="740" y="700" type="line"/>
			<point x="628" y="700" type="line" name="at02"/>
			<point x="354" y="399" type="line" name="ih01"/>
			<point x="274" y="399" type="line"/>
			<point x="274" y="700" type="line"/>
			<point x="20" y="700" type="line" name="at01"/>
		</contour>
	</outline>
</glyph>
<glyph name="uni04A1" format="2">
	<advance width="655" height="0"/>
	<unicode hex="04A1"/>
	<outline>
		<contour>
			<point x="20" y="452" type="line" name="hr02"/>
			<point x="160" y="452" type="line" name="sv02"/>
			<point x="160" y="0" type="line"/>
			<point x="248" y="0" type="line" name="ab02"/>
			<point x="248" y="232" type="line"/>
			<point x="318" y="232" type="line" name="sv01"/>
			<point x="518" y="0" type="line"/>
			<point x="630" y="0" type="line" name="ab01"/>
			<point x="390" y="276" type="line" name="iv01"/>
			<point x="620" y="530" type="line"/>
			<point x="516" y="530" type="line" name="at02"/>
			<point x="318" y="308" type="line" name="ih01"/>
			<point x="248" y="308" type="line"/>
			<point x="248" y="530" type="line" name="hr01"/>
			<point x="20" y="530" type="line" name="at01"/>
		</contour>
	</outline>
</glyph>
<glyph name="uni04A3" format="2">
	<advance width="630" height="0"/>
	<unicode hex="04A3"/>
	<outline>
		<contour>
			<point x="605" y="-125" type="line" name="hr04"/>
			<point x="605" y="78" type="line" name="hr03"/>
			<point x="530" y="78" type="line" name="sv02"/>
			<point x="530" y="530" type="line"/>
			<point x="442" y="530" type="line" name="at02"/>
			<point x="442" y="309" type="line" name="iv01"/>
			<point x="168" y="309" type="line" name="hr02"/>
			<point x="168" y="530" type="line"/>
			<point x="80" y="530" type="line" name="at01"/>
			<point x="80" y="0" type="line" name="hr02"/>
			<point x="168" y="0" type="line" name="ab02"/>
			<point x="168" y="231" type="line"/>
			<point x="442" y="231" type="line" name="sv01"/>
			<point x="442" y="0" type="line" name="hr01"/>
			<point x="521" y="0" type="line" name="ab01"/>
			<point x="521" y="-125" type="line" name="av01"/>
		</contour>
	</outline>
</glyph>
<glyph name="uni04A4" format="2">
	<advance width="1026" height="0"/>
	<unicode hex="04A4"/>
	<guideline y="401"/>
	<guideline y="319"/>
	<outline>
		<contour>
			<point x="194" y="0" type="line"/>
			<point x="194" y="319" type="line"/>
			<point x="566" y="319" type="line" name="sv02"/>
			<point x="566" y="0" type="line"/>
			<point x="660" y="0" type="line" name="ab02"/>
			<point x="660" y="618" type="line"/>
			<point x="1006" y="618" type="line" name="sv01"/>
			<point x="1006" y="700" type="line"/>
			<point x="566" y="700" type="line" name="at02"/>
			<point x="566" y="401" type="line" name="ih01"/>
			<point x="194" y="401" type="line"/>
			<point x="194" y="700" type="line"/>
			<point x="100" y="700" type="line" name="at01"/>
			<point x="100" y="0" type="line" name="ab01"/>
		</contour>
	</outline>
</glyph>
<glyph name="uni04AB" format="2">
	<advance width="545" height="0"/>
	<unicode hex="04AB"/>
	<outline>
		<contour>
			<point x="329" y="-125" type="line"/>
			<point x="329" y="-6" type="line" name="ab01"/>
			<point x="366" y="-1"/>
			<point x="398" y="13"/>
			<point x="427" y="35" type="curve" smooth="yes" name="iv02"/>
			<point x="466" y="66" name="sv03"/>
			<point x="492" y="107"/>
			<point x="505" y="160" type="curve"/>
			<point x="415" y="160" type="line" name="sv02"/>
			<point x="396" y="104"/>
			<point x="350" y="70" name="iv01"/>
			<point x="285" y="70" type="curve" smooth="yes" name="ih01"/>
			<point x="208" y="70"/>
			<point x="135" y="123"/>
			<point x="135" y="260" type="curve" smooth="yes"/>
			<point x="135" y="280" type="line" smooth="yes" name="sv01"/>
			<point x="135" y="407" name="av01"/>
			<point x="208" y="460" name="ih02"/>
			<point x="285" y="460" type="curve" smooth="yes" name="ih03"/>
			<point x="361" y="460"/>
			<point x="394" y="421"/>
			<point x="415" y="370" type="curve" name="hr01"/>
			<point x="505" y="370" type="line"/>
			<point x="484" y="466"/>
			<point x="411" y="540"/>
			<point x="285" y="540" type="curve" smooth="yes"/>
			<point x="160" y="540"/>
			<point x="45" y="452"/>
			<point x="45" y="280" type="curve" smooth="yes"/>
			<point x="45" y="260" type="line" smooth="yes"/>
			<point x="45" y="124"/>
			<point x="104" y="39"/>
			<point x="190" y="6" type="curve"/>
			<point x="207" y="0"/>
			<point x="224" y="-4"/>
			<point x="243" y="-7" type="curve"/>
			<point x="243" y="-125" type="line" name="hr02"/>
		</contour>
	</outline>
</glyph>
<glyph name="uni04AF" format="2">
	<advance width="560" height="0"/>
	<unicode hex="04AF"/>
	<outline>
		<contour>
			<point x="333" y="-230" type="line"/>
			<point x="333" y="-16" type="line" name="sv01"/>
			<point x="540" y="530" type="line"/>
			<point x="446" y="530" type="line" name="at02"/>
			<point x="290" y="90" type="line" name="ih01"/>
			<point x="118" y="530" type="line"/>
			<point x="20" y="530" type="line" name="at01"/>
			<point x="245" y="-11" type="line" name="ab01"/>
			<point x="245" y="-230" type="line" name="av01"/>
		</contour>
	</outline>
</glyph>
<glyph name="uni04B0" format="2">
	<advance width="599" height="0"/>
	<unicode hex="04B0"/>
	<guideline y="219"/>
	<outline>
		<contour>
			<point x="268" y="0" type="line"/>
			<point x="362" y="0" type="line" name="ab01"/>
			<point x="362" y="219" type="line"/>
			<point x="497" y="219" type="line" name="sv03"/>
			<point x="497" y="301" type="line"/>
			<point x="364" y="301" type="line" name="sv02"/>
			<point x="589" y="700" type="line"/>
			<point x="486" y="700" type="line" name="at02"/>
			<point x="314" y="394" type="line" name="ih01"/>
			<point x="128" y="700" type="line"/>
			<point x="21" y="700" type="line" name="at01"/>
			<point x="265" y="301" type="line" name="iv01"/>
			<point x="122" y="301" type="line"/>
			<point x="122" y="219" type="line"/>
			<point x="268" y="219" type="line" name="sv01"/>
		</contour>
	</outline>
</glyph>
<glyph name="uni04B1" format="2">
	<advance width="536" height="0"/>
	<unicode hex="04B1"/>
	<outline>
		<contour>
			<point x="114" y="0" type="line"/>
			<point x="234" y="0" type="line" name="ab02"/>
			<point x="234" y="-230" type="line"/>
			<point x="322" y="-230" type="line" name="av01"/>
			<point x="322" y="0" type="line"/>
			<point x="445" y="0" type="line" name="ab01"/>
			<point x="445" y="77" type="line" name="sv03"/>
			<point x="339" y="77" type="line" name="sv02"/>
			<point x="516" y="530" type="line"/>
			<point x="421" y="530" type="line" name="at02"/>
			<point x="278" y="132" type="line" name="ih01"/>
			<point x="119" y="530" type="line"/>
			<point x="20" y="530" type="line" name="at01"/>
			<point x="212" y="77" type="line"/>
			<point x="114" y="77" type="line" name="sv01"/>
		</contour>
	</outline>
</glyph>
<glyph name="uni04B2" format="2">
	<advance width="684" height="0"/>
	<unicode hex="04B2"/>
	<guideline y="0"/>
	<outline>
		<contour>
			<point x="654" y="-130" type="line" name="hr02"/>
			<point x="654" y="82" type="line"/>
			<point x="574" y="82" type="line" name="sv01"/>
			<point x="384" y="359" type="line"/>
			<point x="620" y="700" type="line"/>
			<point x="520" y="700" type="line" name="hr01"/>
			<point x="331" y="429" type="line" name="ih01"/>
			<point x="144" y="700" type="line"/>
			<point x="40" y="700" type="line" name="at01"/>
			<point x="277" y="357" type="line"/>
			<point x="30" y="0" type="line" name="hr01"/>
			<point x="132" y="0" type="line" name="ab02"/>
			<point x="329" y="288" type="line" name="iv01"/>
			<point x="524" y="0" type="line"/>
			<point x="564" y="0" type="line" name="ab01"/>
			<point x="564" y="-130" type="line" name="av01"/>
		</contour>
	</outline>
</glyph>
<glyph name="uni04B3" format="2">
	<advance width="566" height="0"/>
	<unicode hex="04B3"/>
	<guideline y="0"/>
	<outline>
		<contour>
			<point x="541" y="-125" type="line" name="hr02"/>
			<point x="541" y="78" type="line"/>
			<point x="468" y="78" type="line" name="sv01"/>
			<point x="326" y="274" type="line"/>
			<point x="515" y="530" type="line"/>
			<point x="417" y="530" type="line" name="hr01"/>
			<point x="277" y="337" type="line" name="ih01"/>
			<point x="137" y="530" type="line"/>
			<point x="35" y="530" type="line" name="at01"/>
			<point x="224" y="269" type="line"/>
			<point x="25" y="0" type="line" name="hr01"/>
			<point x="125" y="0" type="line" name="ab02"/>
			<point x="273" y="207" type="line" name="iv01"/>
			<point x="421" y="0" type="line"/>
			<point x="457" y="0" type="line" name="ab01"/>
			<point x="457" y="-125" type="line" name="av01"/>
		</contour>
	</outline>
</glyph>
<glyph name="uni04B6" format="2">
	<advance width="695" height="0"/>
	<unicode hex="04B6"/>
	<outline>
		<contour>
			<point x="575" y="0" type="line"/>
			<point x="575" y="-130" type="line" name="hr01"/>
			<point x="665" y="-130" type="line"/>
			<point x="665" y="82" type="line"/>
			<point x="570" y="82" type="line"/>
			<point x="570" y="700" type="line"/>
			<point x="476" y="700" type="line"/>
			<point x="476" y="394" type="line"/>
			<point x="441" y="371"/>
			<point x="389" y="347"/>
			<point x="305" y="347" type="curve" smooth="yes"/>
			<point x="197" y="347"/>
			<point x="154" y="390"/>
			<point x="154" y="495" type="curve" smooth="yes"/>
			<point x="154" y="700" type="line"/>
			<point x="60" y="700" type="line"/>
			<point x="60" y="495" type="line" smooth="yes"/>
			<point x="60" y="334"/>
			<point x="131" y="263"/>
			<point x="295" y="263" type="curve" smooth="yes"/>
			<point x="376" y="263"/>
			<point x="441" y="285"/>
			<point x="476" y="308" type="curve" name="hr01"/>
			<point x="476" y="0" type="line" name="hr02"/>
		</contour>
	</outline>
</glyph>
<glyph name="uni04B7" format="2">
	<advance width="585" height="0"/>
	<unicode hex="04B7"/>
	<guideline y="232"/>
	<outline>
		<contour>
			<point x="476" y="-125" type="line" name="hr02"/>
			<point x="560" y="-125" type="line"/>
			<point x="560" y="78" type="line"/>
			<point x="475" y="78" type="line"/>
			<point x="475" y="530" type="line"/>
			<point x="387" y="530" type="line"/>
			<point x="387" y="283" type="line"/>
			<point x="370" y="270"/>
			<point x="325" y="255"/>
			<point x="265" y="255" type="curve" smooth="yes" name="hr01"/>
			<point x="177" y="255"/>
			<point x="143" y="284"/>
			<point x="143" y="375" type="curve" smooth="yes"/>
			<point x="143" y="530" type="line"/>
			<point x="55" y="530" type="line"/>
			<point x="55" y="360" type="line" smooth="yes"/>
			<point x="55" y="225"/>
			<point x="126" y="175"/>
			<point x="250" y="175" type="curve" smooth="yes"/>
			<point x="315" y="175"/>
			<point x="356" y="192"/>
			<point x="387" y="211" type="curve"/>
			<point x="387" y="0" type="line" name="hr01"/>
			<point x="476" y="0" type="line"/>
		</contour>
	</outline>
</glyph>
<glyph name="uni04B8" format="2">
	<advance width="632" height="0"/>
	<unicode hex="04B8"/>
	<outline>
		<contour>
			<point x="532" y="0" type="line"/>
			<point x="532" y="700" type="line"/>
			<point x="438" y="700" type="line" name="at02"/>
			<point x="438" y="430" type="line"/>
			<point x="409" y="397" name="sv04"/>
			<point x="372" y="378"/>
			<point x="331" y="369" type="curve" name="sv03"/>
			<point x="331" y="502" type="line" name="iv01"/>
			<point x="246" y="502" type="line"/>
			<point x="246" y="367" type="line"/>
			<point x="154" y="378" name="at01"/>
			<point x="134" y="434"/>
			<point x="134" y="535" type="curve" smooth="yes" name="sv01"/>
			<point x="134" y="700" type="line" name="sv02"/>
			<point x="40" y="700" type="line"/>
			<point x="40" y="535" type="line" smooth="yes" name="ih01"/>
			<point x="40" y="380" name="iv02"/>
			<point x="89" y="291" name="ab01"/>
			<point x="246" y="283" type="curve" name="ih02"/>
			<point x="246" y="190" type="line" name="ih03"/>
			<point x="331" y="190" type="line"/>
			<point x="331" y="289" type="line"/>
			<point x="370" y="296"/>
			<point x="409" y="311"/>
			<point x="438" y="334" type="curve"/>
			<point x="438" y="0" type="line"/>
		</contour>
	</outline>
</glyph>
<glyph name="uni04C3" format="2">
	<advance width="643" height="0"/>
	<unicode hex="04C3"/>
	<outline>
		<contour>
			<point x="100" y="0" type="line"/>
			<point x="194" y="0" type="line" name="ab01"/>
			<point x="194" y="314" type="line"/>
			<point x="329" y="314" type="line" smooth="yes" name="ih01"/>
			<point x="425" y="314"/>
			<point x="484" y="268"/>
			<point x="484" y="171" type="curve" smooth="yes"/>
			<point x="484" y="-8" type="line" smooth="yes" name="sv02"/>
			<point x="484" y="-92"/>
			<point x="454" y="-123" name="ab02"/>
			<point x="370" y="-123" type="curve" smooth="yes"/>
			<point x="347" y="-123" type="line" name="hr01"/>
			<point x="347" y="-200" type="line" name="sv01"/>
			<point x="380" y="-200" type="line" smooth="yes"/>
			<point x="513" y="-200" name="at02"/>
			<point x="573" y="-141" name="iv01"/>
			<point x="573" y="-12" type="curve" smooth="yes"/>
			<point x="573" y="188" type="line" smooth="yes"/>
			<point x="573" y="309" name="at01"/>
			<point x="489" y="377" name="ih02"/>
			<point x="400" y="390" type="curve" name="ih03"/>
			<point x="619" y="700" type="line"/>
			<point x="512" y="700" type="line"/>
			<point x="300" y="395" type="line"/>
			<point x="194" y="395" type="line"/>
			<point x="194" y="700" type="line"/>
			<point x="100" y="700" type="line"/>
		</contour>
	</outline>
</glyph>
<glyph name="uni04C4" format="2">
	<advance width="540" height="0"/>
	<unicode hex="04C4"/>
	<outline>
		<contour>
			<point x="297" y="-195" type="line"/>
			<point x="315" y="-200" name="ab01"/>
			<point x="333" y="-202"/>
			<point x="351" y="-202" type="curve" smooth="yes"/>
			<point x="435" y="-202" name="sv02"/>
			<point x="480" y="-138"/>
			<point x="480" y="-25" type="curve" smooth="yes" name="at02"/>
			<point x="480" y="112" type="line" smooth="yes" name="iv01"/>
			<point x="480" y="221"/>
			<point x="426" y="281"/>
			<point x="330" y="300" type="curve" name="at01"/>
			<point x="507" y="530" type="line"/>
			<point x="408" y="530" type="line" name="hr02"/>
			<point x="240" y="308" type="line"/>
			<point x="169" y="308" type="line" name="ih01"/>
			<point x="169" y="530" type="line" name="hr01"/>
			<point x="80" y="530" type="line"/>
			<point x="80" y="0" type="line" name="sv01"/>
			<point x="169" y="0" type="line"/>
			<point x="169" y="232" type="line" name="ih02"/>
			<point x="268" y="232" type="line" smooth="yes" name="ih03"/>
			<point x="340" y="232"/>
			<point x="391" y="192" name="hr01"/>
			<point x="391" y="100" type="curve" smooth="yes"/>
			<point x="391" y="0" type="line" smooth="yes"/>
			<point x="391" y="-85"/>
			<point x="377" y="-122"/>
			<point x="328" y="-122" type="curve" smooth="yes"/>
			<point x="319" y="-122"/>
			<point x="309" y="-121"/>
			<point x="297" y="-118" type="curve" name="hr02"/>
		</contour>
	</outline>
</glyph>
<glyph name="uni04C7" format="2">
	<advance width="760" height="0"/>
	<unicode hex="04C7"/>
	<outline>
		<contour>
			<point x="100" y="0" type="line"/>
			<point x="194" y="0" type="line" name="ab01"/>
			<point x="194" y="319" type="line"/>
			<point x="566" y="319" type="line" name="sv02"/>
			<point x="566" y="0" type="line" smooth="yes"/>
			<point x="566" y="-92" name="sv01"/>
			<point x="545" y="-118"/>
			<point x="479" y="-118" type="curve" name="ih01"/>
			<point x="477" y="-118" type="line" name="ab02"/>
			<point x="477" y="-200" type="line"/>
			<point x="479" y="-200" type="line" name="hr02"/>
			<point x="614" y="-200" name="at02"/>
			<point x="660" y="-158" name="iv01"/>
			<point x="660" y="0" type="curve" smooth="yes" name="hr01"/>
			<point x="660" y="700" type="line"/>
			<point x="566" y="700" type="line" name="at01"/>
			<point x="566" y="401" type="line" name="ih02"/>
			<point x="194" y="401" type="line" name="ih03"/>
			<point x="194" y="700" type="line"/>
			<point x="100" y="700" type="line"/>
		</contour>
	</outline>
</glyph>
<glyph name="uni04CC" format="2">
	<advance width="555" height="0"/>
	<unicode hex="04CC"/>
	<guideline y="232"/>
	<outline>
		<contour>
			<point x="314" y="-125" type="line"/>
			<point x="398" y="-125" type="line" name="av01"/>
			<point x="398" y="0" type="line" name="hr01"/>
			<point x="475" y="0" type="line" name="ab01"/>
			<point x="475" y="530" type="line"/>
			<point x="387" y="530" type="line" name="at02"/>
			<point x="387" y="283" type="line"/>
			<point x="370" y="270" name="ih01"/>
			<point x="325" y="255"/>
			<point x="265" y="255" type="curve" smooth="yes" name="hr02"/>
			<point x="177" y="255" name="at01"/>
			<point x="143" y="284"/>
			<point x="143" y="375" type="curve" smooth="yes" name="sv02"/>
			<point x="143" y="530" type="line" name="iv01"/>
			<point x="55" y="530" type="line" name="sv01"/>
			<point x="55" y="360" type="line" smooth="yes"/>
			<point x="55" y="225" name="ih02"/>
			<point x="126" y="175" name="ih03"/>
			<point x="250" y="175" type="curve" smooth="yes"/>
			<point x="315" y="175"/>
			<point x="356" y="192"/>
			<point x="387" y="211" type="curve" name="hr01"/>
			<point x="387" y="78" type="line" name="hr03"/>
			<point x="314" y="78" type="line" name="hr04"/>
		</contour>
	</outline>
</glyph>
<glyph name="uni04D8" format="2">
	<advance width="705" height="0"/>
	<unicode hex="04D8"/>
	<guideline y="401"/>
	<guideline y="208"/>
	<anchor x="353" y="700" name="top"/>
	<outline>
		<contour>
			<point x="335" y="-10" type="curve" smooth="yes"/>
			<point x="506" y="-10"/>
			<point x="645" y="97"/>
			<point x="645" y="345" type="curve" smooth="yes" name="at01"/>
			<point x="645" y="365" type="line" smooth="yes"/>
			<point x="645" y="604" name="iv02"/>
			<point x="505" y="710" name="ih01"/>
			<point x="343" y="710" type="curve" smooth="yes" name="iv01"/>
			<point x="203" y="710"/>
			<point x="102" y="632"/>
			<point x="70" y="500" type="curve" name="ab01"/>
			<point x="170" y="500" type="line"/>
			<point x="199" y="588"/>
			<point x="268" y="626" name="sv01"/>
			<point x="345" y="626" type="curve" smooth="yes" name="sh01"/>
			<point x="441" y="626" name="ih02"/>
			<point x="536" y="565" name="ih03"/>
			<point x="544" y="401" type="curve"/>
			<point x="55" y="401" type="line"/>
			<point x="55" y="345" type="line" smooth="yes"/>
			<point x="55" y="97"/>
			<point x="165" y="-10"/>
		</contour>
		<contour>
			<point x="335" y="74" type="curve" smooth="yes"/>
			<point x="235" y="74"/>
			<point x="166" y="136"/>
			<point x="155" y="319" type="curve"/>
			<point x="544" y="319" type="line"/>
			<point x="536" y="137"/>
			<point x="434" y="74"/>
		</contour>
	</outline>
</glyph>
<glyph name="uni04D9" format="2">
	<advance width="580" height="0"/>
	<unicode hex="04D9"/>
	<anchor x="290" y="530" name="top"/>
	<outline>
		<contour>
			<point x="280" y="540" type="curve" smooth="yes"/>
			<point x="168" y="540"/>
			<point x="76" y="486" name="iv02"/>
			<point x="55" y="385" type="curve" name="sv01"/>
			<point x="141" y="385" type="line"/>
			<point x="160" y="432" name="iv01"/>
			<point x="200" y="460" name="hr01"/>
			<point x="280" y="460" type="curve" smooth="yes" name="ih01"/>
			<point x="359" y="460"/>
			<point x="447" y="415"/>
			<point x="447" y="291" type="curve" name="at01"/>
			<point x="45" y="291" type="line"/>
			<point x="45" y="235" type="line" smooth="yes" name="sh01"/>
			<point x="45" y="78" name="sv02"/>
			<point x="133" y="-10" name="ih02"/>
			<point x="290" y="-10" type="curve" smooth="yes" name="ih03"/>
			<point x="421" y="-10"/>
			<point x="535" y="75"/>
			<point x="535" y="250" type="curve" smooth="yes" name="hr01"/>
			<point x="535" y="270" type="line" smooth="yes"/>
			<point x="535" y="455"/>
			<point x="415" y="540"/>
		</contour>
		<contour>
			<point x="447" y="219" type="line"/>
			<point x="447" y="115"/>
			<point x="367" y="70"/>
			<point x="285" y="70" type="curve" smooth="yes"/>
			<point x="199" y="70"/>
			<point x="131" y="110"/>
			<point x="128" y="219" type="curve"/>
		</contour>
	</outline>
</glyph>
<glyph name="uni04E8" format="2">
	<advance width="740" height="0"/>
	<unicode hex="04E8"/>
	<anchor x="370" y="700" name="top"/>
	<outline>
		<contour>
			<point x="370" y="-10" type="curve" smooth="yes"/>
			<point x="530" y="-10"/>
			<point x="680" y="95"/>
			<point x="680" y="345" type="curve" smooth="yes" name="at01"/>
			<point x="680" y="365" type="line" smooth="yes"/>
			<point x="680" y="605"/>
			<point x="530" y="710" name="ih01"/>
			<point x="370" y="710" type="curve" smooth="yes"/>
			<point x="210" y="710"/>
			<point x="60" y="605" name="sv01"/>
			<point x="60" y="365" type="curve" smooth="yes" name="sh01"/>
			<point x="60" y="345" type="line" smooth="yes"/>
			<point x="60" y="95" name="iv01"/>
			<point x="210" y="-10"/>
		</contour>
		<contour>
			<point x="370" y="74" type="curve" smooth="yes" name="ih02"/>
			<point x="266" y="74" name="ih03"/>
			<point x="171" y="143"/>
			<point x="160" y="315" type="curve"/>
			<point x="579" y="315" type="line"/>
			<point x="568" y="143"/>
			<point x="474" y="74"/>
		</contour>
		<contour>
			<point x="370" y="626" type="curve" smooth="yes"/>
			<point x="474" y="626"/>
			<point x="568" y="557"/>
			<point x="579" y="395" type="curve"/>
			<point x="160" y="395" type="line"/>
			<point x="171" y="557"/>
			<point x="267" y="626"/>
		</contour>
	</outline>
</glyph>
<glyph name="uni04F9" format="2">
	<advance width="730"/>
	<unicode hex="04F9"/>
	<outline>
		<contour>
			<point x="80" y="0" type="line"/>
			<point x="275" y="0" type="line" smooth="yes"/>
			<point x="408" y="0"/>
			<point x="470" y="63"/>
			<point x="470" y="164" type="curve" smooth="yes"/>
			<point x="470" y="268"/>
			<point x="408" y="330"/>
			<point x="275" y="330" type="curve" smooth="yes"/>
			<point x="168" y="330" type="line"/>
			<point x="168" y="530" type="line"/>
			<point x="80" y="530" type="line"/>
		</contour>
		<contour>
			<point x="168" y="78" type="line"/>
			<point x="168" y="252" type="line"/>
			<point x="270" y="252" type="line" smooth="yes"/>
			<point x="353" y="252"/>
			<point x="382" y="222"/>
			<point x="382" y="165" type="curve" smooth="yes"/>
			<point x="382" y="108"/>
			<point x="353" y="78"/>
			<point x="270" y="78" type="curve" smooth="yes"/>
		</contour>
		<contour>
			<point x="552" y="0" type="line"/>
			<point x="640" y="0" type="line"/>
			<point x="640" y="530" type="line"/>
			<point x="552" y="530" type="line"/>
		</contour>
		<contour>
			<point x="261" y="602" type="curve" smooth="yes"/>
			<point x="293" y="602"/>
			<point x="319" y="628"/>
			<point x="319" y="660" type="curve" smooth="yes"/>
			<point x="319" y="692"/>
			<point x="293" y="718"/>
			<point x="261" y="718" type="curve" smooth="yes"/>
			<point x="229" y="718"/>
			<point x="203" y="692"/>
			<point x="203" y="660" type="curve" smooth="yes"/>
			<point x="203" y="628"/>
			<point x="229" y="602"/>
		</contour>
		<contour>
			<point x="465" y="602" type="curve" smooth="yes"/>
			<point x="497" y="602"/>
			<point x="523" y="628"/>
			<point x="523" y="660" type="curve" smooth="yes"/>
			<point x="523" y="692"/>
			<point x="497" y="718"/>
			<point x="465" y="718" type="curve" smooth="yes"/>
			<point x="433" y="718"/>
			<point x="407" y="692"/>
			<point x="407" y="660" type="curve" smooth="yes"/>
			<point x="407" y="628"/>
			<point x="433" y="602"/>
		</contour>
	</outline>
</glyph>
<glyph name="uni1E9E" format="2">
	<advance width="648" height="0"/>
	<unicode hex="1E9E"/>
	<anchor x="324" y="0" name="bottom"/>
	<anchor x="324" y="700" name="top"/>
	<outline>
		<contour>
			<point x="344" y="707" type="curve" smooth="yes"/>
			<point x="188" y="707"/>
			<point x="98" y="598"/>
			<point x="98" y="466" type="curve" smooth="yes" name="ab02"/>
			<point x="98" y="0" type="line"/>
			<point x="192" y="0" type="line" name="sv04"/>
			<point x="192" y="455" type="line" smooth="yes"/>
			<point x="192" y="566" name="sv03"/>
			<point x="243" y="625"/>
			<point x="347" y="625" type="curve" smooth="yes" name="sv02"/>
			<point x="435" y="625"/>
			<point x="481" y="574"/>
			<point x="481" y="509" type="curve" name="sv01"/>
			<point x="308" y="400" type="line" name="ih01"/>
			<point x="308" y="320" type="line" name="ab01"/>
			<point x="352" y="320" type="line" smooth="yes"/>
			<point x="464" y="320" name="iv01"/>
			<point x="505" y="274" name="hr01"/>
			<point x="505" y="201" type="curve" smooth="yes" name="at01"/>
			<point x="505" y="128" name="ih02"/>
			<point x="459" y="82" name="ih03"/>
			<point x="347" y="82" type="curve" smooth="yes"/>
			<point x="323" y="82" type="line"/>
			<point x="323" y="0" type="line" name="hr01"/>
			<point x="349" y="0" type="line" smooth="yes"/>
			<point x="517" y="0"/>
			<point x="598" y="84"/>
			<point x="598" y="198" type="curve" smooth="yes"/>
			<point x="598" y="289"/>
			<point x="562" y="371"/>
			<point x="413" y="384" type="curve"/>
			<point x="574" y="483" type="line" name="hr02"/>
			<point x="574" y="588"/>
			<point x="534" y="707"/>
		</contour>
	</outline>
</glyph>
<glyph name="daggerdbl" format="2">
	<advance width="550" height="0"/>
	<unicode hex="2021"/>
	<outline>
		<contour>
			<point x="233" y="-200" type="line"/>
			<point x="317" y="-200" type="line" name="ab01"/>
			<point x="317" y="0" type="line"/>
			<point x="505" y="0" type="line" name="ab02"/>
			<point x="505" y="74" type="line" name="sv07"/>
			<point x="317" y="74" type="line" name="sv06"/>
			<point x="317" y="456" type="line" name="sv05"/>
			<point x="505" y="456" type="line" name="sv04"/>
			<point x="505" y="530" type="line"/>
			<point x="317" y="530" type="line" name="at03"/>
			<point x="317" y="700" type="line"/>
			<point x="233" y="700" type="line" name="at01"/>
			<point x="233" y="530" type="line"/>
			<point x="45" y="530" type="line" name="at02"/>
			<point x="45" y="456" type="line" name="sv03"/>
			<point x="233" y="456" type="line" name="sv02"/>
			<point x="233" y="74" type="line"/>
			<point x="45" y="74" type="line" name="sv01"/>
			<point x="45" y="0" type="line"/>
			<point x="233" y="0" type="line" name="ih01"/>
		</contour>
	</outline>
</glyph>
